<?xml version="1.0" encoding="utf-8"?>
<!-- Generator: Adobe Illustrator 16.0.0, SVG Export Plug-In . SVG Version: 6.00 Build 0)  -->
<!DOCTYPE svg PUBLIC "-//W3C//DTD SVG 1.1//EN" "http://www.w3.org/Graphics/SVG/1.1/DTD/svg11.dtd">
<svg version="1.1" id="Layer_1" xmlns="http://www.w3.org/2000/svg" xmlns:xlink="http://www.w3.org/1999/xlink" x="0px" y="0px"
	 width="30px" height="30px" viewBox="0 0 30 30" enable-background="new 0 0 30 30" xml:space="preserve">
<path fill="#2CA8DF" d="M1.498,24.336c2.269-2.318,6.237-4.803,14.236-4.77c1.123,0.008,2.037,1.021,2.037,2.273v4.146
	c0,0.918,0.98,1.396,1.586,0.773l9.979-10.322c0.846-0.871,0.834-2.36-0.02-3.221L19.348,3.23c-0.609-0.614-1.576-0.13-1.576,0.784
	V7.28c0,1.219-0.894,2.262-1.978,2.376C9.8,10.283,3.274,14.554,0.103,23.284C-0.235,24.225,0.819,25.018,1.498,24.336z"/>
</svg>
