<?xml version="1.0" encoding="utf-8"?>
<!-- Generator: Adobe Illustrator 16.0.0, SVG Export Plug-In . SVG Version: 6.00 Build 0)  -->
<!DOCTYPE svg PUBLIC "-//W3C//DTD SVG 1.1//EN" "http://www.w3.org/Graphics/SVG/1.1/DTD/svg11.dtd">
<svg version="1.1" id="Layer_1" xmlns="http://www.w3.org/2000/svg" xmlns:xlink="http://www.w3.org/1999/xlink" x="0px" y="0px"
	 width="30px" height="30px" viewBox="0 0 30 30" enable-background="new 0 0 30 30" xml:space="preserve">
<g>
	<path fill="#E3E6EA" d="M28.032,25.061H1.965c-0.6,0-1.087,0.482-1.087,1.082v1.685c0,1.2,0.97,2.174,2.176,2.174h23.894
		c1.196,0,2.174-0.974,2.174-2.174v-1.685C29.122,25.543,28.636,25.061,28.032,25.061z"/>
	<path fill="#E3E6EA" d="M27.273,23.232l-4.359-4.309c-0.639-0.636-1.432-1.078-2.287-1.316c-0.25-0.073-0.513,0.134-0.429,0.382
		l0.627,1.844c0.175,0.638-0.289,1.281-1.091,1.503c-0.162,0.047-0.322,0.088-0.482,0.129c-0.131,0.028-0.09-0.195-0.012-0.304
		c0.191-0.282,0.283-0.642,0.21-1.002l-0.574-2.769l-0.623-3.03c-0.062-0.268-0.405-0.303-0.639-0.154
		c-0.556,0.347-1.503,0.813-2.616,0.813c-1.11,0-2.06-0.466-2.616-0.813c-0.233-0.148-0.577-0.113-0.635,0.154l-0.624,3.03
		l-0.571,2.769c-0.078,0.364,0.003,0.729,0.199,1.017c0.078,0.114,0.096,0.329-0.032,0.299c-0.175-0.045-0.341-0.092-0.516-0.145
		c-0.784-0.225-1.197-0.868-1.028-1.497l0.623-1.844c0.082-0.248-0.174-0.455-0.428-0.382c-0.856,0.238-1.649,0.682-2.287,1.316
		l-4.358,4.305c-0.28,0.28-0.084,0.767,0.315,0.767l23.923,0.003C27.359,23.998,27.561,23.514,27.273,23.232z"/>
	<path fill="#E3E6EA" d="M14.999,0.064c-3.711,0-6.727,3.009-6.727,6.724c0,0.035,0.003,0.069,0.003,0.102
		c0.038,2.404,1.337,4.496,3.26,5.655c0.151,0.093,0.305,0.18,0.471,0.262c0.9,0.449,1.917,0.708,2.992,0.708
		c1.078,0,2.094-0.259,2.995-0.708c0.159-0.082,0.317-0.169,0.472-0.262c1.924-1.159,3.219-3.251,3.258-5.655
		c0-0.032,0.006-0.067,0.006-0.102C21.729,3.074,18.713,0.064,14.999,0.064z"/>
</g>
</svg>
