<?xml version="1.0" encoding="utf-8"?>
<!-- Generator: Adobe Illustrator 16.0.0, SVG Export Plug-In . SVG Version: 6.00 Build 0)  -->
<!DOCTYPE svg PUBLIC "-//W3C//DTD SVG 1.1//EN" "http://www.w3.org/Graphics/SVG/1.1/DTD/svg11.dtd">
<svg version="1.1" id="Layer_1" xmlns="http://www.w3.org/2000/svg" xmlns:xlink="http://www.w3.org/1999/xlink" x="0px" y="0px"
	 width="30px" height="30px" viewBox="0 0 30 30" enable-background="new 0 0 30 30" xml:space="preserve">
<g>
	<g>
		<path fill="#E3E6EA" d="M0.208,29.787c-0.259-0.26-0.281-0.686-0.04-0.969l9.674-11.617c0.097-0.118,0.281-0.124,0.391-0.02
			l2.577,2.582c0.116,0.107,0.103,0.293-0.013,0.394l-11.62,9.677C0.892,30.072,0.471,30.053,0.208,29.787z"/>
		<path fill="#E3E6EA" d="M29.813,7.718l-7.426-7.516c-0.408-0.418-1.178-0.206-1.695,0.466l-5.311,7.463
			c-0.101,0.15-0.285,0.203-0.462,0.162c-2.978-0.743-6.245,0-8.634,2.23c-0.122,0.116-0.138,0.306-0.019,0.425L19.051,23.73
			c0.125,0.125,0.319,0.094,0.434-0.031c2.257-2.418,2.981-5.742,2.19-8.747c-0.044-0.174,0.017-0.362,0.162-0.456l7.481-5.104
			C29.997,8.889,30.229,8.13,29.813,7.718z M13.644,13.99c-0.122,0.119-0.309,0.128-0.428,0.009l-1.643-1.687
			c-0.109-0.103-0.109-0.281,0.021-0.369c1.728-1.225,3.021-1.377,3.564-1.377c0.181,0,0.35,0.093,0.484,0.222l0.766,0.737
			c0.115,0.11-0.008,0.272-0.15,0.347C15.836,12.094,15.018,12.641,13.644,13.99z M19.079,10.042
			c-0.115,0.112-0.3,0.106-0.422-0.006l-0.778-0.743c-0.121-0.116-0.138-0.3-0.031-0.435l4.012-5.126
			c0.095-0.119,0.281-0.134,0.388-0.022l1.612,1.565c0.108,0.113,0.108,0.293-0.01,0.4L19.079,10.042z"/>
	</g>
</g>
</svg>
