<?xml version="1.0" encoding="utf-8"?>
<!-- Generator: Adobe Illustrator 16.0.0, SVG Export Plug-In . SVG Version: 6.00 Build 0)  -->
<!DOCTYPE svg PUBLIC "-//W3C//DTD SVG 1.1//EN" "http://www.w3.org/Graphics/SVG/1.1/DTD/svg11.dtd">
<svg version="1.1" id="Layer_1" xmlns="http://www.w3.org/2000/svg" xmlns:xlink="http://www.w3.org/1999/xlink" x="0px" y="0px"
	 width="30px" height="30px" viewBox="0 0 30 30" enable-background="new 0 0 30 30" xml:space="preserve">
<path fill="#E3E6EA" d="M5.213,12.855c0.789-0.472,1.236,0.064,2.097,0.465c0.741,0.346,1.566,0.352,1.639-0.082
	c0.117-0.701,0.091-1.036,0.091-1.987c0-0.758-0.238-2.473-0.427-3.768C8.385,5.923,8.306,5.009,9.072,4.938
	c0.736-0.068,0.772,0.345,1.051,2.464c0.214,1.624,0.553,2.766,0.722,2.732c0.169-0.034-0.083-1.505-0.143-3.006
	c-0.11-2.683,0.033-3.105,0.709-3.105c0.583,0,0.709,0.379,0.786,3.105c0.04,1.419,0.193,2.895,0.313,2.895
	c0.181,0,0.323-1.385,0.296-2.885c-0.052-2.806,0.442-2.595,0.739-2.595c0.292,0,0.806,0.084,0.789,2.76
	c-0.01,1.565,0,2.917,0.295,2.917c0.132,0,0.345-1.261,0.345-2.489c0-2.053,0.395-2.053,0.707-2.053c0.311,0,0.476,0.378,0.491,2.43
	c0.014,1.635-0.176,3.938-0.176,5.334c0,1.485-0.211,2.329-0.449,2.904c-0.42,1.016-1.418,1.682-2.518,1.682h-0.886
	c-1.152,0-2.264-0.468-3.07-1.29c-0.762-0.777-2.488-2.269-3.85-2.56C4.312,13.982,4.725,13.148,5.213,12.855z"/>
<path fill="#E3E6EA" d="M29.404,25.376l-5.396-5.397c-0.68-0.681-1.702-0.798-2.51-0.368l-1.023-1.024
	c1.547-1.955,2.478-4.422,2.478-7.11C22.952,5.138,17.814,0,11.477,0C5.138,0,0,5.138,0,11.476s5.138,11.476,11.477,11.476
	c2.687,0,5.154-0.931,7.11-2.476l1.023,1.022c-0.427,0.807-0.312,1.826,0.369,2.507l5.396,5.398c0.834,0.835,2.186,0.835,3.021,0
	l1.007-1.005C30.238,27.563,30.238,26.21,29.404,25.376z M11.477,20.828c-5.167,0-9.355-4.185-9.355-9.353
	c0-5.167,4.188-9.352,9.355-9.352c5.167,0,9.354,4.186,9.354,9.352C20.83,16.644,16.644,20.828,11.477,20.828z"/>
</svg>
