<?xml version="1.0" encoding="utf-8"?>
<!-- Generator: Adobe Illustrator 16.0.0, SVG Export Plug-In . SVG Version: 6.00 Build 0)  -->
<!DOCTYPE svg PUBLIC "-//W3C//DTD SVG 1.1//EN" "http://www.w3.org/Graphics/SVG/1.1/DTD/svg11.dtd">
<svg version="1.1" id="Layer_1" xmlns="http://www.w3.org/2000/svg" xmlns:xlink="http://www.w3.org/1999/xlink" x="0px" y="0px"
	 width="30px" height="30px" viewBox="0 0 30 30" enable-background="new 0 0 30 30" xml:space="preserve">
<path fill="#E3E6EA" d="M25.105,0H4.922C2.22,0,0.029,2.192,0.029,4.891v20.185c0,2.699,2.19,4.893,4.893,4.893h20.184
	c2.699,0,4.887-2.191,4.887-4.893V4.891C29.992,2.192,27.807,0,25.105,0z M23.893,23.865c-0.281,0.281-0.651,0.421-1.021,0.421
	c-0.37,0-0.735-0.14-1.017-0.421L6.13,8.142c-0.563-0.565-0.563-1.476,0-2.038c0.559-0.562,1.476-0.562,2.038,0l15.723,15.722
	C24.457,22.396,24.457,23.303,23.893,23.865z"/>
</svg>
