<?xml version="1.0" encoding="utf-8"?>
<!-- Generator: Adobe Illustrator 16.0.0, SVG Export Plug-In . SVG Version: 6.00 Build 0)  -->
<!DOCTYPE svg PUBLIC "-//W3C//DTD SVG 1.1//EN" "http://www.w3.org/Graphics/SVG/1.1/DTD/svg11.dtd">
<svg version="1.1" id="Layer_1" xmlns="http://www.w3.org/2000/svg" xmlns:xlink="http://www.w3.org/1999/xlink" x="0px" y="0px"
	 width="30px" height="30px" viewBox="0 0 30 30" enable-background="new 0 0 30 30" xml:space="preserve">
<path fill="#E3E6EA" d="M29.727,0.271c-0.164-0.167-0.391-0.26-0.625-0.26H0.884C0.392,0.011,0,0.407,0,0.892v28.223
	C0,29.604,0.392,30,0.884,30h9.544c0.486,0,0.879-0.396,0.879-0.885v-17.79h17.794c0.021,0,0.039,0,0.062-0.003
	c0.455-0.031,0.821-0.412,0.821-0.882l0.005-9.548C29.989,0.66,29.896,0.435,29.727,0.271z M28.221,9.559h-1.879V7.18
	c0-0.489-0.389-0.882-0.881-0.882c-0.486,0-0.879,0.393-0.879,0.882v2.378h-1.54V5.003c0-0.486-0.399-0.878-0.886-0.878
	c-0.487,0-0.881,0.393-0.881,0.878v4.556h-1.543V7.177c0-0.486-0.395-0.879-0.885-0.879c-0.482,0-0.883,0.393-0.883,0.879v2.381
	h-1.539V7.18c0-0.489-0.394-0.882-0.879-0.882c-0.492,0-0.885,0.393-0.885,0.882v2.378H13.12V5.003c0-0.486-0.393-0.878-0.881-0.878
	c-0.486,0-0.879,0.393-0.879,0.878v4.556h-0.566L7.791,6.556c-0.346-0.344-0.9-0.344-1.243,0c-0.347,0.346-0.347,0.903,0,1.246
	l3.003,3.003v0.563H7.169c-0.485,0-0.888,0.396-0.888,0.878c0,0.489,0.402,0.881,0.888,0.881H9.55v1.543H7.169
	c-0.485,0-0.882,0.396-0.882,0.885c0,0.486,0.396,0.879,0.882,0.879H9.55v1.543H4.99c-0.485,0-0.88,0.394-0.88,0.881
	c0,0.488,0.396,0.886,0.88,0.886h4.56v1.54H7.169c-0.485,0-0.882,0.394-0.882,0.881c0,0.486,0.396,0.883,0.882,0.883H9.55v1.539
	H7.169c-0.485,0-0.882,0.396-0.882,0.882c0,0.486,0.396,0.882,0.882,0.882H9.55v1.887H1.762V1.773h26.46L28.221,9.559z"/>
</svg>
