<?xml version="1.0" encoding="utf-8"?>
<!-- Generator: Adobe Illustrator 16.0.0, SVG Export Plug-In . SVG Version: 6.00 Build 0)  -->
<!DOCTYPE svg PUBLIC "-//W3C//DTD SVG 1.1//EN" "http://www.w3.org/Graphics/SVG/1.1/DTD/svg11.dtd">
<svg version="1.1" id="Layer_1" xmlns="http://www.w3.org/2000/svg" xmlns:xlink="http://www.w3.org/1999/xlink" x="0px" y="0px"
	 width="48px" height="48px" viewBox="0 0 48 48" enable-background="new 0 0 48 48" xml:space="preserve">
<path fill="#757575" d="M40.165,0H7.835C3.508,0,0,3.508,0,7.835v32.33C0,44.491,3.508,48,7.835,48h32.33
	C44.491,48,48,44.491,48,40.165V7.835C48,3.508,44.491,0,40.165,0z M32.721,41.279c-0.451,0.45-1.04,0.676-1.632,0.676
	c-0.591,0-1.181-0.226-1.632-0.676L6.721,18.542c-0.901-0.901-0.901-2.362,0-3.263s2.362-0.901,3.263,0l22.736,22.736
	C33.622,38.917,33.622,40.377,32.721,41.279z M41.277,32.721c-0.451,0.45-1.041,0.676-1.632,0.676c-0.592,0-1.181-0.226-1.632-0.676
	L15.278,9.986c-0.902-0.901-0.902-2.362,0-3.263c0.901-0.902,2.362-0.902,3.263,0l22.736,22.734
	C42.179,30.358,42.179,31.819,41.277,32.721z"/>
</svg>
