<?xml version="1.0" encoding="utf-8"?>
<!-- Generator: Adobe Illustrator 16.0.0, SVG Export Plug-In . SVG Version: 6.00 Build 0)  -->
<!DOCTYPE svg PUBLIC "-//W3C//DTD SVG 1.1//EN" "http://www.w3.org/Graphics/SVG/1.1/DTD/svg11.dtd">
<svg version="1.1" id="Layer_1" xmlns="http://www.w3.org/2000/svg" xmlns:xlink="http://www.w3.org/1999/xlink" x="0px" y="0px"
	 width="30px" height="30px" viewBox="0 0 30 30" enable-background="new 0 0 30 30" xml:space="preserve">
<path fill="#E3E6EA" d="M24.823,0H5.179C2.318,0,0,2.318,0,5.178v14.73c0,2.86,2.318,5.179,5.179,5.179
	c1.229,0,1.733,0.661,1.718,1.465L6.845,29.25c-0.014,0.646,0.768,0.992,1.238,0.554l4.42-4.244
	c0.318-0.304,0.736-0.473,1.175-0.473h11.146c2.86,0,5.177-2.318,5.177-5.179V5.178C30,2.318,27.684,0,24.823,0z M21.67,13.86
	c0,0.276-0.224,0.5-0.5,0.5h-3.852c-0.276,0-0.5,0.224-0.5,0.5v3.852c0,0.276-0.224,0.5-0.5,0.5h-2.637c-0.276,0-0.5-0.224-0.5-0.5
	V14.86c0-0.276-0.224-0.5-0.5-0.5H8.83c-0.276,0-0.5-0.224-0.5-0.5v-2.637c0-0.276,0.224-0.5,0.5-0.5h3.852
	c0.276,0,0.5-0.224,0.5-0.5V6.372c0-0.276,0.224-0.5,0.5-0.5h2.637c0.276,0,0.5,0.224,0.5,0.5v3.852c0,0.276,0.224,0.5,0.5,0.5
	h3.852c0.276,0,0.5,0.224,0.5,0.5V13.86z"/>
</svg>
