<?xml version="1.0" encoding="utf-8"?>
<!-- Generator: Adobe Illustrator 16.0.0, SVG Export Plug-In . SVG Version: 6.00 Build 0)  -->
<!DOCTYPE svg PUBLIC "-//W3C//DTD SVG 1.1//EN" "http://www.w3.org/Graphics/SVG/1.1/DTD/svg11.dtd">
<svg version="1.1" id="Layer_1" xmlns="http://www.w3.org/2000/svg" xmlns:xlink="http://www.w3.org/1999/xlink" x="0px" y="0px"
	 width="30px" height="30px" viewBox="0 0 30 30" enable-background="new 0 0 30 30" xml:space="preserve">
<g>
	<path fill="#2CA8DF" d="M17.671,25.775c-0.312,0-0.563-0.225-0.563-0.5V4.725c0-0.275,0.252-0.5,0.563-0.5h7.306
		c0.313,0,0.563,0.225,0.563,0.5v20.552c0,0.274-0.251,0.5-0.563,0.5h-7.306V25.775z"/>
	<path fill="#2CA8DF" d="M10.642,2c0.138,0,0.25,0.112,0.25,0.25v25.5c0,0.139-0.112,0.25-0.25,0.25H6.711
		c-0.138,0-0.25-0.111-0.25-0.25V2.25C6.461,2.112,6.573,2,6.711,2H10.642z M12.329,0H5.023C4.712,0,4.461,0.225,4.461,0.5v29
		c0,0.275,0.251,0.5,0.563,0.5h7.306c0.311,0,0.563-0.225,0.563-0.5v-29C12.892,0.225,12.64,0,12.329,0L12.329,0z"/>
</g>
<g>
	<path fill="#2CA8DF" d="M0.5,13.823c-0.276,0-0.5,0.224-0.5,0.5v1.354c0,0.276,0.224,0.5,0.5,0.5h4.33v-2.354H0.5z"/>
	<path fill="#2CA8DF" d="M29.5,13.823H12.33v2.354H29.5c0.275,0,0.5-0.224,0.5-0.5v-1.354C30,14.047,29.775,13.823,29.5,13.823z"/>
</g>
</svg>
