<?xml version="1.0" encoding="utf-8"?>
<!-- Generator: Adobe Illustrator 16.0.0, SVG Export Plug-In . SVG Version: 6.00 Build 0)  -->
<!DOCTYPE svg PUBLIC "-//W3C//DTD SVG 1.1//EN" "http://www.w3.org/Graphics/SVG/1.1/DTD/svg11.dtd">
<svg version="1.1" id="Layer_1" xmlns="http://www.w3.org/2000/svg" xmlns:xlink="http://www.w3.org/1999/xlink" x="0px" y="0px"
	 width="30px" height="30px" viewBox="0 0 30 30" enable-background="new 0 0 30 30" xml:space="preserve">
<path fill="#E3E6EA" d="M15.85,5.212H3.476c-0.567,0-1.026,0.45-1.026,1.016v20.32c0,0.562,0.459,1.022,1.026,1.022h20.315
	c0.563,0,1.021-0.463,1.021-1.022V14.155c0-0.677,0.549-1.226,1.229-1.226c0.683,0,1.265,0.548,1.265,1.226v13.957
	c0,1.041-0.846,1.88-1.888,1.88H1.914c-1.041,0-1.885-0.839-1.885-1.88V4.602c0-1.041,0.844-1.885,1.885-1.885H15.85
	c0.674,0,1.226,0.58,1.226,1.257C17.075,4.657,16.523,5.212,15.85,5.212z M12.754,21.238c0.341-0.117,0.44-0.549,0.185-0.801
	L9.631,17.13c-0.252-0.252-0.684-0.153-0.797,0.185l-1.647,4.812c-0.167,0.474,0.286,0.931,0.76,0.758L12.754,21.238z M25.636,8.544
	c0.337-0.333,0.341-0.869,0.017-1.188l-3.086-3.092c-0.316-0.321-0.852-0.309-1.187,0.024L10.395,15.27
	c-0.333,0.337-0.345,0.869-0.019,1.189l3.089,3.092c0.317,0.319,0.85,0.313,1.186-0.019L25.636,8.544z M29.516,4.954
	c0.59-0.585,0.59-1.534,0-2.119L27.24,0.556c-0.592-0.591-1.54-0.591-2.124,0l-1.812,1.811c-0.334,0.333-0.334,0.868,0,1.207
	l3.196,3.19c0.335,0.339,0.874,0.339,1.206,0L29.516,4.954z"/>
</svg>
