<?xml version="1.0" encoding="utf-8"?>
<!-- Generator: Adobe Illustrator 16.0.0, SVG Export Plug-In . SVG Version: 6.00 Build 0)  -->
<!DOCTYPE svg PUBLIC "-//W3C//DTD SVG 1.1//EN" "http://www.w3.org/Graphics/SVG/1.1/DTD/svg11.dtd">
<svg version="1.1" id="Layer_1" xmlns="http://www.w3.org/2000/svg" xmlns:xlink="http://www.w3.org/1999/xlink" x="0px" y="0px"
	 width="30px" height="30px" viewBox="0 0 30 30" enable-background="new 0 0 30 30" xml:space="preserve">
<path fill="#E3E6EA" d="M28.184,0H1.818C0.815,0,0,0.815,0,1.817v26.367C0,29.185,0.815,30,1.818,30h5.9h14.577h5.889
	C29.188,30,30,29.185,30,28.185V1.817C30,0.815,29.188,0,28.184,0z M27.524,3.325c0,0.626-0.508,1.132-1.134,1.132
	c-0.624,0-1.132-0.506-1.132-1.132c0-0.624,0.508-1.13,1.132-1.13C27.017,2.195,27.524,2.701,27.524,3.325z M24.066,3.325
	c0,0.626-0.505,1.132-1.132,1.132c-0.626,0-1.132-0.506-1.132-1.132c0-0.624,0.506-1.13,1.132-1.13
	C23.562,2.195,24.066,2.701,24.066,3.325z M20.612,3.325c0,0.626-0.508,1.132-1.134,1.132c-0.621,0-1.129-0.506-1.129-1.132
	c0-0.624,0.508-1.13,1.129-1.13C20.104,2.195,20.612,2.701,20.612,3.325z M2.47,7.527c0-0.502,0.406-0.908,0.907-0.908h23.201
	c0.501,0,0.906,0.406,0.906,0.908v19.078c0,0.502-0.405,0.907-0.906,0.907h-4.282H7.718H3.376c-0.5,0-0.907-0.405-0.907-0.907V7.527
	z"/>
<path fill="#E3E6EA" d="M19.897,9.138h-9.791c-1.589,0-2.876,1.287-2.876,2.875v8.07c0,1.588,1.288,2.875,2.876,2.875
	c0.683,0,0.962,0.368,0.954,0.813l-0.029,1.5c-0.007,0.356,0.426,0.552,0.688,0.306l2.455-2.356
	c0.177-0.168,0.409-0.263,0.653-0.263h5.07c1.591,0,2.874-1.287,2.874-2.875v-8.07C22.771,10.425,21.488,9.138,19.897,9.138z
	 M18.484,15.498c0,0.154-0.124,0.277-0.278,0.277h-0.764c-0.154,0-0.278-0.123-0.278-0.277v-0.464c0-0.729-0.27-1.128-0.877-1.262
	c-0.148-0.032-0.283,0.085-0.283,0.237v4.194c0,0.156,0.129,0.286,0.285,0.286h0.646c0.153,0,0.278,0.123,0.278,0.275v0.766
	c0,0.152-0.125,0.277-0.278,0.277h-3.866c-0.154,0-0.278-0.125-0.278-0.277v-0.766c0-0.152,0.125-0.275,0.278-0.275h0.652
	c0.159,0,0.279-0.137,0.279-0.294v-4.186c0-0.151-0.136-0.269-0.282-0.237c-0.611,0.134-0.879,0.534-0.879,1.262v0.464
	c0,0.154-0.122,0.277-0.277,0.277h-0.765c-0.152,0-0.277-0.123-0.277-0.277v-2.822c0-0.153,0.125-0.278,0.277-0.278h6.408
	c0.154,0,0.278,0.125,0.278,0.278V15.498z"/>
</svg>
