<?xml version="1.0" encoding="utf-8"?>
<!-- Generator: Adobe Illustrator 16.0.0, SVG Export Plug-In . SVG Version: 6.00 Build 0)  -->
<!DOCTYPE svg PUBLIC "-//W3C//DTD SVG 1.1//EN" "http://www.w3.org/Graphics/SVG/1.1/DTD/svg11.dtd">
<svg version="1.1" id="Layer_1" xmlns="http://www.w3.org/2000/svg" xmlns:xlink="http://www.w3.org/1999/xlink" x="0px" y="0px"
	 width="30px" height="30px" viewBox="0 0 30 30" enable-background="new 0 0 30 30" xml:space="preserve">
<path fill="#E3E6EA" d="M25.083,0H4.916C2.217,0,0.029,2.192,0.029,4.897v20.206C0.029,27.808,2.217,30,4.916,30h20.167
	c2.699,0,4.888-2.192,4.888-4.897V4.897C29.971,2.192,27.782,0,25.083,0z M15,24.313c-5.801,0-10.517-4.177-10.517-9.313
	c0-5.134,4.716-9.313,10.517-9.313c5.798,0,10.518,4.179,10.518,9.313C25.518,20.136,20.798,24.313,15,24.313z M15,8.571
	c-4.213,0-7.639,2.884-7.639,6.429c0,3.544,3.426,6.428,7.639,6.428c4.211,0,7.638-2.884,7.638-6.428
	C22.638,11.455,19.211,8.571,15,8.571z"/>
</svg>
