<?xml version="1.0" encoding="utf-8"?>
<!-- Generator: Adobe Illustrator 16.0.0, SVG Export Plug-In . SVG Version: 6.00 Build 0)  -->
<!DOCTYPE svg PUBLIC "-//W3C//DTD SVG 1.1//EN" "http://www.w3.org/Graphics/SVG/1.1/DTD/svg11.dtd">
<svg version="1.1" id="Layer_1" xmlns="http://www.w3.org/2000/svg" xmlns:xlink="http://www.w3.org/1999/xlink" x="0px" y="0px"
	 width="48px" height="48px" viewBox="0 0 48 48" enable-background="new 0 0 48 48" xml:space="preserve">
<path fill="#757575" d="M40.182,0H7.839C3.51,0,0,3.51,0,7.839v32.343c0,4.329,3.51,7.839,7.839,7.839h32.343
	c4.329,0,7.839-3.51,7.839-7.839V7.839C48.021,3.51,44.511,0,40.182,0z M17.961,40.757c-0.451,0.451-1.041,0.677-1.633,0.677
	c-0.591,0-1.181-0.226-1.632-0.677l-7.772-7.771c-0.901-0.901-0.901-2.362,0-3.263c0.902-0.903,2.364-0.903,3.265,0l7.772,7.77
	C18.862,38.394,18.862,39.855,17.961,40.757z M32.936,40.757c-0.451,0.451-1.041,0.677-1.633,0.677
	c-0.593,0-1.182-0.226-1.633-0.677L6.924,18.013c-0.901-0.902-0.901-2.363,0-3.265c0.902-0.902,2.364-0.902,3.265,0l22.747,22.745
	C33.836,38.394,33.836,39.855,32.936,40.757z M40.422,33.269c-0.451,0.451-1.042,0.676-1.632,0.676
	c-0.593,0-1.182-0.225-1.634-0.676L14.411,10.524c-0.902-0.902-0.902-2.363,0-3.265c0.902-0.902,2.363-0.902,3.265,0l22.746,22.744
	C41.323,30.905,41.323,32.367,40.422,33.269z M41.098,18.972c-0.45,0.452-1.04,0.677-1.632,0.677c-0.591,0-1.182-0.225-1.633-0.677
	l-8.448-8.448c-0.901-0.902-0.901-2.363,0-3.265c0.901-0.902,2.362-0.902,3.266,0l8.447,8.448C42,16.61,42,18.07,41.098,18.972z"/>
</svg>
