<?xml version="1.0" encoding="utf-8"?>
<!-- Generator: Adobe Illustrator 16.0.0, SVG Export Plug-In . SVG Version: 6.00 Build 0)  -->
<!DOCTYPE svg PUBLIC "-//W3C//DTD SVG 1.1//EN" "http://www.w3.org/Graphics/SVG/1.1/DTD/svg11.dtd">
<svg version="1.1" id="Layer_1" xmlns="http://www.w3.org/2000/svg" xmlns:xlink="http://www.w3.org/1999/xlink" x="0px" y="0px"
	 width="48px" height="48px" viewBox="0 0 48 48" enable-background="new 0 0 48 48" xml:space="preserve">
<g>
	<path fill="#757575" d="M39.68,0C44.278,0,48,3.725,48,8.322v23.459c0,4.597-3.722,8.321-8.32,8.321H21.981
		c-0.706,0-1.375,0.271-1.888,0.761l-7.104,6.821c-0.755,0.706-2.01,0.147-1.989-0.889l0.083-4.34
		c0.025-1.289-0.784-2.354-2.76-2.354C3.725,40.103,0,36.378,0,31.781V8.322C0,3.725,3.725,0,8.324,0H39.68z M34.854,18.087
		c1.199,0,2.171-0.968,2.171-2.166c0-1.2-0.972-2.169-2.171-2.169H15.106c-1.198,0-2.169,0.97-2.169,2.169
		c0,1.197,0.972,2.166,2.169,2.166H34.854z M30.107,26.807c1.194,0,2.166-0.973,2.166-2.172c0-1.195-0.972-2.164-2.166-2.164H15.106
		c-1.198,0-2.169,0.968-2.169,2.164c0,1.199,0.972,2.172,2.169,2.172H30.107z"/>
</g>
</svg>
