<?xml version="1.0" encoding="utf-8"?>
<!-- Generator: Adobe Illustrator 16.0.0, SVG Export Plug-In . SVG Version: 6.00 Build 0)  -->
<!DOCTYPE svg PUBLIC "-//W3C//DTD SVG 1.1//EN" "http://www.w3.org/Graphics/SVG/1.1/DTD/svg11.dtd">
<svg version="1.1" id="Layer_1" xmlns="http://www.w3.org/2000/svg" xmlns:xlink="http://www.w3.org/1999/xlink" x="0px" y="0px"
	 width="30px" height="30px" viewBox="0 0 30 30" enable-background="new 0 0 30 30" xml:space="preserve">
<path fill="#E3E6EA" d="M25.123,0h-20.2C2.221,0,0.029,2.194,0.029,4.896v20.197c0,2.702,2.191,4.896,4.894,4.896h20.2
	c2.702,0,4.891-2.194,4.891-4.896V4.896C30.014,2.194,27.825,0,25.123,0z M24.48,20.432c-0.391,2.275-2.539,3.998-4.996,3.998
	c-0.563,0-1.129-0.087-1.678-0.257l-0.141-0.053c-4.287-1.815-7.947-4.937-11.18-9.53c-0.992-1.396-1.243-3.125-0.703-4.742
	C6.325,8.24,7.556,7.023,9.17,6.513c4.946-1.585,8.448-1.177,10.206,1.153c2.028,2.689,0.653,4.847-0.085,6.006
	c-0.184,0.288-0.211,0.701,0.098,0.848c0.221,0.102,0.521,0.231,0.92,0.367C23.861,16.12,24.792,18.559,24.48,20.432z
	 M19.364,17.613c-1.354-0.467-2.798-1.125-3.249-2.43c-0.43-1.224,0.221-2.244,0.744-3.061c0.736-1.162,1.009-1.676,0.218-2.72
	c-0.929-1.23-3.506-1.271-7.026-0.142c-0.734,0.23-1.289,0.78-1.533,1.504c-0.247,0.735-0.136,1.529,0.321,2.164
	c2.9,4.114,6.133,6.898,9.879,8.507c0.261,0.073,0.517,0.11,0.767,0.11c1.176,0,2.018-0.812,2.148-1.596
	C21.788,19.035,20.939,18.158,19.364,17.613z"/>
</svg>
