<?xml version="1.0" encoding="utf-8"?>
<!-- Generator: Adobe Illustrator 16.0.0, SVG Export Plug-In . SVG Version: 6.00 Build 0)  -->
<!DOCTYPE svg PUBLIC "-//W3C//DTD SVG 1.1//EN" "http://www.w3.org/Graphics/SVG/1.1/DTD/svg11.dtd">
<svg version="1.1" id="Layer_1" xmlns="http://www.w3.org/2000/svg" xmlns:xlink="http://www.w3.org/1999/xlink" x="0px" y="0px"
	 width="30px" height="30px" viewBox="0 0 30 30" enable-background="new 0 0 30 30" xml:space="preserve">
<path fill="#2CA8DF" d="M25.123,0h-20.2C2.221,0,0.029,2.195,0.029,4.896v20.198c0,2.703,2.191,4.896,4.894,4.896h20.2
	c2.702,0,4.895-2.193,4.895-4.896V4.896C30.018,2.195,27.825,0,25.123,0z M22.792,12.308l-1.44,3.268
	c-0.319,0.727-1.17,1.059-1.896,0.738c-0.731-0.32-1.062-1.173-0.739-1.903l1.023-2.318l-3.256-2.974l-5.792,5.796l7.975,6.853
	c0.604,0.521,0.677,1.428,0.153,2.035c-0.282,0.334-0.688,0.5-1.09,0.5c-0.338,0-0.672-0.111-0.945-0.346l-9.156-7.871
	c-0.3-0.259-0.481-0.636-0.497-1.038c-0.02-0.402,0.139-0.789,0.417-1.076l7.873-7.864c0.542-0.544,1.416-0.569,1.988-0.043
	l5.041,4.597C22.902,11.079,23.043,11.744,22.792,12.308z"/>
</svg>
