<?xml version="1.0" encoding="utf-8"?>
<!-- Generator: Adobe Illustrator 16.0.0, SVG Export Plug-In . SVG Version: 6.00 Build 0)  -->
<!DOCTYPE svg PUBLIC "-//W3C//DTD SVG 1.1//EN" "http://www.w3.org/Graphics/SVG/1.1/DTD/svg11.dtd">
<svg version="1.1" id="Layer_1" xmlns="http://www.w3.org/2000/svg" xmlns:xlink="http://www.w3.org/1999/xlink" x="0px" y="0px"
	 width="30px" height="30px" viewBox="0 0 30 30" enable-background="new 0 0 30 30" xml:space="preserve">
<path fill="#E3E6EA" d="M10.116,18.174l2.795-8.423c0.013-0.044,0.055-0.072,0.099-0.072l2.365,6.559
	c1.09-1.261,2.516-2.222,4.139-2.746l-2.963-7.925C16.343,5.023,15.818,4.66,15.24,4.66h-3.266c-0.579,0-1.101,0.363-1.295,0.914
	L3.903,24.545c-0.514,1.422-1.471,1.859-2.866,1.973C0.482,26.563,0,26.969,0,27.521v0.813c0,0.537,0.428,0.973,0.968,0.973h9.662
	c0.534,0,0.971-0.436,0.971-0.973v-0.813c0-0.535-0.437-0.969-0.971-0.969H8.701c-0.709,0-1.192-0.146-1.192-0.67
	c0-0.332,0.073-0.556,0.148-0.779l1.078-3.26c0.085-0.271,0.35-0.46,0.633-0.46h3.801c0.091-0.968,0.33-1.893,0.701-2.748h-3.421
	C10.211,18.637,10.041,18.402,10.116,18.174z M22.331,14.499c-0.808,0-1.578,0.125-2.31,0.353c-1.668,0.522-3.088,1.589-4.058,2.996
	c-0.18,0.252-0.338,0.516-0.483,0.791c-0.446,0.834-0.743,1.764-0.852,2.747c-0.031,0.286-0.049,0.574-0.049,0.865
	c0,1.595,0.478,3.069,1.306,4.304c0.804,1.194,1.929,2.151,3.247,2.752c0.979,0.443,2.057,0.695,3.197,0.695
	s2.218-0.252,3.195-0.695c0.744-0.338,1.424-0.789,2.022-1.34c1.552-1.417,2.533-3.451,2.533-5.716
	C30.083,17.977,26.607,14.499,22.331,14.499z M25.883,26.43c-0.96,0.816-2.197,1.313-3.552,1.313c-1.438,0-2.745-0.562-3.726-1.47
	c-1.082-1.006-1.763-2.433-1.763-4.023c0-0.291,0.026-0.574,0.07-0.852c0.333-2.119,1.877-3.838,3.901-4.418
	c0.485-0.142,0.988-0.222,1.516-0.222c3.027,0,5.488,2.466,5.488,5.49C27.818,23.922,27.066,25.421,25.883,26.43z M24.464,20.957
	l-0.688,0.345l-1.318-2.64c-0.182-0.354-0.65-0.516-1.007-0.332l-1.722,0.861c-0.185,0.088-0.321,0.244-0.383,0.437
	c-0.068,0.19-0.051,0.394,0.04,0.576l1.32,2.632l-0.692,0.348c-0.205,0.104-0.34,0.313-0.345,0.547
	c-0.006,0.232,0.114,0.451,0.312,0.561l3.207,1.904l0.715,0.424l0.125,0.061c0.191,0.063,0.395,0.036,0.563-0.072
	c0.169-0.109,0.274-0.283,0.298-0.482l0.49-4.533C25.43,21.123,24.887,20.747,24.464,20.957z"/>
</svg>
