<?xml version="1.0" encoding="utf-8"?>
<!-- Generator: Adobe Illustrator 16.0.0, SVG Export Plug-In . SVG Version: 6.00 Build 0)  -->
<!DOCTYPE svg PUBLIC "-//W3C//DTD SVG 1.1//EN" "http://www.w3.org/Graphics/SVG/1.1/DTD/svg11.dtd">
<svg version="1.1" id="Layer_1" xmlns="http://www.w3.org/2000/svg" xmlns:xlink="http://www.w3.org/1999/xlink" x="0px" y="0px"
	 width="30px" height="30px" viewBox="0 0 30 30" enable-background="new 0 0 30 30" xml:space="preserve">
<g>
	<g>
		<g>
			<path fill="#2CA8DF" d="M26.273,30H3.727c-0.792,0-1.435-0.643-1.435-1.436V1.434C2.292,0.642,2.935,0,3.727,0h22.546
				c0.791,0,1.435,0.642,1.435,1.434v27.13C27.708,29.357,27.064,30,26.273,30z M5.162,27.131h19.676V2.868H5.162V27.131z"/>
		</g>
	</g>
</g>
<g>
	<g>
		<path fill="#2CA8DF" d="M14.348,13.85c0.36-0.36,0.644-0.66,1.004-0.3l6.65,6.65c0.359,0.36,0.359,0.944,0,1.306l0,0
			c-0.359,0.359-0.943,0.359-1.305,0l-6.65-6.651C13.687,14.494,13.987,14.211,14.348,13.85L14.348,13.85z"/>
		<path fill="#2CA8DF" d="M21.351,22.025c-0.313,0-0.607-0.121-0.83-0.342l-6.65-6.652c-0.529-0.53-0.063-0.996,0.278-1.335
			l0.223,0.131l-0.177-0.177c0.264-0.264,0.512-0.513,0.832-0.513c0.177,0,0.347,0.079,0.503,0.235l6.649,6.65
			c0.456,0.457,0.456,1.201,0.001,1.659C21.958,21.903,21.663,22.025,21.351,22.025z M15.026,13.638
			c-0.112,0-0.306,0.194-0.478,0.366l-0.047,0.047c-0.435,0.434-0.417,0.489-0.277,0.628l6.65,6.651
			c0.254,0.252,0.697,0.254,0.951,0c0.261-0.263,0.262-0.69,0-0.952l-6.65-6.65C15.135,13.686,15.076,13.638,15.026,13.638z"/>
	</g>
	<g>
		<path fill="#2CA8DF" d="M17.689,21.486c-0.359-0.361-0.66-0.645-0.299-1.004l1.365-1.369c0.361-0.358,0.789-0.203,1.148,0.156
			l0.348,0.377c0.359,0.361,0.531,0.774,0.171,1.135l-1.366,1.367c-0.359,0.359-0.645,0.061-1.005-0.301L17.689,21.486z"/>
		<path fill="#2CA8DF" d="M18.73,22.561c-0.321,0-0.571-0.251-0.837-0.518l-0.381-0.38c-0.214-0.215-0.391-0.392-0.478-0.592
			c-0.082-0.187-0.117-0.472,0.179-0.767l1.365-1.368c0.413-0.41,0.994-0.351,1.502,0.156l0.354,0.384
			c0.74,0.744,0.361,1.284,0.164,1.481l-1.366,1.367C19.077,22.481,18.908,22.561,18.73,22.561z M19.208,19.16
			c-0.097,0-0.188,0.043-0.276,0.131l-1.364,1.368c-0.116,0.115-0.094,0.167-0.074,0.212c0.05,0.114,0.193,0.259,0.346,0.411
			l0.39,0.389c0.192,0.192,0.389,0.39,0.502,0.39c0.05,0,0.108-0.048,0.149-0.089l1.366-1.367c0.083-0.083,0.304-0.304-0.172-0.781
			l-0.354-0.384C19.543,19.262,19.358,19.16,19.208,19.16z"/>
	</g>
	<g>
		<path fill="#2CA8DF" d="M16.357,18.838c-0.361-0.359-0.422-0.404-0.062-0.766l1.206-1.207c0.359-0.36,0.551-0.443,0.911-0.086
			l0.347,0.381c0.36,0.359,0.293,0.533-0.068,0.895l-1.207,1.209c-0.358,0.358-0.405,0.297-0.764-0.063L16.357,18.838z"/>
		<path fill="#2CA8DF" d="M17.129,19.754c-0.211,0-0.352-0.143-0.564-0.356l-0.384-0.383c-0.235-0.233-0.376-0.374-0.377-0.583
			c0-0.203,0.143-0.363,0.315-0.536l1.206-1.207c0.196-0.196,0.41-0.389,0.68-0.389c0.248,0,0.442,0.161,0.584,0.302l0.355,0.391
			c0.138,0.136,0.304,0.333,0.305,0.577c0,0.26-0.188,0.47-0.381,0.662l-1.207,1.209C17.49,19.611,17.332,19.754,17.129,19.754z
			 M16.303,18.449c0.019,0,0.119,0.101,0.209,0.189l0.386,0.385c0.096,0.097,0.186,0.187,0.233,0.221
			c0.027-0.018,0.079-0.06,0.177-0.157l1.207-1.209c0.155-0.155,0.234-0.259,0.234-0.309c0-0.016-0.013-0.079-0.166-0.232
			l-0.354-0.39c-0.135-0.133-0.201-0.147-0.224-0.147c-0.084,0-0.267,0.182-0.326,0.242l-1.206,1.207
			C16.339,18.384,16.308,18.433,16.303,18.449C16.302,18.449,16.302,18.449,16.303,18.449z"/>
	</g>
	<g>
		<path fill="#2CA8DF" d="M15.36,8.879c-0.878-0.88-1.978-1.29-3.139-1.17c-1.039,0.105-2.089,0.643-2.959,1.513
			c-0.99,0.988-1.535,2.178-1.535,3.349c0,1.02,0.412,1.97,1.191,2.749c0.779,0.782,1.728,1.192,2.746,1.192
			c0.13,0,0.261-0.006,0.394-0.02c1.039-0.107,2.09-0.645,2.959-1.515c0.988-0.987,1.534-2.176,1.534-3.348
			C16.552,10.609,16.139,9.658,15.36,8.879z M14.822,11.657c0,0.708-0.359,1.459-1.012,2.113c-0.579,0.58-1.252,0.935-1.895,1.001
			c-0.648,0.063-1.261-0.171-1.769-0.68c-0.457-0.458-0.69-0.98-0.69-1.55c0-0.71,0.36-1.461,1.013-2.113
			c0.578-0.58,1.251-0.935,1.894-1.001c0.072-0.007,0.144-0.011,0.215-0.011c0.565,0,1.103,0.239,1.554,0.69
			C14.59,10.566,14.822,11.087,14.822,11.657z"/>
		<path fill="#2CA8DF" d="M11.664,16.762c-1.087,0-2.099-0.438-2.923-1.266c-0.827-0.827-1.264-1.838-1.264-2.925
			c0-1.239,0.571-2.491,1.608-3.525c0.911-0.912,2.016-1.475,3.111-1.585c1.232-0.127,2.41,0.309,3.341,1.242
			c0.827,0.829,1.265,1.841,1.264,2.927c0,1.238-0.57,2.49-1.607,3.525c-0.908,0.91-2.013,1.474-3.11,1.587
			C11.942,16.756,11.802,16.762,11.664,16.762z M12.616,7.938c-0.122,0-0.245,0.006-0.369,0.019
			c-0.981,0.099-1.978,0.611-2.808,1.441c-0.943,0.94-1.462,2.067-1.462,3.172c0,0.952,0.387,1.841,1.118,2.572
			c0.822,0.826,1.837,1.211,2.938,1.1c0.983-0.102,1.98-0.614,2.808-1.443c0.942-0.941,1.46-2.067,1.46-3.171
			c0.001-0.951-0.386-1.841-1.118-2.573C14.454,8.325,13.566,7.938,12.616,7.938z M11.709,15.031c-0.641,0-1.242-0.264-1.741-0.764
			c-0.506-0.507-0.763-1.088-0.763-1.727c0-0.777,0.386-1.59,1.086-2.29c0.618-0.62,1.344-1.001,2.045-1.073
			c0.742-0.074,1.41,0.189,1.972,0.751c0.506,0.509,0.763,1.09,0.763,1.728c0,0.776-0.385,1.589-1.085,2.29
			c-0.619,0.62-1.346,1.001-2.046,1.073C11.862,15.027,11.785,15.031,11.709,15.031z M12.578,9.666c-0.063,0-0.127,0.003-0.192,0.01
			c-0.585,0.061-1.204,0.39-1.74,0.929c-0.606,0.605-0.94,1.293-0.94,1.937c0,0.501,0.208,0.963,0.617,1.373
			c0.451,0.452,0.998,0.667,1.568,0.608c0.585-0.06,1.205-0.39,1.743-0.929c0.605-0.606,0.938-1.293,0.938-1.936
			c0-0.501-0.208-0.964-0.617-1.375C13.552,9.879,13.076,9.666,12.578,9.666z"/>
	</g>
</g>
</svg>
