<?xml version="1.0" encoding="utf-8"?>
<!-- Generator: Adobe Illustrator 16.0.0, SVG Export Plug-In . SVG Version: 6.00 Build 0)  -->
<!DOCTYPE svg PUBLIC "-//W3C//DTD SVG 1.1//EN" "http://www.w3.org/Graphics/SVG/1.1/DTD/svg11.dtd">
<svg version="1.1" id="Layer_1" xmlns="http://www.w3.org/2000/svg" xmlns:xlink="http://www.w3.org/1999/xlink" x="0px" y="0px"
	 width="30px" height="30px" viewBox="0 0 30 30" enable-background="new 0 0 30 30" xml:space="preserve">
<g>
	<path fill="#2CA8DF" d="M12.169,9.44c0.308,0.776,0.942,1.269,1.637,1.269h14.499c0.936,0,1.694,0.951,1.694,2.118v15.057
		C30,29.053,29.24,30,28.305,30H1.698C0.76,30,0,29.053,0,27.884V7.348c0-1.171,0.76-2.117,1.698-2.117h7.836
		c0.695,0,1.33,0.49,1.638,1.269L12.169,9.44z"/>
	<path fill="#2CA8DF" d="M24.995,1.591c0,0.449-0.366,0.833-0.812,0.875c-2.461,0.231-5.14,1.802-6.441,5.015
		c-0.139,0.346,0.293,0.638,0.572,0.388c0.932-0.854,2.561-1.767,5.845-1.755c0.461,0.003,0.836,0.376,0.836,0.837v1.525
		c0,0.338,0.401,0.515,0.651,0.285l4.097-3.798c0.347-0.32,0.342-0.869-0.009-1.186l-4.092-3.676
		c-0.252-0.226-0.647-0.048-0.647,0.289V1.591z"/>
</g>
</svg>
