<?xml version="1.0" encoding="utf-8"?>
<!-- Generator: Adobe Illustrator 16.0.0, SVG Export Plug-In . SVG Version: 6.00 Build 0)  -->
<!DOCTYPE svg PUBLIC "-//W3C//DTD SVG 1.1//EN" "http://www.w3.org/Graphics/SVG/1.1/DTD/svg11.dtd">
<svg version="1.1" id="Layer_1" xmlns="http://www.w3.org/2000/svg" xmlns:xlink="http://www.w3.org/1999/xlink" x="0px" y="0px"
	 width="30px" height="30px" viewBox="0 0 30 30" enable-background="new 0 0 30 30" xml:space="preserve">
<g>
	<g>
		<path fill="#2CA8DF" d="M11.572,24.031c0.255,0.255,0.589,0.383,0.93,0.383c0.334,0,0.663-0.128,0.918-0.383L27.814,9.64
			c0.511-0.514,0.511-1.34,0-1.851L20.423,0.4c-0.256-0.255-0.59-0.383-0.921-0.383c-0.334,0-0.668,0.128-0.924,0.383l-14.4,14.391
			c-0.507,0.514-0.507,1.338,0,1.85l0.955,0.971L0.099,24.77c-0.243,0.328-0.012,0.791,0.395,0.791h4.982
			c0.641,0,1.273-0.187,1.808-0.539l3.158-2.049L11.572,24.031z M19.502,2.631l6.081,6.082l-8.179,8.176l-6.081-6.082L19.502,2.631z
			"/>
		<path fill="#2CA8DF" d="M28.852,27.705H5.931c-0.638,0-1.149,0.514-1.149,1.146C4.782,29.489,5.293,30,5.931,30H28.85
			c0.635,0,1.15-0.511,1.15-1.148C30,28.219,29.484,27.705,28.852,27.705z"/>
	</g>
</g>
</svg>
