<?xml version="1.0" encoding="utf-8"?>
<!-- Generator: Adobe Illustrator 16.0.0, SVG Export Plug-In . SVG Version: 6.00 Build 0)  -->
<!DOCTYPE svg PUBLIC "-//W3C//DTD SVG 1.1//EN" "http://www.w3.org/Graphics/SVG/1.1/DTD/svg11.dtd">
<svg version="1.1" id="Layer_1" xmlns="http://www.w3.org/2000/svg" xmlns:xlink="http://www.w3.org/1999/xlink" x="0px" y="0px"
	 width="30px" height="30px" viewBox="0 0 30 30" enable-background="new 0 0 30 30" xml:space="preserve">
<path fill="#2CA8DF" d="M29.73,10.236l-6.19-6.178c-2.608-2.61-6.065-4.043-9.755-4.043c-3.679,0-7.144,1.433-9.745,4.04
	C1.432,6.659,0,10.124,0,13.81c0,3.682,1.433,7.147,4.04,9.752l6.178,6.178c0.161,0.164,0.388,0.26,0.618,0.26
	c0.233,0,0.454-0.096,0.618-0.261L29.73,11.472c0.158-0.162,0.25-0.385,0.25-0.618S29.889,10.397,29.73,10.236z M26.744,11.976
	l-1.495-1.492c-0.336-0.342-0.892-0.342-1.233,0c-0.339,0.342-0.339,0.895,0,1.237l1.488,1.495l-0.9,0.898l-1.487-1.488
	c-0.341-0.342-0.894-0.345-1.236-0.003s-0.343,0.898-0.004,1.24l1.489,1.491l-0.896,0.898l-2.898-2.896
	c-0.348-0.342-0.897-0.342-1.236,0c-0.342,0.342-0.342,0.898,0,1.237l2.896,2.898l-0.898,0.905l-1.494-1.492
	c-0.346-0.346-0.896-0.346-1.24,0c-0.339,0.343-0.339,0.896,0,1.234l1.488,1.493l-0.895,0.9l-1.496-1.491
	c-0.342-0.342-0.893-0.342-1.235,0c-0.342,0.342-0.342,0.896,0,1.238l1.491,1.488l-0.901,0.904l-2.899-2.898
	c-0.342-0.35-0.901-0.35-1.24,0c-0.348,0.34-0.348,0.896,0,1.236l2.899,2.898l-0.904,0.9l-1.488-1.488
	c-0.342-0.342-0.895-0.342-1.237,0c-0.342,0.342-0.342,0.896,0,1.236l1.488,1.49l-1.83,1.834L5.274,22.32
	c-2.272-2.274-3.527-5.301-3.527-8.514c0-3.22,1.255-6.24,3.527-8.515c2.278-2.275,5.301-3.527,8.511-3.527
	c3.219,0,6.24,1.252,8.518,3.527l5.563,5.56L26.744,11.976z M13.785,7.057c-1.796,0-3.493,0.706-4.767,1.976
	C7.74,10.31,7.035,12.004,7.035,13.81c0,1.801,0.702,3.497,1.979,4.773c0.174,0.168,0.395,0.255,0.618,0.255
	c0.224,0,0.448-0.087,0.622-0.255l8.311-8.31c0.164-0.162,0.254-0.389,0.254-0.622c0-0.229-0.09-0.453-0.254-0.618
	C17.29,7.762,15.593,7.057,13.785,7.057z M9.683,16.668c-0.578-0.83-0.892-1.821-0.892-2.858c0-1.336,0.516-2.595,1.464-3.537
	c0.944-0.945,2.2-1.461,3.53-1.461c1.044,0,2.035,0.311,2.865,0.892L9.683,16.668z"/>
</svg>
