<?xml version="1.0" encoding="utf-8"?>
<!-- Generator: Adobe Illustrator 16.0.0, SVG Export Plug-In . SVG Version: 6.00 Build 0)  -->
<!DOCTYPE svg PUBLIC "-//W3C//DTD SVG 1.1//EN" "http://www.w3.org/Graphics/SVG/1.1/DTD/svg11.dtd">
<svg version="1.1" id="Layer_1" xmlns="http://www.w3.org/2000/svg" xmlns:xlink="http://www.w3.org/1999/xlink" x="0px" y="0px"
	 width="30px" height="30px" viewBox="0 0 30 30" enable-background="new 0 0 30 30" xml:space="preserve">
<path fill="#E3E6EA" d="M29.526,26.043l-3.487,3.483c-0.636,0.642-1.679,0.642-2.321,0l-8.713-8.71l-8.712,8.71
	c-0.64,0.642-1.685,0.642-2.323-0.002l-3.489-3.48c-0.64-0.642-0.64-1.682,0-2.325l8.713-8.714L0.481,6.294
	c-0.638-0.642-0.638-1.688,0-2.324l3.488-3.485c0.638-0.646,1.683-0.646,2.323,0l8.711,8.712l8.714-8.712
	c0.643-0.645,1.686-0.646,2.32-0.001l3.486,3.482c0.643,0.64,0.643,1.686,0.002,2.329l-8.711,8.71l8.711,8.715
	C30.166,24.362,30.167,25.402,29.526,26.043z"/>
</svg>
