<?xml version="1.0" encoding="utf-8"?>
<!-- Generator: Adobe Illustrator 16.0.0, SVG Export Plug-In . SVG Version: 6.00 Build 0)  -->
<!DOCTYPE svg PUBLIC "-//W3C//DTD SVG 1.1//EN" "http://www.w3.org/Graphics/SVG/1.1/DTD/svg11.dtd">
<svg version="1.1" id="Layer_1" xmlns="http://www.w3.org/2000/svg" xmlns:xlink="http://www.w3.org/1999/xlink" x="0px" y="0px"
	 width="30px" height="30px" viewBox="0 0 30 30" enable-background="new 0 0 30 30" xml:space="preserve">
<path fill="#E3E6EA" d="M25.12,0H4.923C2.221,0,0.029,2.194,0.029,4.896v20.197c0,2.702,2.191,4.896,4.894,4.896H25.12
	c2.705,0,4.899-2.194,4.899-4.896V4.896C30.02,2.194,27.825,0,25.12,0z M23.126,23.145c-0.006,0.002-0.017,0.002-0.021,0H6.944
	c-0.412,0-0.791-0.221-0.999-0.578c-0.206-0.355-0.206-0.795,0-1.149l8.081-13.995c0.408-0.713,1.582-0.713,1.996,0l7.979,13.821
	c0.171,0.198,0.281,0.464,0.281,0.748C24.282,22.628,23.764,23.145,23.126,23.145z M8.94,20.837h12.164l-6.08-10.531L8.94,20.837z"
	/>
</svg>
