<?xml version="1.0" encoding="utf-8"?>
<!-- Generator: Adobe Illustrator 16.0.0, SVG Export Plug-In . SVG Version: 6.00 Build 0)  -->
<!DOCTYPE svg PUBLIC "-//W3C//DTD SVG 1.1//EN" "http://www.w3.org/Graphics/SVG/1.1/DTD/svg11.dtd">
<svg version="1.1" id="Layer_1" xmlns="http://www.w3.org/2000/svg" xmlns:xlink="http://www.w3.org/1999/xlink" x="0px" y="0px"
	 width="30px" height="30px" viewBox="0 0 30 30" enable-background="new 0 0 30 30" xml:space="preserve">
<g>
	<g>
		<path fill="#2CA8DF" d="M25.979,25.372c0,0.31,0.252,0.558,0.562,0.558h2.897c0.313,0,0.563,0.256,0.563,0.571v2.935
			C30,29.751,29.748,30,29.438,30H17.939c-0.312,0-0.567-0.249-0.567-0.564v-2.935c0-0.315,0.257-0.571,0.567-0.571h2.892
			c0.315,0,0.569-0.248,0.569-0.558v-8.376c0-0.309-0.254-0.563-0.569-0.563H9.169c-0.31,0-0.565,0.254-0.565,0.563v8.376
			c0,0.31,0.255,0.558,0.565,0.558h2.891c0.316,0,0.568,0.256,0.568,0.571v2.935c0,0.315-0.252,0.564-0.568,0.564H0.562
			C0.256,30,0,29.751,0,29.436v-2.935c0-0.315,0.255-0.571,0.562-0.571h2.891c0.318,0,0.565-0.248,0.565-0.558V4.674
			c0-0.31-0.247-0.571-0.565-0.571H0.562C0.256,4.103,0,3.853,0,3.538V0.604C0,0.294,0.255,0.04,0.562,0.04h11.497
			c0.316,0,0.568,0.254,0.568,0.564v2.934c0,0.315-0.252,0.565-0.568,0.565h-2.89c-0.31,0-0.565,0.261-0.565,0.571v7.251
			c0,0.316,0.255,0.571,0.565,0.571h11.662c0.315,0,0.569-0.255,0.569-0.571V4.674c0-0.31-0.254-0.571-0.569-0.571h-2.892
			c-0.312,0-0.567-0.25-0.567-0.565V0.604c0-0.31,0.257-0.564,0.567-0.564h11.496C29.75,0.04,30,0.294,30,0.604v2.934
			c0,0.315-0.252,0.565-0.563,0.565H26.54c-0.31,0-0.562,0.261-0.562,0.571V25.372z"/>
	</g>
</g>
</svg>
