<?xml version="1.0" encoding="utf-8"?>
<!-- Generator: Adobe Illustrator 16.0.0, SVG Export Plug-In . SVG Version: 6.00 Build 0)  -->
<!DOCTYPE svg PUBLIC "-//W3C//DTD SVG 1.1//EN" "http://www.w3.org/Graphics/SVG/1.1/DTD/svg11.dtd">
<svg version="1.1" id="Layer_1" xmlns="http://www.w3.org/2000/svg" xmlns:xlink="http://www.w3.org/1999/xlink" x="0px" y="0px"
	 width="30px" height="30px" viewBox="0 0 30 30" enable-background="new 0 0 30 30" xml:space="preserve">
<path fill="#E3E6EA" d="M15-0.008c-8.272,0-15,6.732-15,15.004C0,23.268,6.728,30,15,30c8.275,0,15-6.73,15-15.004
	C30,6.723,23.275-0.008,15-0.008z M22.219,5.577L15,12.795L7.782,5.577c2.007-1.541,4.5-2.466,7.219-2.466
	C17.713,3.111,20.219,4.036,22.219,5.577z M3.112,14.996c0-2.715,0.925-5.215,2.469-7.218l7.215,7.218l-7.215,7.219
	C4.037,20.211,3.112,17.712,3.112,14.996z M7.782,24.415L15,17.2l7.218,7.215c-2.004,1.541-4.506,2.469-7.218,2.469
	C12.282,26.884,9.789,25.956,7.782,24.415z M24.419,22.215l-7.218-7.219l7.218-7.218c1.542,2.003,2.474,4.5,2.474,7.218
	C26.893,17.712,25.957,20.211,24.419,22.215z"/>
</svg>
