<?xml version="1.0" encoding="utf-8"?>
<!-- Generator: Adobe Illustrator 16.0.0, SVG Export Plug-In . SVG Version: 6.00 Build 0)  -->
<!DOCTYPE svg PUBLIC "-//W3C//DTD SVG 1.1//EN" "http://www.w3.org/Graphics/SVG/1.1/DTD/svg11.dtd">
<svg version="1.1" id="Layer_1" xmlns="http://www.w3.org/2000/svg" xmlns:xlink="http://www.w3.org/1999/xlink" x="0px" y="0px"
	 width="30px" height="30px" viewBox="0 0 30 30" enable-background="new 0 0 30 30" xml:space="preserve">
<path fill="#2CA8DF" d="M29.721,7.403l-7.128-7.125c-0.353-0.353-0.922-0.353-1.276,0L0.266,21.333C0.092,21.5,0,21.729,0,21.973
	c0,0.238,0.093,0.471,0.267,0.635l7.125,7.127C7.565,29.907,7.791,30,8.029,30c0.226,0,0.458-0.093,0.635-0.266L29.721,8.682
	c0.166-0.17,0.266-0.399,0.266-0.641C29.984,7.799,29.887,7.57,29.721,7.403z M8.029,27.813l-5.841-5.84l1.437-1.439l1.792,1.792
	c0.173,0.18,0.406,0.267,0.638,0.267c0.229,0,0.467-0.087,0.64-0.267c0.356-0.354,0.356-0.931,0-1.281l-1.792-1.79l1.186-1.184
	l1.792,1.789c0.177,0.176,0.409,0.262,0.641,0.262s0.464-0.086,0.638-0.262c0.359-0.354,0.359-0.928,0-1.279l-1.79-1.794
	l1.185-1.183l3.412,3.414c0.179,0.174,0.409,0.268,0.64,0.268c0.235,0,0.465-0.094,0.641-0.268c0.359-0.357,0.359-0.929,0-1.281
	L9.833,14.32l1.186-1.18l1.79,1.787c0.18,0.179,0.405,0.266,0.641,0.266c0.232,0,0.465-0.087,0.644-0.266
	c0.35-0.354,0.35-0.929,0-1.282l-1.792-1.789l1.189-1.183l1.786,1.792c0.176,0.176,0.409,0.263,0.641,0.263s0.464-0.086,0.643-0.263
	c0.354-0.356,0.354-0.932,0-1.285l-1.792-1.79l1.183-1.186l3.412,3.415c0.176,0.179,0.413,0.266,0.644,0.266
	c0.231,0,0.467-0.087,0.641-0.266c0.356-0.353,0.356-0.929,0-1.282l-3.409-3.414l1.183-1.186l1.792,1.789
	c0.181,0.18,0.408,0.27,0.64,0.27c0.233,0,0.467-0.09,0.644-0.27c0.353-0.35,0.353-0.922,0-1.281l-1.792-1.79l2.256-2.253
	l5.842,5.838L8.029,27.813z"/>
</svg>
