<?xml version="1.0" encoding="utf-8"?>
<!-- Generator: Adobe Illustrator 16.0.0, SVG Export Plug-In . SVG Version: 6.00 Build 0)  -->
<!DOCTYPE svg PUBLIC "-//W3C//DTD SVG 1.1//EN" "http://www.w3.org/Graphics/SVG/1.1/DTD/svg11.dtd">
<svg version="1.1" id="Layer_1" xmlns="http://www.w3.org/2000/svg" xmlns:xlink="http://www.w3.org/1999/xlink" x="0px" y="0px"
	 width="48px" height="48px" viewBox="0 0 48 48" enable-background="new 0 0 48 48" xml:space="preserve">
<path fill="#757575" d="M41.409,17.895c-1.279-1.279-3.353-1.171-4.628,0.107C32.505,22.28,23.866,30.92,23.174,31.604
	c-0.917,0.921-4.203,2.583-6.783,0c-2.578-2.577-0.936-5.845,0-6.783c0.7-0.699,9.334-9.334,13.607-13.606
	c1.277-1.279,1.382-3.347,0.104-4.626l-5.655-5.654c-1.249-1.247-3.275-1.247-4.522,0L4.307,16.644c0,0-11.056,11.556,2.261,24.872
	c13.315,13.318,24.787,2.265,24.787,2.265l15.707-15.706c1.251-1.25,1.251-3.274,0-4.525L41.409,17.895z M23.839,13.501
	c-0.627,0.624-1.636,0.624-2.263,0L17.536,9.46c-0.625-0.624-0.625-1.634,0-2.258l4.042-4.042c0.625-0.624,1.634-0.624,2.261,0
	l4.038,4.038c0.625,0.627,0.625,1.638,0,2.261L23.839,13.501z M40.798,30.461c-0.625,0.624-1.636,0.624-2.261,0l-4.04-4.038
	c-0.625-0.627-0.625-1.638,0-2.265l4.04-4.039c0.625-0.62,1.636-0.624,2.261,0l4.04,4.039c0.626,0.627,0.626,1.638,0,2.265
	L40.798,30.461z"/>
</svg>
