<?xml version="1.0" encoding="utf-8"?>
<!-- Generator: Adobe Illustrator 16.0.0, SVG Export Plug-In . SVG Version: 6.00 Build 0)  -->
<!DOCTYPE svg PUBLIC "-//W3C//DTD SVG 1.1//EN" "http://www.w3.org/Graphics/SVG/1.1/DTD/svg11.dtd">
<svg version="1.1" id="Layer_1" xmlns="http://www.w3.org/2000/svg" xmlns:xlink="http://www.w3.org/1999/xlink" x="0px" y="0px"
	 width="30px" height="30px" viewBox="0 0 30 30" enable-background="new 0 0 30 30" xml:space="preserve">
<g>
	<path fill="#2CA8DF" d="M9.726,6.548c0.537,0.133,1.073-0.178,1.305-0.68c0.603-1.303,1.762-2.42,3.967-2.42
		c4.003,0,4.6,3.542,4.6,5.653v3.55h3.449v-3.55C23.047,3.574,19.889,0,14.998,0c-3.519,0-6.142,1.854-7.334,4.958
		C7.461,5.482,7.765,6.065,8.311,6.2L9.726,6.548z M23.047,11.604H6.953c-1.907,0-3.449,1.544-3.449,3.449v11.496
		C3.504,28.458,5.046,30,6.953,30h16.094c1.907,0,3.449-1.542,3.449-3.451V15.053C26.496,13.148,24.954,11.604,23.047,11.604z
		 M16.534,21.721v3.495c0,0.845-0.692,1.531-1.537,1.531c-0.845,0-1.532-0.687-1.532-1.531v-3.495
		c-0.918-0.531-1.537-1.516-1.537-2.646c0-1.694,1.372-3.071,3.068-3.071c1.695,0,3.07,1.377,3.07,3.071
		C18.068,20.205,17.452,21.189,16.534,21.721z"/>
</g>
</svg>
