<?xml version="1.0" encoding="utf-8"?>
<!-- Generator: Adobe Illustrator 16.0.0, SVG Export Plug-In . SVG Version: 6.00 Build 0)  -->
<!DOCTYPE svg PUBLIC "-//W3C//DTD SVG 1.1//EN" "http://www.w3.org/Graphics/SVG/1.1/DTD/svg11.dtd">
<svg version="1.1" id="Layer_1" xmlns="http://www.w3.org/2000/svg" xmlns:xlink="http://www.w3.org/1999/xlink" x="0px" y="0px"
	 width="15.382px" height="10.875px" viewBox="0 0 15.382 10.875" enable-background="new 0 0 15.382 10.875" xml:space="preserve">
<g>
	<path fill="#2F343D" d="M0.783,10.625c-0.294,0-0.533-0.239-0.533-0.533V0.783c0-0.294,0.239-0.533,0.533-0.533h13.814
		c0.295,0,0.535,0.239,0.535,0.533v9.309c0,0.294-0.24,0.533-0.535,0.533H0.783z"/>
	<path fill="#2F343D" d="M14.598,0.5c0.157,0,0.285,0.127,0.285,0.283v9.309c0,0.156-0.128,0.283-0.285,0.283H0.783
		c-0.156,0-0.283-0.127-0.283-0.283V0.783C0.5,0.627,0.627,0.5,0.783,0.5H14.598 M14.598,0H0.783C0.352,0,0,0.351,0,0.783v9.309
		c0,0.432,0.352,0.783,0.783,0.783h13.814c0.434,0,0.785-0.352,0.785-0.783V0.783C15.383,0.351,15.031,0,14.598,0L14.598,0z"/>
</g>
<path fill="#4A5261" d="M6.275,3.019c0-0.247-0.288-0.381-0.479-0.223L2.992,5.133c-0.188,0.157-0.188,0.448,0,0.605l2.804,2.343
	c0.191,0.154,0.479,0.016,0.479-0.229V6.955c0-0.219,0.177-0.396,0.396-0.396h5.437c0.234,0,0.424-0.189,0.424-0.423V4.727
	c0-0.234-0.189-0.425-0.424-0.425H6.671c-0.219,0-0.396-0.175-0.396-0.396V3.019z"/>
</svg>
