<?xml version="1.0" encoding="utf-8"?>
<!-- Generator: Adobe Illustrator 16.0.0, SVG Export Plug-In . SVG Version: 6.00 Build 0)  -->
<!DOCTYPE svg PUBLIC "-//W3C//DTD SVG 1.1//EN" "http://www.w3.org/Graphics/SVG/1.1/DTD/svg11.dtd">
<svg version="1.1" id="Layer_1" xmlns="http://www.w3.org/2000/svg" xmlns:xlink="http://www.w3.org/1999/xlink" x="0px" y="0px"
	 width="18.244px" height="15.945px" viewBox="0 0 18.244 15.945" enable-background="new 0 0 18.244 15.945" xml:space="preserve">
<g>
	<g>
		<path fill="#93A7B9" d="M17.544,15.945c-0.005,0.001-0.013,0.001-0.02,0H0.7c-0.25,0-0.481-0.134-0.606-0.351
			c-0.125-0.216-0.125-0.483,0-0.7L8.506,0.325c0.25-0.434,0.963-0.434,1.213,0l8.34,14.444c0.115,0.125,0.186,0.292,0.186,0.476
			C18.244,15.632,17.931,15.945,17.544,15.945z M1.913,14.545h14.398L9.112,2.075L1.913,14.545z"/>
	</g>
	<g>
		<path fill="#93A7B9" d="M9.112,11.162c-0.387,0-0.7-0.313-0.7-0.7v-4.64c0-0.387,0.313-0.699,0.7-0.699s0.7,0.313,0.7,0.699v4.64
			C9.813,10.849,9.499,11.162,9.112,11.162z"/>
	</g>
	<g>
		<circle fill="#93A7B9" cx="9.113" cy="12.649" r="0.802"/>
	</g>
</g>
</svg>
