<?xml version="1.0" encoding="utf-8"?>
<!-- Generator: Adobe Illustrator 16.0.0, SVG Export Plug-In . SVG Version: 6.00 Build 0)  -->
<!DOCTYPE svg PUBLIC "-//W3C//DTD SVG 1.1//EN" "http://www.w3.org/Graphics/SVG/1.1/DTD/svg11.dtd">
<svg version="1.1" id="Layer_1" xmlns="http://www.w3.org/2000/svg" xmlns:xlink="http://www.w3.org/1999/xlink" x="0px" y="0px"
	 width="48px" height="48px" viewBox="0 0 48 48" enable-background="new 0 0 48 48" xml:space="preserve">
<g>
	<g>
		<path fill="#757575" d="M0.633,3.432C0.283,3.432,0,3.149,0,2.799V0.633C0,0.283,0.283,0,0.633,0h46.734
			C47.718,0,48,0.283,48,0.633V2.8c0,0.35-0.282,0.633-0.633,0.633L0.633,3.432L0.633,3.432z"/>
		<path fill="#757575" d="M27.382,37.305c-0.394,0-0.712-0.285-0.712-0.633V7.787c0-0.349,0.318-0.633,0.712-0.633h9.25
			c0.396,0,0.712,0.284,0.712,0.633v28.885c0,0.348-0.316,0.633-0.712,0.633H27.382z"/>
		<path fill="#757575" d="M20.619,7.154h-9.25c-0.395,0-0.712,0.284-0.712,0.633v39.58c0,0.351,0.317,0.633,0.712,0.633h9.25
			c0.393,0,0.712-0.282,0.712-0.633V7.787C21.331,7.438,21.012,7.154,20.619,7.154L20.619,7.154z"/>
	</g>
</g>
</svg>
