<?xml version="1.0" encoding="utf-8"?>
<!-- Generator: Adobe Illustrator 16.0.0, SVG Export Plug-In . SVG Version: 6.00 Build 0)  -->
<!DOCTYPE svg PUBLIC "-//W3C//DTD SVG 1.1//EN" "http://www.w3.org/Graphics/SVG/1.1/DTD/svg11.dtd">
<svg version="1.1" id="Layer_1" xmlns="http://www.w3.org/2000/svg" xmlns:xlink="http://www.w3.org/1999/xlink" x="0px" y="0px"
	 width="48px" height="48px" viewBox="0 0 48 48" enable-background="new 0 0 48 48" xml:space="preserve">
<g>
	<g>
		<g>
			<g>
				<path fill="#757575" d="M37.273,9.835h-7.893c-0.355,0-0.68,0.213-0.814,0.542c-0.137,0.331-0.061,0.709,0.191,0.96l2.629,2.632
					l-3.873,3.874c-0.24,0.243-0.24,0.634,0,0.877l1.756,1.757c0.24,0.237,0.638,0.237,0.877,0l3.873-3.876l2.631,2.632
					c0.168,0.167,0.394,0.258,0.623,0.258c0.113,0,0.227-0.023,0.336-0.069c0.328-0.138,0.543-0.458,0.543-0.814v-7.891
					C38.152,10.231,37.762,9.835,37.273,9.835z M16.593,13.969l2.63-2.631c0.169-0.171,0.258-0.393,0.258-0.621
					c0-0.116-0.023-0.226-0.066-0.339c-0.135-0.325-0.459-0.542-0.816-0.542h-7.892c-0.486,0-0.881,0.396-0.881,0.881v7.891
					c0,0.357,0.213,0.677,0.544,0.814c0.326,0.137,0.71,0.061,0.959-0.188l2.63-2.632l3.874,3.876c0.241,0.237,0.636,0.237,0.878,0
					l1.755-1.757c0.239-0.24,0.239-0.634,0.002-0.877L16.593,13.969z M18.712,27.521c-0.241-0.24-0.638-0.24-0.878,0l-3.874,3.877
					l-2.63-2.633c-0.17-0.168-0.392-0.258-0.622-0.258c-0.115,0-0.228,0.021-0.337,0.066c-0.328,0.137-0.544,0.458-0.544,0.816
					v7.889c0,0.488,0.395,0.883,0.881,0.883H18.6c0.357,0,0.681-0.214,0.816-0.544s0.059-0.708-0.192-0.962l-2.63-2.629l3.874-3.87
					c0.239-0.241,0.239-0.638,0-0.88L18.712,27.521z M37.609,28.575c-0.328-0.136-0.707-0.062-0.959,0.19l-2.631,2.633l-3.873-3.877
					c-0.239-0.237-0.633-0.237-0.877,0l-1.756,1.758c-0.24,0.242-0.24,0.638-0.002,0.879l3.875,3.871l-2.629,2.628
					c-0.17,0.172-0.26,0.395-0.26,0.624c0,0.111,0.021,0.229,0.066,0.338c0.137,0.33,0.459,0.544,0.815,0.544h7.894
					c0.485,0,0.879-0.394,0.879-0.882v-7.891C38.152,29.033,37.941,28.712,37.609,28.575z"/>
			</g>
		</g>
		<path fill="#757575" d="M43.773,4.227v39.544H4.227V4.227H43.773 M47.154,0H0.846C0.378,0,0,0.378,0,0.845v46.309
			C0,47.622,0.378,48,0.846,48h46.31C47.625,48,48,47.622,48,47.154V0.845C48,0.378,47.625,0,47.154,0L47.154,0z"/>
	</g>
</g>
</svg>
