<?xml version="1.0" encoding="utf-8"?>
<!-- Generator: Adobe Illustrator 16.0.0, SVG Export Plug-In . SVG Version: 6.00 Build 0)  -->
<!DOCTYPE svg PUBLIC "-//W3C//DTD SVG 1.1//EN" "http://www.w3.org/Graphics/SVG/1.1/DTD/svg11.dtd">
<svg version="1.1" id="Layer_1" xmlns="http://www.w3.org/2000/svg" xmlns:xlink="http://www.w3.org/1999/xlink" x="0px" y="0px"
	 width="48px" height="48px" viewBox="0 0 48 48" enable-background="new 0 0 48 48" xml:space="preserve">
<g>
	<g>
		<g>
			<path fill="#757575" d="M42.654,22.42c0,0.393-0.285,0.712-0.633,0.712H5.982c-0.349,0-0.633-0.319-0.633-0.712v-9.249
				c0-0.396,0.285-0.712,0.633-0.712h36.04c0.349,0,0.633,0.316,0.633,0.712V22.42L42.654,22.42z"/>
			<path fill="#757575" d="M0,29.184v9.252c0,0.393,0.285,0.711,0.633,0.711h46.734c0.352,0,0.633-0.318,0.633-0.711v-9.252
				c0-0.393-0.281-0.711-0.633-0.711H0.633C0.285,28.473,0,28.791,0,29.184L0,29.184z"/>
		</g>
		<g>
			<path fill="#757575" d="M22.498,47.367c0,0.348,0.285,0.633,0.633,0.633h1.717c0.348,0,0.633-0.285,0.633-0.633v-9.846h-2.982
				V47.367z"/>
			<path fill="#757575" d="M22.498,0.633v30.305h2.982V0.633C25.48,0.282,25.195,0,24.848,0h-1.717
				C22.783,0,22.498,0.282,22.498,0.633z"/>
		</g>
	</g>
</g>
</svg>
