<?xml version="1.0" encoding="utf-8"?>
<!-- Generator: Adobe Illustrator 16.0.0, SVG Export Plug-In . SVG Version: 6.00 Build 0)  -->
<!DOCTYPE svg PUBLIC "-//W3C//DTD SVG 1.1//EN" "http://www.w3.org/Graphics/SVG/1.1/DTD/svg11.dtd">
<svg version="1.1" id="Layer_1" xmlns="http://www.w3.org/2000/svg" xmlns:xlink="http://www.w3.org/1999/xlink" x="0px" y="0px"
	 width="48px" height="48px" viewBox="0 0 48 48" enable-background="new 0 0 48 48" xml:space="preserve">
<g>
	<g>
		<path fill="#757575" d="M44.521,47.367c0,0.351,0.285,0.633,0.633,0.633h2.213C47.717,48,48,47.718,48,47.367V0.634
			C48,0.283,47.717,0,47.367,0h-2.213c-0.348,0-0.633,0.283-0.633,0.634V47.367z"/>
		<path fill="#757575" d="M14.881,20.619c0,0.393,0.283,0.711,0.633,0.711h24.653c0.351,0,0.633-0.318,0.633-0.711v-9.25
			c0-0.395-0.282-0.713-0.633-0.713H15.514c-0.35,0-0.633,0.318-0.633,0.713V20.619z"/>
		<path fill="#757575" d="M40.167,26.67H0.633C0.283,26.67,0,26.989,0,27.382v9.25c0,0.396,0.283,0.712,0.633,0.712h39.534
			c0.351,0,0.633-0.316,0.633-0.712v-9.25C40.8,26.989,40.518,26.67,40.167,26.67L40.167,26.67z"/>
	</g>
</g>
</svg>
