<?xml version="1.0" encoding="utf-8"?>
<!-- Generator: Adobe Illustrator 16.0.0, SVG Export Plug-In . SVG Version: 6.00 Build 0)  -->
<!DOCTYPE svg PUBLIC "-//W3C//DTD SVG 1.1//EN" "http://www.w3.org/Graphics/SVG/1.1/DTD/svg11.dtd">
<svg version="1.1" id="Layer_1" xmlns="http://www.w3.org/2000/svg" xmlns:xlink="http://www.w3.org/1999/xlink" x="0px" y="0px"
	 width="30px" height="30px" viewBox="0 0 30 30" enable-background="new 0 0 30 30" xml:space="preserve">
<g>
	<g>
		<g>
			<path fill="#3F434E" d="M25.274,29.526L25.274,29.526c-1.117,0-1.819-0.602-1.896-0.672L12.93,18.41
				c-0.124-0.124-0.195-0.295-0.195-0.473l-0.002-1.271l-1.447,0.002l0,0c-0.178,0-0.349-0.069-0.474-0.195l-0.98-0.981
				c-0.26-0.261-0.26-0.685,0-0.946l1.005-1.003L5.691,8.394L3.25,7.602C3.098,7.554,2.971,7.454,2.888,7.319L0.526,3.523
				C0.362,3.259,0.4,2.917,0.62,2.697l2.072-2.074c0.219-0.22,0.566-0.257,0.826-0.096l3.799,2.358
				c0.136,0.083,0.235,0.212,0.284,0.363l0.791,2.445l5.147,5.146l1.003-1.004c0.261-0.261,0.685-0.261,0.945-0.001l0.98,0.979
				c0.128,0.126,0.197,0.296,0.197,0.475l-0.002,1.448h1.273c0.178,0,0.349,0.071,0.473,0.196l10.422,10.42
				c0.689,0.766,1.393,2.713-0.687,4.792C27.225,29.062,26.26,29.526,25.274,29.526z M24.299,27.885
				c0.004,0,0.383,0.305,0.976,0.305c0.62,0,1.269-0.333,1.926-0.991c1.652-1.655,0.761-2.808,0.656-2.933L17.66,14.073h-1.665
				c-0.177,0-0.348-0.07-0.474-0.196c-0.125-0.125-0.195-0.296-0.195-0.474l0.002-1.839l-0.312-0.31l-1.003,1.004
				c-0.261,0.261-0.685,0.261-0.945,0L7.333,6.524C7.257,6.45,7.201,6.358,7.17,6.257L6.405,3.893L3.264,1.943L1.942,3.267
				l1.952,3.138l2.361,0.766c0.101,0.033,0.193,0.088,0.269,0.163l5.732,5.735c0.26,0.261,0.26,0.685,0,0.946l-1.005,1.003
				l0.312,0.312l1.839-0.001l0,0c0.369,0,0.668,0.298,0.668,0.668l0.002,1.663l10.228,10.225
				C24.299,27.885,24.299,27.885,24.299,27.885z"/>
		</g>
	</g>
	<g>
		<path fill="#3F434E" d="M19.027,15.165c-0.171,0-0.343-0.065-0.474-0.196c-0.261-0.261-0.26-0.684,0.002-0.945l2.026-2.026
			c0.192-0.194,0.485-0.246,0.731-0.143c0.128,0.051,3.077,1.237,5.661-1.349c1.68-1.677,1.749-3.489,1.574-4.584l-2.413,2.413
			c-0.262,0.261-0.687,0.261-0.947,0l-3.569-3.57c-0.126-0.125-0.196-0.295-0.196-0.473s0.072-0.348,0.198-0.473l2.412-2.413
			c-1.096-0.172-2.905-0.106-4.584,1.574c-2.609,2.608-1.363,5.629-1.352,5.659c0.107,0.251,0.05,0.542-0.142,0.735l-1.936,1.937
			c-0.262,0.261-0.687,0.261-0.948,0c-0.259-0.261-0.259-0.684,0-0.946l1.642-1.642c-0.323-1.103-0.842-4.059,1.788-6.689
			c3.249-3.25,6.937-1.646,7.09-1.576c0.198,0.091,0.345,0.273,0.383,0.489c0.038,0.217-0.027,0.439-0.185,0.594l-2.752,2.751
			l2.623,2.625l2.756-2.75c0.154-0.154,0.366-0.229,0.593-0.185c0.216,0.039,0.4,0.182,0.487,0.384
			c0.069,0.155,1.671,3.843-1.574,7.086c-2.631,2.63-5.585,2.111-6.691,1.787l-1.732,1.731
			C19.368,15.099,19.198,15.165,19.027,15.165z"/>
	</g>
	<g>
		<path fill="#3F434E" d="M3.397,29.953c-0.696,0-1.498-0.278-2.309-1.089c-1.785-1.786-0.99-3.526-0.321-4.196l9.594-9.593
			c0.261-0.261,0.686-0.261,0.947,0c0.26,0.262,0.26,0.684,0,0.947l-9.594,9.594c-0.158,0.164-0.907,1.076,0.319,2.304
			c1.228,1.227,2.142,0.479,2.313,0.313l9.676-9.678c0.261-0.261,0.686-0.261,0.947,0c0.26,0.263,0.26,0.687,0,0.948l-9.683,9.683
			C4.92,29.551,4.235,29.953,3.397,29.953z"/>
	</g>
	<g>
		<polygon fill="#3F434E" points="8.997,17.389 9.745,18.075 11.863,18.073 11.863,20.013 12.688,20.836 14.238,19.287 
			13.404,17.938 13.402,15.997 11.287,15.998 10.835,15.548 		"/>
		<path fill="#3F434E" d="M12.688,21.506c-0.171,0-0.341-0.064-0.472-0.195l-0.826-0.824c-0.125-0.125-0.197-0.296-0.197-0.474
			v-1.271l-1.449,0.002l0,0c-0.167,0-0.329-0.063-0.451-0.176l-0.749-0.686c-0.136-0.124-0.214-0.297-0.218-0.479
			c-0.003-0.181,0.066-0.357,0.195-0.486l1.839-1.841c0.25-0.25,0.693-0.25,0.947,0l0.254,0.255l1.839-0.001l0,0
			c0.369,0,0.668,0.298,0.668,0.668l0.002,1.75l0.735,1.188c0.162,0.266,0.122,0.606-0.096,0.826l-1.55,1.55
			C13.031,21.439,12.859,21.506,12.688,21.506z M12.532,19.735l0.157,0.155l0.704-0.704l-0.558-0.897
			c-0.064-0.106-0.099-0.228-0.099-0.352l-0.002-1.271l-1.447,0.002l0,0c-0.167,0-0.328-0.063-0.451-0.175l-0.873,0.875l0.042,0.038
			l1.858-0.002l0,0c0.178,0,0.346,0.069,0.472,0.195c0.127,0.125,0.197,0.296,0.197,0.474V19.735z"/>
	</g>
</g>
</svg>
