<?xml version="1.0" encoding="utf-8"?>
<!-- Generator: Adobe Illustrator 16.0.0, SVG Export Plug-In . SVG Version: 6.00 Build 0)  -->
<!DOCTYPE svg PUBLIC "-//W3C//DTD SVG 1.1//EN" "http://www.w3.org/Graphics/SVG/1.1/DTD/svg11.dtd">
<svg version="1.1" id="Layer_1" xmlns="http://www.w3.org/2000/svg" xmlns:xlink="http://www.w3.org/1999/xlink" x="0px" y="0px"
	 width="200px" height="35.286px" viewBox="0 0 200 35.286" enable-background="new 0 0 200 35.286" xml:space="preserve">
<g>
	<polygon fill="#EC1E4D" points="40.345,0.044 20.186,33.772 0,0.044 	"/>
	<polyline fill="#164E9A" points="40.431,0.004 40.426,0.004 20.279,33.754 20.239,33.754 37.354,0.14 37.171,0.145 18.78,31.247 
		18.736,31.168 34.273,0.14 34.085,0.145 17.203,28.603 17.153,28.525 31.154,0.14 30.96,0.145 15.655,26.017 15.595,25.926 
		28.053,0.14 27.835,0.145 14.103,23.393 14.047,23.306 24.962,0.14 24.749,0.145 12.579,20.875 12.519,20.803 21.871,0.14 
		21.658,0.145 11.001,18.208 10.947,18.134 18.755,0.14 18.577,0.14 9.429,15.607 9.369,15.52 15.63,0.14 15.452,0.145 
		7.856,12.978 7.791,12.881 12.564,0.14 12.37,0.14 6.358,10.396 6.303,10.319 9.478,0.14 9.25,0.14 4.785,7.816 4.721,7.738 
		6.348,0.14 6.159,0.14 3.173,5.171 3.123,5.119 3.272,0.14 3.044,0.14 1.59,2.475 1.516,2.479 0.018,0 40.431,0.004 40.431,0.004 	
		"/>
	<g>
		<path fill="#164E9A" d="M52.649,10.046l-0.743,2.678h-11.7L43.29,1.833h4.531l-2.326,8.213H52.649z"/>
		<path fill="#164E9A" d="M67.171,1.833L66.51,4.159h-7.34l-0.492,1.727h7.083l-0.651,2.22h-7.066l-0.613,2.151h7.977l-0.712,2.467
			h-12.47l3.103-10.891H67.171z"/>
		<path fill="#164E9A" d="M79.499,12.724h-4.401l-0.204-1.797h-4.709l-1.144,1.797h-4.839l8.182-10.891h4.843L79.499,12.724z
			 M74.627,8.601l-0.45-3.951h-0.04l-2.473,3.951H74.627z"/>
		<path fill="#164E9A" d="M82.677,1.833h5.957c2.118,0,3.662,0.42,4.631,1.263c0.97,0.842,1.455,1.941,1.455,3.299
			c0,1.303-0.416,2.505-1.247,3.61c-0.833,1.104-1.815,1.834-2.95,2.189c-1.135,0.354-2.217,0.53-3.247,0.53h-7.642L82.677,1.833z
			 M84.826,10.327h1.849c1.227,0,2.139-0.476,2.739-1.429s0.9-1.903,0.9-2.852c0-0.561-0.173-1.004-0.516-1.328
			c-0.345-0.326-0.961-0.489-1.853-0.489h-1.416L84.826,10.327z"/>
	</g>
	<g>
		<path fill="#164E9A" d="M53.401,17.624l-0.743,2.68h-4.714l-2.359,8.212h-4.521l2.36-8.212h-4.51l0.752-2.68H53.401z"/>
		<path fill="#164E9A" d="M65.659,17.624l-0.662,2.326h-7.339l-0.492,1.729h7.083l-0.651,2.221h-7.065l-0.613,2.15h7.976
			l-0.713,2.468H50.714l3.103-10.892L65.659,17.624L65.659,17.624z"/>
		<path fill="#164E9A" d="M79.397,21.221l-4.124,0.352V21.51c0-0.538-0.214-0.939-0.639-1.202c-0.426-0.263-0.896-0.394-1.41-0.394
			c-0.666,0-1.317,0.183-1.95,0.547c-0.633,0.365-1.142,0.922-1.524,1.67c-0.383,0.75-0.574,1.479-0.574,2.188
			c0,0.54,0.196,0.993,0.59,1.356c0.393,0.365,0.967,0.549,1.72,0.549c0.693,0,1.279-0.165,1.757-0.494
			c0.476-0.327,0.895-0.833,1.255-1.516l4.194,0.488c-0.437,1.125-1.284,2.069-2.539,2.836c-1.256,0.769-2.891,1.151-4.904,1.151
			c-2.1,0-3.705-0.418-4.815-1.255c-1.109-0.835-1.665-1.945-1.665-3.336c0-1.063,0.33-2.13,0.989-3.205
			c0.66-1.072,1.623-1.915,2.89-2.527c1.265-0.614,2.784-0.921,4.554-0.921c1.836,0,3.287,0.346,4.351,1.037
			C78.617,19.174,79.231,20.088,79.397,21.221z"/>
		<path fill="#164E9A" d="M95.177,17.624l-3.133,10.892h-4.511l1.278-4.441h-4.88l-1.259,4.441h-4.55l3.123-10.892h4.514
			l-1.088,3.841h4.89l1.105-3.841H95.177z"/>
		<path fill="#164E9A" d="M110.529,17.624l-3.133,10.892h-4.223L99.585,22.2h-0.04l-1.812,6.316H93.51l3.123-10.892h4.194
			l3.604,6.345h0.041l1.823-6.345H110.529z"/>
		<path fill="#164E9A" d="M118.609,17.448c2.215,0,3.842,0.444,4.877,1.332c1.039,0.887,1.558,1.979,1.558,3.274
			c0,0.499-0.096,1.069-0.288,1.709c-0.189,0.64-0.561,1.302-1.111,1.989c-0.547,0.684-1.258,1.265-2.134,1.74
			c-0.876,0.478-1.718,0.797-2.522,0.957c-0.807,0.16-1.663,0.241-2.567,0.241c-2.075,0-3.694-0.394-4.858-1.181
			c-1.162-0.785-1.744-1.889-1.744-3.309c0-0.74,0.145-1.464,0.432-2.168c0.289-0.705,0.718-1.369,1.288-1.996
			c0.571-0.625,1.276-1.147,2.112-1.57c0.836-0.423,1.658-0.698,2.47-0.828C116.927,17.512,117.758,17.448,118.609,17.448z
			 M116.691,26.226c0.867,0,1.602-0.247,2.207-0.735c0.604-0.494,1.045-1.111,1.322-1.857c0.278-0.748,0.418-1.279,0.418-1.596
			c0-0.701-0.238-1.229-0.711-1.586c-0.472-0.355-1.076-0.535-1.809-0.535c-0.819,0-1.525,0.225-2.118,0.674
			c-0.591,0.447-1.035,1.045-1.332,1.791c-0.299,0.748-0.444,1.385-0.444,1.91c0,0.555,0.217,1.017,0.651,1.381
			C115.314,26.042,115.919,26.226,116.691,26.226z"/>
		<path fill="#164E9A" d="M136.732,25.836l-0.742,2.68h-11.699l3.082-10.892h4.531l-2.324,8.212H136.732z"/>
		<path fill="#164E9A" d="M144.988,17.448c2.213,0,3.84,0.444,4.877,1.332c1.037,0.887,1.557,1.979,1.557,3.274
			c0,0.499-0.096,1.069-0.288,1.709s-0.561,1.302-1.108,1.989c-0.549,0.684-1.262,1.265-2.137,1.74
			c-0.877,0.478-1.718,0.797-2.523,0.957c-0.807,0.16-1.662,0.241-2.567,0.241c-2.073,0-3.694-0.394-4.856-1.181
			c-1.164-0.785-1.746-1.889-1.746-3.309c0-0.74,0.145-1.464,0.431-2.168c0.289-0.705,0.72-1.369,1.291-1.996
			c0.569-0.625,1.276-1.147,2.11-1.57c0.837-0.423,1.66-0.698,2.469-0.828C143.305,17.512,144.135,17.448,144.988,17.448z
			 M143.07,26.226c0.865,0,1.601-0.247,2.205-0.735c0.604-0.494,1.045-1.111,1.322-1.857c0.278-0.748,0.418-1.279,0.418-1.596
			c0-0.701-0.236-1.229-0.709-1.586c-0.474-0.355-1.078-0.535-1.81-0.535c-0.82,0-1.526,0.225-2.118,0.674
			c-0.59,0.447-1.037,1.045-1.334,1.791c-0.296,0.748-0.445,1.385-0.445,1.91c0,0.555,0.219,1.017,0.655,1.381
			C141.689,26.042,142.297,26.226,143.07,26.226z"/>
		<path fill="#164E9A" d="M166.848,20.784l-4.406,0.365c-0.408-0.869-1.235-1.303-2.479-1.303c-1.221,0-2.187,0.458-2.901,1.374
			c-0.713,0.917-1.068,1.897-1.068,2.942c0,0.604,0.264,1.111,0.791,1.521c0.529,0.407,1.203,0.612,2.021,0.612h0.038
			c0.929,0,1.747-0.176,2.453-0.526l0.331-1.166h-2.779l0.657-2.291h6.813l-1.457,5.121c-2.266,0.838-4.512,1.259-6.737,1.259
			c-2.006,0-3.599-0.406-4.774-1.218s-1.765-1.95-1.765-3.418c0-1.228,0.376-2.353,1.125-3.374c0.746-1.023,1.804-1.82,3.164-2.387
			c1.36-0.565,2.922-0.849,4.685-0.849C164.001,17.448,166.098,18.56,166.848,20.784z"/>
		<path fill="#164E9A" d="M173.896,17.624l-3.112,10.892h-4.552l3.113-10.892H173.896z"/>
		<path fill="#164E9A" d="M187.38,17.624l-0.661,2.326h-7.341l-0.491,1.729h7.084l-0.65,2.221h-7.064l-0.613,2.15h7.979
			l-0.715,2.468h-12.469l3.103-10.892L187.38,17.624L187.38,17.624z"/>
		<path fill="#164E9A" d="M199.991,20.661l-4.195,0.17c-0.094-0.938-0.802-1.41-2.128-1.41c-0.539,0-0.954,0.084-1.243,0.254
			c-0.289,0.171-0.437,0.373-0.437,0.609c0,0.172,0.117,0.336,0.35,0.489c0.232,0.155,0.781,0.354,1.646,0.599
			c1.098,0.32,1.99,0.621,2.678,0.9c0.688,0.282,1.251,0.646,1.688,1.098c0.436,0.447,0.653,1.008,0.653,1.678
			c0,0.633-0.237,1.223-0.71,1.769c-0.473,0.545-1.152,0.993-2.042,1.347c-0.892,0.354-2.151,0.529-3.794,0.529
			c-2.307,0-3.941-0.332-4.907-0.994c-0.965-0.664-1.446-1.517-1.446-2.557v-0.253l4.229-0.216c0,0.683,0.198,1.164,0.596,1.445
			c0.399,0.282,0.952,0.424,1.658,0.424c0.713,0,1.255-0.115,1.627-0.347c0.373-0.229,0.56-0.491,0.56-0.784
			c0-0.221-0.119-0.423-0.358-0.609c-0.237-0.186-0.824-0.403-1.761-0.654c-2.133-0.586-3.48-1.124-4.047-1.609
			c-0.564-0.486-0.849-1.07-0.849-1.754c0-0.623,0.233-1.193,0.699-1.709c0.469-0.516,1.146-0.914,2.038-1.201
			c0.893-0.285,1.959-0.427,3.204-0.427C197.643,17.448,199.736,18.519,199.991,20.661z"/>
	</g>
	<g>
		<path fill="#164E9A" d="M41.547,35.225v-3.641h0.485v3.641H41.547z"/>
		<path fill="#164E9A" d="M53.416,35.225v-3.641h0.49l1.924,2.863v-2.863h0.458v3.641h-0.491l-1.923-2.862v2.862H53.416z"/>
		<path fill="#164E9A" d="M70.218,33.95l0.484,0.12c-0.1,0.396-0.281,0.697-0.543,0.905c-0.261,0.208-0.581,0.311-0.958,0.311
			c-0.392,0-0.709-0.078-0.955-0.238c-0.245-0.159-0.432-0.391-0.559-0.693c-0.128-0.303-0.192-0.627-0.192-0.977
			c0-0.377,0.072-0.709,0.217-0.99c0.144-0.282,0.35-0.497,0.615-0.645c0.267-0.146,0.561-0.219,0.88-0.219
			c0.363,0,0.668,0.092,0.916,0.277c0.248,0.187,0.419,0.447,0.518,0.783l-0.477,0.109c-0.083-0.265-0.206-0.456-0.366-0.576
			c-0.16-0.119-0.361-0.182-0.604-0.182c-0.278,0-0.511,0.068-0.699,0.201c-0.187,0.135-0.318,0.313-0.394,0.539
			c-0.077,0.226-0.114,0.459-0.114,0.697c0,0.31,0.044,0.58,0.135,0.81c0.089,0.231,0.229,0.403,0.418,0.517
			c0.189,0.114,0.395,0.172,0.615,0.172c0.269,0,0.497-0.078,0.683-0.232C70.025,34.485,70.152,34.254,70.218,33.95z"/>
		<path fill="#164E9A" d="M81.689,33.454c0-0.604,0.163-1.076,0.487-1.416c0.323-0.344,0.743-0.514,1.256-0.514
			c0.335,0,0.639,0.08,0.909,0.241c0.27,0.159,0.476,0.383,0.617,0.67c0.142,0.287,0.212,0.612,0.212,0.978
			c0,0.367-0.074,0.696-0.223,0.988c-0.149,0.29-0.361,0.512-0.634,0.661s-0.567,0.224-0.883,0.224
			c-0.343,0-0.649-0.082-0.919-0.246c-0.27-0.166-0.474-0.393-0.613-0.679S81.689,33.772,81.689,33.454z M82.183,33.461
			c0,0.438,0.118,0.781,0.354,1.033c0.236,0.252,0.533,0.379,0.89,0.379c0.363,0,0.662-0.129,0.897-0.383
			c0.235-0.256,0.353-0.615,0.353-1.084c0-0.295-0.05-0.554-0.151-0.773c-0.101-0.221-0.247-0.391-0.44-0.512
			s-0.411-0.185-0.65-0.185c-0.342,0-0.637,0.119-0.883,0.353C82.306,32.522,82.183,32.913,82.183,33.461z"/>
		<path fill="#164E9A" d="M96.351,35.225v-3.641h1.611c0.322,0,0.568,0.035,0.735,0.101c0.168,0.063,0.302,0.181,0.402,0.349
			c0.102,0.164,0.152,0.35,0.152,0.551c0,0.258-0.083,0.479-0.25,0.654c-0.167,0.178-0.423,0.291-0.771,0.34
			c0.127,0.062,0.224,0.121,0.29,0.18c0.14,0.127,0.272,0.289,0.397,0.482l0.627,0.984h-0.601l-0.479-0.753
			c-0.14-0.218-0.254-0.384-0.345-0.499c-0.091-0.115-0.172-0.198-0.244-0.242c-0.072-0.049-0.144-0.081-0.218-0.1
			c-0.054-0.014-0.143-0.02-0.267-0.02h-0.555v1.612L96.351,35.225L96.351,35.225z M96.835,33.198h1.029
			c0.219,0,0.39-0.021,0.514-0.066c0.124-0.047,0.218-0.119,0.282-0.221c0.064-0.101,0.096-0.209,0.096-0.326
			c0-0.174-0.062-0.314-0.186-0.428c-0.124-0.109-0.321-0.166-0.589-0.166h-1.146V33.198z"/>
		<path fill="#164E9A" d="M110.545,35.225v-3.641h1.373c0.239,0,0.425,0.013,0.553,0.035c0.178,0.03,0.327,0.086,0.448,0.172
			c0.121,0.082,0.218,0.199,0.291,0.351c0.074,0.149,0.11,0.315,0.11,0.497c0,0.309-0.098,0.57-0.295,0.785
			c-0.196,0.214-0.551,0.32-1.064,0.32h-0.932v1.479L110.545,35.225L110.545,35.225z M111.029,33.313h0.939
			c0.311,0,0.53-0.059,0.66-0.173c0.133-0.115,0.197-0.277,0.197-0.486c0-0.151-0.038-0.282-0.116-0.391
			c-0.077-0.106-0.178-0.179-0.302-0.214c-0.081-0.021-0.232-0.03-0.449-0.03h-0.932v1.294H111.029z"/>
		<path fill="#164E9A" d="M124.234,33.454c0-0.604,0.162-1.076,0.486-1.416c0.323-0.344,0.744-0.514,1.256-0.514
			c0.338,0,0.641,0.08,0.91,0.241c0.27,0.159,0.475,0.383,0.615,0.67c0.143,0.287,0.214,0.612,0.214,0.978
			c0,0.367-0.073,0.696-0.225,0.988c-0.149,0.29-0.36,0.512-0.634,0.661s-0.567,0.224-0.883,0.224c-0.345,0-0.649-0.082-0.92-0.246
			c-0.269-0.166-0.474-0.393-0.611-0.679C124.305,34.075,124.234,33.772,124.234,33.454z M124.729,33.461
			c0,0.438,0.119,0.781,0.354,1.033c0.237,0.252,0.534,0.379,0.892,0.379c0.363,0,0.661-0.129,0.897-0.383
			c0.233-0.256,0.353-0.615,0.353-1.084c0-0.295-0.051-0.554-0.151-0.773c-0.101-0.221-0.247-0.391-0.44-0.512
			s-0.408-0.185-0.65-0.185c-0.342,0-0.635,0.119-0.883,0.353C124.852,32.522,124.729,32.913,124.729,33.461z"/>
		<path fill="#164E9A" d="M138.896,35.225v-3.641h1.609c0.323,0,0.567,0.035,0.737,0.101c0.167,0.063,0.3,0.181,0.399,0.349
			c0.102,0.164,0.151,0.35,0.151,0.551c0,0.258-0.083,0.479-0.249,0.654c-0.167,0.178-0.422,0.291-0.771,0.34
			c0.129,0.062,0.224,0.121,0.289,0.18c0.143,0.127,0.272,0.289,0.397,0.482l0.629,0.984h-0.603l-0.479-0.753
			c-0.141-0.218-0.256-0.384-0.345-0.499c-0.092-0.115-0.174-0.198-0.244-0.242c-0.07-0.049-0.145-0.081-0.218-0.1
			c-0.054-0.014-0.144-0.02-0.269-0.02h-0.556v1.612L138.896,35.225L138.896,35.225z M139.381,33.198h1.029
			c0.221,0,0.391-0.021,0.514-0.066c0.124-0.047,0.219-0.119,0.283-0.221c0.064-0.101,0.096-0.209,0.096-0.326
			c0-0.174-0.062-0.314-0.186-0.428c-0.126-0.109-0.321-0.166-0.592-0.166h-1.146L139.381,33.198L139.381,33.198z"/>
		<path fill="#164E9A" d="M152.414,35.225l1.396-3.641h0.524l1.483,3.641h-0.547l-0.42-1.102h-1.533l-0.393,1.102H152.414z
			 M153.453,33.736h1.255l-0.385-1.012c-0.114-0.308-0.202-0.56-0.267-0.761c-0.051,0.236-0.115,0.471-0.195,0.703L153.453,33.736z"
			/>
		<path fill="#164E9A" d="M167.296,35.225v-3.206h-1.198v-0.435h2.881v0.435h-1.197v3.206H167.296z"/>
		<path fill="#164E9A" d="M179.941,35.225v-3.641h2.619v0.435h-2.133v1.108h1.999v0.432h-1.999v1.234h2.221v0.432H179.941z"/>
		<path fill="#164E9A" d="M193.857,35.225v-3.641h1.252c0.281,0,0.498,0.02,0.646,0.054c0.209,0.048,0.388,0.136,0.533,0.26
			c0.19,0.164,0.336,0.371,0.43,0.623c0.097,0.252,0.144,0.541,0.144,0.862c0,0.279-0.031,0.523-0.098,0.738
			c-0.063,0.211-0.146,0.391-0.246,0.528c-0.101,0.14-0.213,0.25-0.332,0.33c-0.119,0.081-0.264,0.144-0.435,0.183
			c-0.168,0.041-0.362,0.063-0.583,0.063H193.857z M194.341,34.793h0.777c0.237,0,0.427-0.022,0.563-0.065
			c0.135-0.046,0.243-0.108,0.325-0.188c0.113-0.115,0.203-0.268,0.267-0.461c0.063-0.191,0.095-0.425,0.095-0.699
			c0-0.381-0.063-0.672-0.188-0.877c-0.123-0.203-0.273-0.34-0.453-0.41c-0.129-0.049-0.336-0.072-0.621-0.072h-0.766
			L194.341,34.793L194.341,34.793z"/>
	</g>
	
		<linearGradient id="SVGID_1_" gradientUnits="userSpaceOnUse" x1="333.9082" y1="-260.9297" x2="495.9912" y2="-260.9297" gradientTransform="matrix(1 0 0 -1 -296 -245.7139)">
		<stop  offset="0" style="stop-color:#FFFFFF;stop-opacity:0"/>
		<stop  offset="0.0223" style="stop-color:#FEF3F5;stop-opacity:0.0299"/>
		<stop  offset="0.1244" style="stop-color:#F8BFC9;stop-opacity:0.1668"/>
		<stop  offset="0.2282" style="stop-color:#F393A3;stop-opacity:0.3061"/>
		<stop  offset="0.3318" style="stop-color:#EE6E84;stop-opacity:0.4451"/>
		<stop  offset="0.4354" style="stop-color:#EB526D;stop-opacity:0.584"/>
		<stop  offset="0.5388" style="stop-color:#E93E5C;stop-opacity:0.7228"/>
		<stop  offset="0.6421" style="stop-color:#E73251;stop-opacity:0.8614"/>
		<stop  offset="0.7455" style="stop-color:#E72E4E"/>
	</linearGradient>
	<rect x="37.908" y="14.51" fill="url(#SVGID_1_)" width="162.083" height="1.412"/>
</g>
</svg>
