<?xml version="1.0" encoding="utf-8"?>
<!-- Generator: Adobe Illustrator 16.0.0, SVG Export Plug-In . SVG Version: 6.00 Build 0)  -->
<!DOCTYPE svg PUBLIC "-//W3C//DTD SVG 1.1//EN" "http://www.w3.org/Graphics/SVG/1.1/DTD/svg11.dtd">
<svg version="1.1" id="Layer_1" xmlns="http://www.w3.org/2000/svg" xmlns:xlink="http://www.w3.org/1999/xlink" x="0px" y="0px"
	 width="200px" height="36px" viewBox="0 0 200 36" enable-background="new 0 0 200 36" xml:space="preserve">
<path fill-rule="evenodd" clip-rule="evenodd" fill="#D1D2D3" d="M129.771,13.195c0.695-3.242,0.223-5.712-1.414-7.415
	c-1.635-1.703-4.361-2.554-8.18-2.559c-3.854-0.004-6.996,0.832-9.42,2.512c-2.424,1.681-3.975,4.091-4.646,7.229
	c-0.693,3.229-0.242,5.682,1.352,7.366c1.592,1.686,4.268,2.602,8.025,2.604c4.021,0.005,7.232-0.882,9.645-2.517
	C127.547,18.778,129.09,16.372,129.771,13.195z M123.146,13.342c-0.404,1.88-1.15,3.294-2.244,4.247
	c-1.092,0.953-2.52,1.426-4.277,1.423c-1.736-0.002-2.932-0.487-3.6-1.458c-0.66-0.973-0.785-2.423-0.371-4.352
	c0.416-1.946,1.193-3.457,2.326-4.528c1.135-1.071,2.52-1.606,4.152-1.604c1.752,0.002,2.965,0.539,3.646,1.608
	C123.461,9.747,123.584,11.303,123.146,13.342z M179.164,22.933c3.371,0.005,6.068-0.512,8.088-1.551
	c2.016-1.034,3.23-2.518,3.645-4.447c0.18-0.843,0.174-1.612-0.02-2.32c-0.191-0.703-0.559-1.289-1.092-1.75
	c-0.48-0.404-1.078-0.753-1.797-1.052c-0.719-0.295-1.955-0.652-3.713-1.067c-0.27-0.059-0.643-0.142-1.117-0.244
	c-2.473-0.561-3.627-1.234-3.455-2.025c0.094-0.444,0.414-0.786,0.953-1.028c0.539-0.241,1.258-0.359,2.16-0.358
	c1.16,0.001,2.002,0.175,2.531,0.513c0.531,0.338,0.723,0.832,0.584,1.486l-0.02,0.088l5.938,0.007l0.047-0.219
	c0.406-1.903-0.045-3.318-1.361-4.238c-1.309-0.92-3.537-1.38-6.67-1.384c-3.178-0.003-5.689,0.481-7.547,1.459
	s-2.99,2.401-3.391,4.272c-0.164,0.76-0.184,1.45-0.064,2.057c0.125,0.611,0.391,1.139,0.789,1.587
	c0.824,0.919,2.949,1.77,6.369,2.557c0.264,0.057,0.463,0.105,0.602,0.14c0.121,0.027,0.311,0.071,0.566,0.128
	c2.148,0.495,3.141,1.128,2.975,1.911c-0.109,0.514-0.482,0.922-1.119,1.216c-0.633,0.293-1.453,0.441-2.459,0.44
	c-1.322-0.001-2.26-0.183-2.814-0.544c-0.551-0.361-0.748-0.91-0.592-1.648c0.025-0.115,0.078-0.291,0.166-0.528
	c0.006-0.026,0.01-0.044,0.012-0.053l-6.246-0.006l-0.059,0.281c-0.473,2.206-0.076,3.811,1.201,4.814
	C173.527,22.426,175.834,22.93,179.164,22.933z M152.695,5.808c-1.635-1.703-4.363-2.553-8.182-2.558
	c-3.854-0.004-6.996,0.832-9.418,2.512c-2.426,1.681-3.975,4.091-4.648,7.228c-0.691,3.229-0.242,5.682,1.354,7.368
	c1.592,1.684,4.268,2.572,8.025,2.575c4.021,0.005,7.232-0.854,9.645-2.489c2.412-1.637,3.957-4.043,4.637-7.221
	C154.803,9.98,154.33,7.511,152.695,5.808z M147.482,13.37c-0.402,1.88-1.15,3.295-2.24,4.247c-1.094,0.952-2.521,1.426-4.279,1.423
	c-1.736-0.001-2.934-0.486-3.6-1.458c-0.664-0.973-0.787-2.422-0.373-4.351c0.418-1.946,1.193-3.458,2.328-4.528
	c1.135-1.07,2.52-1.605,4.15-1.604c1.754,0.001,2.967,0.54,3.646,1.608C147.797,9.775,147.922,11.332,147.482,13.37z
	 M169.605,22.933l0.889-4.475l-9.91-0.011l3.182-14.841l-6.49-0.007l-4.07,19.334H169.605z M194.961,2.73V2.722
	c0.33-0.133,0.471-0.396,0.471-0.747c0-0.451-0.338-0.822-0.873-0.822h-1.607v2.98h0.656V2.968h0.654
	c0.33,0,0.451,0.137,0.498,0.451c0.033,0.238,0.025,0.526,0.105,0.714h0.654c-0.117-0.167-0.113-0.518-0.125-0.706
	C195.373,3.127,195.281,2.814,194.961,2.73z M194.326,2.501h-0.719v-0.84h0.719c0.291,0,0.451,0.126,0.451,0.414
	C194.777,2.376,194.617,2.501,194.326,2.501z M194.148,0c-1.457,0-2.645,1.186-2.645,2.643c0,1.457,1.188,2.642,2.645,2.642
	s2.643-1.186,2.643-2.642C196.791,1.186,195.605,0,194.148,0z M194.148,4.938c-1.266,0-2.295-1.03-2.295-2.294
	c0-1.266,1.029-2.295,2.295-2.295s2.295,1.029,2.295,2.295C196.443,3.908,195.414,4.938,194.148,4.938z M108.264,7.629l0.902-4.232
	h-20.81l-0.903,4.209l7.135,0.008l-3.206,15.319h6.54l3.206-15.311L108.264,7.629z M3.209,28.964h2.318v6.862h1.002v-6.862h2.318
	v-0.896H3.209V28.964z M14.51,31.411h-3.437v-3.344H10.07v7.759h1.003v-3.519h3.437v3.519h1.002v-7.759H14.51V31.411z
	 M18.494,32.296h3.31v-0.897h-3.31v-2.435h3.565v-0.896h-4.567v7.759h4.579v-0.897h-3.577V32.296z M32.895,34.87l-1.608-6.803
	h-1.399l-1.607,6.803l-1.771-6.803h-0.979l2.039,7.759h1.411l1.607-6.933l1.608,6.933h1.409l2.039-7.759h-0.978L32.895,34.87z
	 M39.43,27.95c-2.003,0-2.808,1.061-2.808,2.354v3.286c0,1.293,0.805,2.352,2.808,2.352c2.004,0,2.809-1.059,2.809-2.352v-3.286
	C42.238,29.011,41.434,27.95,39.43,27.95z M41.236,33.565c0,0.955-0.583,1.493-1.807,1.493c-1.223,0-1.806-0.538-1.806-1.493v-3.239
	c0-0.955,0.583-1.49,1.806-1.49c1.224,0,1.807,0.535,1.807,1.49V33.565z M49.252,31.096v-1.118c0-1.189-0.583-1.91-2.25-1.91h-2.959
	v7.759h1.003v-2.808h1.899l1.934,2.808h1.153l-2.016-2.925C48.914,32.644,49.252,32.017,49.252,31.096z M46.968,32.132h-1.922
	v-3.168h1.922c0.956,0,1.282,0.257,1.282,1.024v1.119C48.25,31.865,47.923,32.132,46.968,32.132z M52.408,28.067h-1.001v7.759h4.368
	v-0.897h-3.367V28.067z M59.947,28.067h-2.715v7.759h2.715c1.898,0,2.493-0.99,2.493-2.225v-3.31
	C62.439,29.057,61.845,28.067,59.947,28.067z M61.438,33.53c0,0.909-0.35,1.398-1.526,1.398h-1.677v-5.965h1.677
	c1.176,0,1.526,0.49,1.526,1.398V33.53z M67.693,28.067h-1.002v7.759h4.369v-0.897h-3.367V28.067z M73.519,32.296h3.309v-0.897
	h-3.309v-2.435h3.565v-0.896h-4.567v7.759h4.579v-0.897h-3.577V32.296z M80.905,28.067l-2.621,7.759h1.013l0.628-1.864h3.298
	l0.64,1.864h1.014l-2.622-7.759H80.905z M80.194,33.089l1.386-4.301l1.387,4.301H80.194z M88.908,28.067h-2.714v7.759h2.714
	c1.899,0,2.493-0.99,2.493-2.225v-3.31C91.401,29.057,90.807,28.067,88.908,28.067z M90.399,33.53c0,0.909-0.349,1.398-1.525,1.398
	h-1.678v-5.965h1.678c1.176,0,1.525,0.49,1.525,1.398V33.53z M94.151,32.296h3.309v-0.897h-3.309v-2.435h3.565v-0.896h-4.567v7.759
	h4.579v-0.897h-3.577V32.296z M104.648,31.096v-1.118c0-1.189-0.582-1.91-2.248-1.91h-2.96v7.759h1.002v-2.808h1.9l1.934,2.808
	h1.152l-2.014-2.925C104.311,32.644,104.648,32.017,104.648,31.096z M102.364,32.132h-1.922v-3.168h1.922
	c0.955,0,1.281,0.257,1.281,1.024v1.119C103.646,31.865,103.319,32.132,102.364,32.132z M109.367,35.826h1.002v-7.759h-1.002V35.826
	z M117.16,34.707l-3.379-6.64h-1.375v7.759h0.955v-6.605l3.379,6.605h1.375v-7.759h-0.955V34.707z M122.658,35.826h1.002v-7.759
	h-1.002V35.826z M131.594,28.067l-2.236,5.999l-2.236-5.999h-1.27l-0.27,7.759h0.967l0.152-6.292l1.98,5.29h1.352l1.98-5.29
	l0.15,6.292h0.969l-0.268-7.759H131.594z M137.012,28.067l-2.623,7.759h1.016l0.629-1.864h3.297l0.643,1.864h1.012l-2.621-7.759
	H137.012z M136.301,33.089l1.387-4.301l1.385,4.301H136.301z M146.123,34.893c-0.537,0.105-1.049,0.142-1.457,0.142
	c-1.328,0-1.619-0.443-1.619-1.433v-3.31c0-1.049,0.385-1.434,1.666-1.434c0.641,0,1.34,0.069,2.084,0.198l0.117-0.861
	c-0.723-0.164-1.49-0.245-2.154-0.245c-1.936,0-2.715,0.722-2.715,2.295v3.413c0,1.435,0.605,2.283,2.586,2.283
	c0.805,0,1.701-0.115,2.459-0.336v-3.345h-0.967V34.893z M149.01,35.826h1.002v-7.759h-1.002V35.826z M156.805,34.707l-3.379-6.64
	h-1.371v7.759h0.953v-6.605l3.379,6.605h1.375v-7.759h-0.957V34.707z M163.645,34.893c-0.537,0.105-1.051,0.142-1.455,0.142
	c-1.33,0-1.621-0.443-1.621-1.433v-3.31c0-1.049,0.385-1.434,1.666-1.434c0.641,0,1.34,0.069,2.084,0.198l0.117-0.861
	c-0.723-0.164-1.49-0.245-2.154-0.245c-1.936,0-2.715,0.722-2.715,2.295v3.413c0,1.435,0.605,2.283,2.586,2.283
	c0.805,0,1.703-0.115,2.457-0.336v-3.345h-0.965V34.893z M171.357,31.492c-1.539-0.385-1.539-0.432-1.539-1.504
	c0-0.896,0.232-1.152,1.504-1.152c0.641,0,1.375,0.081,1.992,0.221l0.08-0.852c-0.615-0.162-1.42-0.255-2.096-0.255
	c-1.924,0-2.482,0.651-2.482,2.004c0,1.606,0.223,1.97,2.098,2.389c1.596,0.36,1.607,0.455,1.607,1.502
	c0,0.886-0.256,1.214-1.504,1.214c-0.709,0-1.455-0.119-2.166-0.34l-0.162,0.815c0.664,0.27,1.559,0.407,2.305,0.407
	c2.133,0,2.529-0.768,2.529-2.119C173.523,32.308,173.42,32.005,171.357,31.492z M177.986,28.067h-2.715v7.759h2.715
	c1.898,0,2.494-0.99,2.494-2.225v-3.31C180.48,29.057,179.885,28.067,177.986,28.067z M179.477,33.53
	c0,0.909-0.35,1.398-1.527,1.398h-1.676v-5.965h1.676c1.178,0,1.527,0.49,1.527,1.398V33.53z M182.227,35.826h1.002v-7.759h-1.002
	V35.826z M187.445,28.067h-1.176l-2.797,3.808l3.006,3.951h1.201l-3.078-3.951L187.445,28.067z M190.615,32.563
	c-0.957-0.233-0.969-0.349-0.969-0.979c0-0.514,0.117-0.71,0.955-0.71c0.467,0,1.096,0.07,1.576,0.162l0.068-0.804
	c-0.467-0.128-1.061-0.198-1.609-0.198c-1.492,0-1.955,0.478-1.955,1.525c0,1.179,0.125,1.47,1.537,1.82
	c1.141,0.277,1.188,0.349,1.188,0.953c0,0.605-0.152,0.77-1.049,0.77c-0.49,0-1.129-0.093-1.619-0.233l-0.129,0.77
	c0.457,0.174,1.225,0.302,1.807,0.302c1.619,0,1.957-0.534,1.957-1.642C192.373,33.17,192.246,32.972,190.615,32.563z
	 M38.243,18.308l-10.529-0.013l0.79-3.682l9.773,0.011l0.867-4.042l-9.774-0.01l0.648-3.023l10.569,0.012l0.878-4.096l-16.928-0.02
	l-4.069,19.487h16.889L38.243,18.308z M51.335,3.477L37.427,22.933h6.372l2.268-3.9l9.862,0.011l0.698,3.89h6.201L57.508,3.485
	L51.335,3.477z M48.849,14.891l4.694-6.894l1.563,6.901L48.849,14.891z M20.415,18.288l-9.471-0.011l3.182-14.842L7.635,3.427
	L3.566,22.933h15.96L20.415,18.288z M83.295,20.13c2.212-1.584,3.644-3.894,4.294-6.93c0.676-3.15,0.196-5.55-1.432-7.204
	c-1.628-1.654-4.325-2.484-8.091-2.488L67.199,3.496l-4.07,19.437H74.6C78.19,22.938,81.089,21.71,83.295,20.13z M70.482,18.344
	L72.77,7.672l3.116,0.004c2.109,0.002,3.591,0.451,4.44,1.349c0.85,0.897,1.083,2.251,0.694,4.065
	c-0.396,1.846-1.179,3.181-2.355,4.015c-1.171,0.829-2.86,1.245-5.066,1.242L70.482,18.344z"/>
</svg>
