<?xml version="1.0" encoding="utf-8"?>
<!-- Generator: Adobe Illustrator 16.0.0, SVG Export Plug-In . SVG Version: 6.00 Build 0)  -->
<!DOCTYPE svg PUBLIC "-//W3C//DTD SVG 1.1//EN" "http://www.w3.org/Graphics/SVG/1.1/DTD/svg11.dtd">
<svg version="1.1" id="Layer_1" xmlns="http://www.w3.org/2000/svg" xmlns:xlink="http://www.w3.org/1999/xlink" x="0px" y="0px"
	 width="30px" height="30px" viewBox="0 0 30 30" enable-background="new 0 0 30 30" xml:space="preserve">
<path fill="#2CA8DF" d="M18.719,25.007h3.309c0.392,0,0.705-0.315,0.705-0.706v-18.6c0-0.388-0.313-0.706-0.705-0.706H8.211
	c-0.391,0-0.705,0.318-0.705,0.706V6.78L5.248,6.813v-2.46c0-0.809,0.656-1.465,1.465-1.465h16.573c0.81,0,1.466,0.656,1.466,1.465
	V25.65c0,0.809-0.656,1.463-1.466,1.463h-4.442L18.719,25.007z"/>
<path fill="#2CA8DF" d="M23.967,22.119h3.309c0.392,0,0.705-0.314,0.705-0.705V2.813c0-0.388-0.313-0.706-0.705-0.706H13.459
	c-0.391,0-0.705,0.318-0.705,0.706v1.079l-2.258,0.033v-2.46C10.496,0.656,11.152,0,11.961,0h16.573C29.343,0,30,0.656,30,1.465
	v21.297c0,0.809-0.657,1.463-1.466,1.463h-4.442L23.967,22.119z"/>
<path fill="#2CA8DF" d="M13.667,12.406H6.115c-0.534,0-0.965,0.45-0.965,0.984c0,0.532,0.431,0.964,0.965,0.964h7.552
	c0.532,0,0.963-0.45,0.963-0.982C14.63,12.838,14.199,12.406,13.667,12.406z M13.667,17.369H6.115c-0.534,0-0.965,0.453-0.965,0.984
	s0.431,0.967,0.965,0.967h7.552c0.532,0,0.963-0.453,0.963-0.985S14.199,17.369,13.667,17.369z M11.322,22.25H6.115
	c-0.534,0-0.965,0.451-0.965,0.984s0.431,0.964,0.965,0.964h5.207c0.535,0,0.967-0.45,0.967-0.981
	C12.289,22.682,11.857,22.25,11.322,22.25z M0,7.24c0-0.809,0.656-1.465,1.465-1.465h16.573c0.81,0,1.466,0.656,1.466,1.465v21.297
	c0,0.809-0.656,1.463-1.466,1.463H1.465C0.656,30,0,29.346,0,28.537V7.24z M16.779,27.895c0.391,0,0.705-0.314,0.705-0.705V8.589
	c0-0.388-0.314-0.706-0.705-0.706H2.963c-0.391,0-0.705,0.318-0.705,0.706v18.601c0,0.391,0.314,0.705,0.705,0.705H16.779z"/>
</svg>
