<?xml version="1.0" encoding="utf-8"?>
<!-- Generator: Adobe Illustrator 16.0.0, SVG Export Plug-In . SVG Version: 6.00 Build 0)  -->
<!DOCTYPE svg PUBLIC "-//W3C//DTD SVG 1.1//EN" "http://www.w3.org/Graphics/SVG/1.1/DTD/svg11.dtd">
<svg version="1.1" id="Layer_1" xmlns="http://www.w3.org/2000/svg" xmlns:xlink="http://www.w3.org/1999/xlink" x="0px" y="0px"
	 width="30px" height="30px" viewBox="0 0 30 30" enable-background="new 0 0 30 30" xml:space="preserve">
<g>
	<g>
		<path fill="#2CA8DF" d="M20.764,9.892c0,0.276-0.225,0.5-0.5,0.5h-2.462c-0.276,0-0.5-0.224-0.5-0.5V2.817
			c0-0.276,0.224-0.5,0.5-0.5h2.462c0.275,0,0.5,0.224,0.5,0.5V9.892z M29.99,6.931V26.54c0,1.911-1.551,3.46-3.461,3.46H3.46
			C1.55,30,0,28.451,0,26.54V3.471c0-1.912,1.55-3.46,3.46-3.46h19.608c0.955,0,1.482,0.05,4.177,2.744
			C29.939,5.449,29.99,5.976,29.99,6.931z M5.768,10.392c0,0.635,0.518,1.153,1.153,1.153h14.995c0.635,0,1.152-0.518,1.152-1.153
			V2.317c0-0.635-0.519-1.154-1.152-1.154H6.921c-0.636,0-1.153,0.519-1.153,1.154V10.392z M26.529,16.158
			c0-0.635-0.519-1.153-1.153-1.153H4.614c-0.635,0-1.153,0.519-1.153,1.153v10.093c0,0.635,0.518,1.153,1.153,1.153h20.762
			c0.636,0,1.153-0.52,1.153-1.153V16.158z"/>
	</g>
</g>
</svg>
