<?xml version="1.0" encoding="utf-8"?>
<!-- Generator: Adobe Illustrator 16.0.0, SVG Export Plug-In . SVG Version: 6.00 Build 0)  -->
<!DOCTYPE svg PUBLIC "-//W3C//DTD SVG 1.1//EN" "http://www.w3.org/Graphics/SVG/1.1/DTD/svg11.dtd">
<svg version="1.1" id="Layer_1" xmlns="http://www.w3.org/2000/svg" xmlns:xlink="http://www.w3.org/1999/xlink" x="0px" y="0px"
	 width="30px" height="30px" viewBox="0 0 30 30" enable-background="new 0 0 30 30" xml:space="preserve">
<g>
	<path fill="#2CA8DF" d="M13.292,24.543c0,0.29-0.234,0.523-0.527,0.523H2.323c-1.448,0-1.287-1.176-1.287-2.625l0,0
		c0-1.452-0.161-2.627,1.287-2.627h10.441c0.293,0,0.527,0.232,0.527,0.522L13.292,24.543L13.292,24.543z"/>
	<path fill="#2CA8DF" d="M20.246,1.05c0-0.58-0.473-1.05-1.057-1.05H2.101C0.94,0,0,0.943,0,2.104V27.9c0,1.16,0.94,2.1,2.101,2.1
		h18.906c1.163,0,2.106-0.939,2.106-2.102v-6.312c0-0.577-0.471-1.051-1.051-1.051s-1.058,0.474-1.058,1.051v5.812
		c0,0.275-0.224,0.5-0.5,0.5H2.601c-0.276,0-0.5-0.225-0.5-0.5V2.604c0-0.276,0.224-0.5,0.5-0.5h16.59
		C19.773,2.104,20.246,1.63,20.246,1.05z"/>
	<path fill="#2CA8DF" d="M29.771,8.053l-4.605-4.604c-0.161-0.161-0.369-0.24-0.577-0.24c-0.206,0-0.414,0.079-0.573,0.24
		l-8.979,8.975c-0.318,0.315-0.318,0.833,0,1.148l0.181,0.18c0.115,0.113,0.152,0.282,0.089,0.431l-1.892,4.885
		c-0.062,0.209-0.008,0.436,0.146,0.59c0.087,0.081,0.256,0.146,0.425,0.154c0.084,0.006,0.18-0.013,0.259-0.045l4.79-1.858
		c0.148-0.056,0.316-0.022,0.433,0.09l0.181,0.181c0.158,0.163,0.369,0.242,0.574,0.242c0.209,0,0.416-0.079,0.575-0.242
		l8.974-8.972C30.094,8.889,30.094,8.374,29.771,8.053z M18.92,14.315c-0.102,0.104-0.271,0.104-0.374,0l-1.112-1.112
		c-0.104-0.104-0.104-0.268,0-0.371l1.09-1.093c0.1-0.104,0.271-0.104,0.365,0l1.118,1.115c0.104,0.104,0.104,0.268,0,0.371
		L18.92,14.315z M21.581,11.654c-0.104,0.101-0.269,0.101-0.371,0l-1.112-1.115c-0.104-0.104-0.104-0.271,0-0.372l4.723-4.725
		c0.103-0.102,0.269-0.102,0.375,0l1.111,1.112c0.103,0.107,0.103,0.271,0,0.374L21.581,11.654z"/>
</g>
</svg>
