<?xml version="1.0" encoding="utf-8"?>
<!-- Generator: Adobe Illustrator 16.0.0, SVG Export Plug-In . SVG Version: 6.00 Build 0)  -->
<!DOCTYPE svg PUBLIC "-//W3C//DTD SVG 1.1//EN" "http://www.w3.org/Graphics/SVG/1.1/DTD/svg11.dtd">
<svg version="1.1" id="Layer_1" xmlns="http://www.w3.org/2000/svg" xmlns:xlink="http://www.w3.org/1999/xlink" x="0px" y="0px"
	 width="30px" height="30px" viewBox="0 0 30 30" enable-background="new 0 0 30 30" xml:space="preserve">
<g>
	<g>
		<path fill="#E3E6EA" d="M12.725,0.637l-7.604,7.48H1.154C0.513,8.117,0,8.635,0,9.271v11.54c0,0.635,0.513,1.152,1.154,1.152h3.98
			l7.554,7.432C13.842,30.555,15,29.961,15,28.379V1.484C15,0.022,13.715-0.359,12.725,0.637z"/>
		<path fill="#E3E6EA" d="M20.762,15.042c0-2.104-1.418-3.946-3.445-4.48c-0.613-0.152-1.248,0.208-1.41,0.825
			c-0.164,0.624,0.214,1.257,0.824,1.415c1.021,0.264,1.728,1.188,1.728,2.24s-0.706,1.97-1.728,2.237
			c-0.609,0.168-0.987,0.795-0.824,1.414c0.134,0.517,0.611,0.863,1.117,0.863c0.101,0,0.195-0.014,0.293-0.037
			C19.344,18.986,20.762,17.148,20.762,15.042z"/>
		<path fill="#E3E6EA" d="M25.38,15.044c0-3.406-1.858-6.527-4.854-8.147c-0.56-0.304-1.258-0.093-1.56,0.469
			c-0.307,0.562-0.098,1.266,0.462,1.566c2.252,1.216,3.646,3.562,3.646,6.112s-1.387,4.89-3.625,6.106
			c-0.563,0.304-0.764,1.008-0.46,1.57c0.206,0.383,0.606,0.602,1.012,0.602c0.183,0,0.381-0.045,0.551-0.137
			C23.529,21.561,25.38,18.443,25.38,15.044z"/>
		<path fill="#E3E6EA" d="M23.02,3.677c-0.574-0.292-1.271-0.062-1.552,0.515c-0.286,0.564-0.062,1.259,0.511,1.551
			c3.521,1.78,5.709,5.345,5.709,9.301c0,3.953-2.188,7.515-5.709,9.295c-0.571,0.292-0.797,0.986-0.511,1.556
			c0.201,0.405,0.605,0.635,1.031,0.635c0.173,0,0.349-0.036,0.521-0.12C27.32,24.229,30,19.875,30,15.044
			C30,10.208,27.32,5.855,23.02,3.677z"/>
	</g>
</g>
</svg>
