<?xml version="1.0" encoding="utf-8"?>
<!-- Generator: Adobe Illustrator 16.0.0, SVG Export Plug-In . SVG Version: 6.00 Build 0)  -->
<!DOCTYPE svg PUBLIC "-//W3C//DTD SVG 1.1//EN" "http://www.w3.org/Graphics/SVG/1.1/DTD/svg11.dtd">
<svg version="1.1" id="Layer_1" xmlns="http://www.w3.org/2000/svg" xmlns:xlink="http://www.w3.org/1999/xlink" x="0px" y="0px"
	 width="30px" height="30px" viewBox="0 0 30 30" enable-background="new 0 0 30 30" xml:space="preserve">
<g>
	<g>
		<path fill="#E3E6EA" d="M0,1.809c0-1.001,0.819-1.812,1.818-1.812h26.364c0.998,0,1.813,0.81,1.813,1.812v26.378
			c0,1.008-0.815,1.813-1.813,1.813H1.818C0.819,30,0,29.195,0,28.188V1.809z M26.33,27.201c0.479,0,0.868-0.393,0.868-0.877V3.695
			c0-0.479-0.39-0.875-0.868-0.875H3.673c-0.488,0-0.875,0.396-0.875,0.875v22.629c0,0.484,0.387,0.877,0.875,0.877H26.33z"/>
		<g>
			<path fill="#E3E6EA" d="M22.588,8.209H7.398c-0.658,0-1.187,0.559-1.187,1.218c0,0.662,0.529,1.193,1.187,1.193h15.189
				c0.659,0,1.196-0.556,1.196-1.215C23.784,8.744,23.247,8.209,22.588,8.209z"/>
			<path fill="#E3E6EA" d="M22.588,14.356H7.398c-0.658,0-1.187,0.563-1.187,1.221c0,0.659,0.529,1.196,1.187,1.196h15.189
				c0.659,0,1.196-0.563,1.196-1.217C23.784,14.894,23.247,14.356,22.588,14.356z"/>
			<path fill="#E3E6EA" d="M19.686,20.402H7.398c-0.658,0-1.187,0.558-1.187,1.219s0.529,1.193,1.187,1.193h12.288
				c0.664,0,1.198-0.558,1.198-1.213C20.885,20.941,20.352,20.402,19.686,20.402z"/>
		</g>
	</g>
</g>
</svg>
