<?xml version="1.0" encoding="utf-8"?>
<!-- Generator: Adobe Illustrator 16.0.0, SVG Export Plug-In . SVG Version: 6.00 Build 0)  -->
<!DOCTYPE svg PUBLIC "-//W3C//DTD SVG 1.1//EN" "http://www.w3.org/Graphics/SVG/1.1/DTD/svg11.dtd">
<svg version="1.1" id="Layer_1" xmlns="http://www.w3.org/2000/svg" xmlns:xlink="http://www.w3.org/1999/xlink" x="0px" y="0px"
	 width="30px" height="30px" viewBox="0 0 30 30" enable-background="new 0 0 30 30" xml:space="preserve">
<g>
	<g>
		<path fill="#2CA8DF" d="M1.051,30.001C0.471,30.001,0,29.532,0,28.949v-0.891c0-0.604,0.522-1.043,1.127-1.095
			c1.521-0.125,2.561-0.6,3.124-2.146L11.63,4.159c0.209-0.597,0.777-0.992,1.408-0.992h3.556c0.631,0,1.2,0.393,1.424,0.986
			l7.729,20.667c0.588,1.546,1.606,2.021,3.124,2.146c0.6,0.052,1.128,0.491,1.128,1.093v0.893c0,0.583-0.476,1.052-1.06,1.052
			H16.966c-0.585,0-1.056-0.469-1.056-1.052v-0.893c0-0.578,0.471-1.054,1.056-1.054h2.138c0.938,0,1.256-0.204,1.256-0.604
			c0-0.365-0.08-0.73-0.157-0.973l-1.179-3.55c-0.096-0.294-0.373-0.498-0.689-0.498h-8.129c-0.317,0-0.594,0.204-0.693,0.498
			l-1.175,3.55c-0.077,0.24-0.159,0.486-0.159,0.848c0,0.568,0.526,0.729,1.294,0.729h2.105c0.58,0,1.052,0.476,1.052,1.054v0.893
			c0,0.583-0.472,1.052-1.052,1.052L1.051,30.001L1.051,30.001z M17.156,18.384c0.26,0,0.439-0.254,0.354-0.497l-3.34-9.259l0,0
			c-0.051,0-0.096,0.034-0.116,0.079l-3.041,9.177c-0.082,0.246,0.102,0.5,0.361,0.5H17.156z"/>
	</g>
</g>
</svg>
