<?xml version="1.0" encoding="utf-8"?>
<!-- Generator: Adobe Illustrator 16.0.0, SVG Export Plug-In . SVG Version: 6.00 Build 0)  -->
<!DOCTYPE svg PUBLIC "-//W3C//DTD SVG 1.1//EN" "http://www.w3.org/Graphics/SVG/1.1/DTD/svg11.dtd">
<svg version="1.1" id="Layer_1" xmlns="http://www.w3.org/2000/svg" xmlns:xlink="http://www.w3.org/1999/xlink" x="0px" y="0px"
	 width="30px" height="30px" viewBox="0 0 30 30" enable-background="new 0 0 30 30" xml:space="preserve">
<path fill="#2CA8DF" d="M28.184,0H1.818C0.815,0,0,0.815,0,1.817v26.367C0,29.185,0.815,30,1.818,30h5.9h14.577h5.889
	C29.188,30,30,29.185,30,28.185V1.817C30,0.815,29.188,0,28.184,0z M27.524,3.325c0,0.626-0.508,1.132-1.134,1.132
	c-0.624,0-1.132-0.506-1.132-1.132c0-0.624,0.508-1.13,1.132-1.13C27.017,2.195,27.524,2.701,27.524,3.325z M24.066,3.325
	c0,0.626-0.505,1.132-1.132,1.132c-0.626,0-1.132-0.506-1.132-1.132c0-0.624,0.506-1.13,1.132-1.13
	C23.562,2.195,24.066,2.701,24.066,3.325z M20.612,3.325c0,0.626-0.508,1.132-1.134,1.132c-0.621,0-1.129-0.506-1.129-1.132
	c0-0.624,0.508-1.13,1.129-1.13C20.104,2.195,20.612,2.701,20.612,3.325z M2.47,7.527c0-0.502,0.406-0.908,0.907-0.908h23.201
	c0.501,0,0.906,0.406,0.906,0.908v19.078c0,0.502-0.405,0.907-0.906,0.907h-4.282H7.718H3.376c-0.5,0-0.907-0.405-0.907-0.907V7.527
	z"/>
<polygon fill="none" stroke="#2CA8DF" stroke-width="3" stroke-linecap="round" stroke-linejoin="round" stroke-miterlimit="10" points="
	15,10.546 18.828,17.178 22.656,23.807 15,23.807 7.344,23.807 11.172,17.178 "/>
</svg>
