<?xml version="1.0" encoding="utf-8"?>
<!-- Generator: Adobe Illustrator 16.0.0, SVG Export Plug-In . SVG Version: 6.00 Build 0)  -->
<!DOCTYPE svg PUBLIC "-//W3C//DTD SVG 1.1//EN" "http://www.w3.org/Graphics/SVG/1.1/DTD/svg11.dtd">
<svg version="1.1" id="Layer_1" xmlns="http://www.w3.org/2000/svg" xmlns:xlink="http://www.w3.org/1999/xlink" x="0px" y="0px"
	 width="48px" height="48px" viewBox="0 0 48 48" enable-background="new 0 0 48 48" xml:space="preserve">
<path fill="#757575" d="M44.241,19.692h2.18c0.871,0,1.579-0.707,1.579-1.579V1.578C48,0.707,47.292,0,46.421,0H1.578
	C0.707,0,0,0.707,0,1.578v16.536c0,0.872,0.707,1.579,1.578,1.579h2.18c0.873,0,1.578-0.707,1.578-1.579v-1.665
	c0-7.17,5.124-10.666,12.158-11.072c0.835-0.05,1.454,0.699,1.454,1.536v17.004H1.578C0.707,23.917,0,24.62,0,25.494v3.38
	c0,0.875,0.707,1.581,1.578,1.581h44.843c0.871,0,1.579-0.706,1.579-1.581v-3.38c0-0.874-0.708-1.577-1.579-1.577H29.049V6.913
	c0-0.837,0.619-1.586,1.454-1.536c7.036,0.407,12.16,3.902,12.16,11.072v1.665C42.663,18.985,43.368,19.692,44.241,19.692z
	 M35.913,42.66h-3.905c-2.236,0-2.959-0.725-2.959-2.599v-6.337H18.947v6.337c0,1.874-0.719,2.599-2.958,2.599h-3.902
	c-0.871,0-1.577,0.706-1.577,1.577v2.185c0,0.871,0.707,1.578,1.577,1.578h23.827c0.871,0,1.578-0.707,1.578-1.578v-2.185
	C37.491,43.366,36.784,42.66,35.913,42.66z"/>
</svg>
