<?xml version="1.0" encoding="utf-8"?>
<!-- Generator: Adobe Illustrator 16.0.0, SVG Export Plug-In . SVG Version: 6.00 Build 0)  -->
<!DOCTYPE svg PUBLIC "-//W3C//DTD SVG 1.1//EN" "http://www.w3.org/Graphics/SVG/1.1/DTD/svg11.dtd">
<svg version="1.1" id="Layer_1" xmlns="http://www.w3.org/2000/svg" xmlns:xlink="http://www.w3.org/1999/xlink" x="0px" y="0px"
	 width="48px" height="48px" viewBox="0 0 48 48" enable-background="new 0 0 48 48" xml:space="preserve">
<path fill="#757575" d="M46.421,0C47.292,0,48,0.707,48,1.578v16.536c0,0.872-0.708,1.579-1.579,1.579h-2.18
	c-0.873,0-1.578-0.707-1.578-1.579v-1.665c0-7.17-5.124-10.666-12.16-11.072c-0.835-0.05-1.454,0.699-1.454,1.536v26.611
	c0,1.874,0.723,2.599,2.959,2.599h3.905c0.871,0,1.578,0.706,1.578,1.577v2.185c0,0.871-0.707,1.578-1.578,1.578H12.086
	c-0.871,0-1.577-0.707-1.577-1.578v-2.185c0-0.871,0.707-1.577,1.577-1.577h3.902c2.24,0,2.958-0.725,2.958-2.599V6.913
	c0-0.837-0.619-1.586-1.454-1.536C10.459,5.783,5.335,9.279,5.335,16.449v1.665c0,0.872-0.705,1.579-1.578,1.579h-2.18
	C0.707,19.692,0,18.985,0,18.113V1.578C0,0.707,0.707,0,1.578,0H46.421z"/>
<path fill="#757575" d="M48,46.419C48,47.294,47.292,48,46.421,48H1.578C0.707,48,0,47.294,0,46.419v-3.38
	c0-0.874,0.707-1.577,1.578-1.577h44.843c0.871,0,1.579,0.703,1.579,1.577V46.419z"/>
</svg>
