<?xml version="1.0" encoding="utf-8"?>
<!-- Generator: Adobe Illustrator 16.0.0, SVG Export Plug-In . SVG Version: 6.00 Build 0)  -->
<!DOCTYPE svg PUBLIC "-//W3C//DTD SVG 1.1//EN" "http://www.w3.org/Graphics/SVG/1.1/DTD/svg11.dtd">
<svg version="1.1" id="Layer_1" xmlns="http://www.w3.org/2000/svg" xmlns:xlink="http://www.w3.org/1999/xlink" x="0px" y="0px"
	 width="30px" height="30px" viewBox="0 0 30 30" enable-background="new 0 0 30 30" xml:space="preserve">
<path fill="#2CA8DF" d="M8.239,14.271l8.231,7.651l4.109-2.572V9.434H12L8.239,14.271z M25.12,0H4.926
	C2.224,0,0.029,2.194,0.029,4.896v20.197c0,2.702,2.194,4.896,4.896,4.896H25.12c2.705,0,4.896-2.194,4.896-4.896V4.896
	C30.018,2.194,27.825,0,25.12,0z M23.466,20.15c0,0.498-0.256,0.963-0.677,1.222l-5.725,3.576c-0.235,0.151-0.498,0.22-0.76,0.22
	c-0.354,0-0.713-0.13-0.979-0.383L5.307,15.486c-0.548-0.513-0.616-1.354-0.155-1.941l5.008-6.438
	c0.272-0.349,0.688-0.556,1.138-0.556H22.02c0.801,0,1.446,0.646,1.446,1.443V20.15z"/>
</svg>
