<?xml version="1.0" encoding="utf-8"?>
<!-- Generator: Adobe Illustrator 16.0.0, SVG Export Plug-In . SVG Version: 6.00 Build 0)  -->
<!DOCTYPE svg PUBLIC "-//W3C//DTD SVG 1.1//EN" "http://www.w3.org/Graphics/SVG/1.1/DTD/svg11.dtd">
<svg version="1.1" id="Layer_1" xmlns="http://www.w3.org/2000/svg" xmlns:xlink="http://www.w3.org/1999/xlink" x="0px" y="0px"
	 width="30px" height="30px" viewBox="0 0 30 30" enable-background="new 0 0 30 30" xml:space="preserve">
<g>
	<path fill="#E3E6EA" d="M14.072,15.688c0-1.405-0.992-0.483,0.414-0.483h12.128v-3.388c0-0.631-0.512-1.142-1.142-1.142H13.831
		c-0.697,0-1.331-0.494-1.64-1.271l-0.999-2.945c-0.309-0.781-0.944-1.271-1.641-1.271h-7.85C0.761,5.188,0,6.135,0,7.309V27.88
		C0,29.05,0.761,30,1.701,30h13.22c1.214,0-0.849-1.05-0.849-2.266V15.688z"/>
	<path fill="#E3E6EA" d="M15.697,7.897c0.933-0.855,2.564-1.771,5.854-1.758c0.462,0.003,0.837,0.377,0.837,0.838v1.529
		c0,0.339,0.404,0.515,0.652,0.285l4.104-3.805c0.349-0.321,0.344-0.871-0.008-1.188l-4.099-3.682
		c-0.251-0.227-0.649-0.048-0.649,0.289V1.61c0,0.449-0.366,0.834-0.813,0.876c-2.465,0.231-5.148,1.805-6.453,5.023
		C14.984,7.856,15.418,8.148,15.697,7.897z"/>
	<path fill="#E3E6EA" d="M29.155,14.852H14.486c-0.462,0-0.836,0.375-0.836,0.837v13.475c0,0.462,0.374,0.837,0.836,0.837h14.669
		c0.462,0,0.837-0.375,0.837-0.837V15.688C29.992,15.226,29.617,14.852,29.155,14.852z M28.319,28.328H15.323V16.525h12.996V28.328z
		 M16.682,19.117h10.279c0.232,0,0.418-0.188,0.418-0.418v-0.836c0-0.231-0.186-0.419-0.418-0.419H16.682
		c-0.231,0-0.419,0.188-0.419,0.419v0.836C16.263,18.93,16.45,19.117,16.682,19.117z M16.682,21.874h10.279
		c0.232,0,0.418-0.188,0.418-0.419v-0.836c0-0.232-0.186-0.419-0.418-0.419H16.682c-0.231,0-0.419,0.187-0.419,0.419v0.836
		C16.263,21.686,16.45,21.874,16.682,21.874z M16.682,24.629h10.279c0.232,0,0.418-0.188,0.418-0.418v-0.838
		c0-0.229-0.186-0.417-0.418-0.417H16.682c-0.231,0-0.419,0.188-0.419,0.417v0.838C16.263,24.441,16.45,24.629,16.682,24.629z
		 M16.682,27.385h10.279c0.232,0,0.418-0.188,0.418-0.418v-0.836c0-0.232-0.186-0.419-0.418-0.419H16.682
		c-0.231,0-0.419,0.187-0.419,0.419v0.836C16.263,27.197,16.45,27.385,16.682,27.385z"/>
</g>
</svg>
