<?xml version="1.0" encoding="utf-8"?>
<!-- Generator: Adobe Illustrator 16.0.0, SVG Export Plug-In . SVG Version: 6.00 Build 0)  -->
<!DOCTYPE svg PUBLIC "-//W3C//DTD SVG 1.1//EN" "http://www.w3.org/Graphics/SVG/1.1/DTD/svg11.dtd">
<svg version="1.1" id="Layer_1" xmlns="http://www.w3.org/2000/svg" xmlns:xlink="http://www.w3.org/1999/xlink" x="0px" y="0px"
	 width="30px" height="30px" viewBox="0 0 30 30" enable-background="new 0 0 30 30" xml:space="preserve">
<g>
	<g>
		<path fill="#2CA8DF" d="M20.764,9.892c0,0.276-0.225,0.5-0.5,0.5h-2.462c-0.276,0-0.5-0.224-0.5-0.5V2.817
			c0-0.276,0.224-0.5,0.5-0.5h2.462c0.275,0,0.5,0.224,0.5,0.5V9.892z M29.99,6.931V26.54c0,1.911-1.551,3.46-3.461,3.46H3.46
			C1.55,30,0,28.451,0,26.54V3.471c0-1.912,1.55-3.46,3.46-3.46h19.608c0.955,0,1.482,0.05,4.177,2.744
			C29.939,5.449,29.99,5.976,29.99,6.931z M5.768,10.392c0,0.635,0.518,1.153,1.153,1.153h14.995c0.635,0,1.152-0.518,1.152-1.153
			V2.317c0-0.635-0.519-1.154-1.152-1.154H6.921c-0.636,0-1.153,0.519-1.153,1.154V10.392z M26.529,16.158
			c0-0.635-0.519-1.153-1.153-1.153H4.614c-0.635,0-1.153,0.519-1.153,1.153v10.093c0,0.635,0.518,1.153,1.153,1.153h20.762
			c0.636,0,1.153-0.52,1.153-1.153V16.158z"/>
	</g>
	<g>
		<path fill="#2CA8DF" d="M6.688,20.861L4.584,17.6c-0.085-0.135,0-0.291,0.177-0.291h1.521c0.073,0,0.135,0.053,0.168,0.094
			l1.198,1.938h0.01l1.218-1.938c0.021-0.041,0.095-0.094,0.167-0.094h1.52c0.178,0,0.271,0.156,0.178,0.291l-2.115,3.262
			l2.187,3.445c0.095,0.146,0,0.291-0.166,0.291H9.198c-0.063,0-0.146-0.041-0.179-0.092L7.656,22.4H7.636l-1.333,2.105
			c-0.033,0.04-0.095,0.092-0.177,0.092H4.678c-0.179,0-0.271-0.154-0.179-0.291L6.688,20.861z"/>
		<path fill="#2CA8DF" d="M12.689,17.371c0.01-0.094,0.104-0.166,0.187-0.166h0.169c0.051,0,0.146,0.043,0.175,0.104l2.417,4.498
			h0.021l2.417-4.498c0.03-0.062,0.123-0.104,0.176-0.104h0.167c0.084,0,0.178,0.072,0.188,0.166l1.179,6.999
			c0.021,0.137-0.073,0.229-0.2,0.229h-1.229c-0.095,0-0.187-0.084-0.196-0.166l-0.472-3.22h-0.019l-1.75,3.375
			c-0.03,0.062-0.126,0.112-0.179,0.112h-0.188c-0.06,0-0.145-0.051-0.176-0.112l-1.761-3.375h-0.019l-0.458,3.22
			c-0.01,0.082-0.092,0.166-0.198,0.166h-1.23c-0.125,0-0.219-0.093-0.198-0.229L12.689,17.371z"/>
		<path fill="#2CA8DF" d="M21.118,17.507c0-0.104,0.082-0.196,0.198-0.196h1.236c0.105,0,0.199,0.094,0.199,0.196v5.56h2.479
			c0.115,0,0.197,0.098,0.197,0.199V24.4c0,0.105-0.082,0.197-0.197,0.197h-3.914c-0.117,0-0.199-0.092-0.199-0.197L21.118,17.507
			L21.118,17.507z"/>
	</g>
</g>
</svg>
