<?xml version="1.0" encoding="utf-8"?>
<!-- Generator: Adobe Illustrator 16.0.0, SVG Export Plug-In . SVG Version: 6.00 Build 0)  -->
<!DOCTYPE svg PUBLIC "-//W3C//DTD SVG 1.1//EN" "http://www.w3.org/Graphics/SVG/1.1/DTD/svg11.dtd">
<svg version="1.1" id="Layer_1" xmlns="http://www.w3.org/2000/svg" xmlns:xlink="http://www.w3.org/1999/xlink" x="0px" y="0px"
	 width="30px" height="30px" viewBox="0 0 30 30" enable-background="new 0 0 30 30" xml:space="preserve">
<g>
	<g>
		<path fill="#E3E6EA" d="M12.823,12.25c0-0.804,0.211-2.677,2.177-2.677c1.895,0,2.178,1.678,2.178,2.677v1.63h1.633v-1.63
			c0-2.619-1.495-4.311-3.811-4.311c-2.314,0-3.81,1.692-3.81,4.311v1.63h1.633V12.25z M18.811,13.384H11.19
			c-0.903,0-1.633,0.731-1.633,1.633v5.444c0,0.904,0.729,1.635,1.633,1.635h7.621c0.904,0,1.634-0.73,1.634-1.635v-5.444
			C20.444,14.115,19.715,13.384,18.811,13.384z M15.728,18.175v1.655c0,0.399-0.328,0.725-0.728,0.725
			c-0.4,0-0.726-0.325-0.726-0.725v-1.655c-0.436-0.251-0.728-0.718-0.728-1.254c0-0.802,0.649-1.455,1.454-1.455
			c0.802,0,1.454,0.653,1.454,1.455C16.454,17.457,16.161,17.924,15.728,18.175z"/>
	</g>
	<g>
		<path fill="#E3E6EA" d="M26.273,30H3.727c-0.792,0-1.435-0.643-1.435-1.435V1.434C2.292,0.642,2.935,0,3.727,0h22.546
			c0.792,0,1.435,0.642,1.435,1.434v27.131C27.708,29.357,27.065,30,26.273,30z M5.162,27.131h19.676V2.868H5.162V27.131z"/>
	</g>
</g>
</svg>
