<?xml version="1.0" encoding="utf-8"?>
<!-- Generator: Adobe Illustrator 16.0.0, SVG Export Plug-In . SVG Version: 6.00 Build 0)  -->
<!DOCTYPE svg PUBLIC "-//W3C//DTD SVG 1.1//EN" "http://www.w3.org/Graphics/SVG/1.1/DTD/svg11.dtd">
<svg version="1.1" id="Layer_1" xmlns="http://www.w3.org/2000/svg" xmlns:xlink="http://www.w3.org/1999/xlink" x="0px" y="0px"
	 width="48px" height="48px" viewBox="0 0 48 48" enable-background="new 0 0 48 48" xml:space="preserve">
<g>
	<path fill="#757575" d="M41.729,48.095c-0.44,0-0.887-0.117-1.29-0.363l-35.46-21.56c-0.742-0.45-1.195-1.256-1.195-2.125
		s0.453-1.674,1.195-2.125l35.46-21.561c1.172-0.712,2.702-0.341,3.416,0.833c0.714,1.174,0.341,2.703-0.832,3.417L11.057,24.047
		l31.966,19.436c1.173,0.713,1.546,2.244,0.832,3.416C43.387,47.67,42.567,48.095,41.729,48.095z"/>
</g>
<g>
	<path fill="#757575" d="M22.969,33.9c-0.442,0-0.887-0.116-1.292-0.362c-1.174-0.716-1.545-2.245-0.83-3.417
		c1.11-1.824,1.698-3.924,1.698-6.074c0-2.153-0.588-4.254-1.698-6.078c-0.716-1.173-0.346-2.703,0.827-3.417
		c1.174-0.711,2.703-0.344,3.417,0.829c1.589,2.604,2.427,5.6,2.427,8.667c0,3.062-0.838,6.057-2.423,8.661
		C24.627,33.477,23.808,33.9,22.969,33.9z"/>
</g>
</svg>
