<?xml version="1.0" encoding="utf-8"?>
<!-- Generator: Adobe Illustrator 16.0.0, SVG Export Plug-In . SVG Version: 6.00 Build 0)  -->
<!DOCTYPE svg PUBLIC "-//W3C//DTD SVG 1.1//EN" "http://www.w3.org/Graphics/SVG/1.1/DTD/svg11.dtd">
<svg version="1.1" id="Layer_1" xmlns="http://www.w3.org/2000/svg" xmlns:xlink="http://www.w3.org/1999/xlink" x="0px" y="0px"
	 width="30px" height="30px" viewBox="0 0 30 30" enable-background="new 0 0 30 30" xml:space="preserve">
<path fill="#E3E6EA" d="M1.498,24.336c2.269-2.319,6.237-4.803,14.237-4.769c1.122,0.007,2.036,1.021,2.036,2.273v4.147
	c0,0.917,0.981,1.396,1.586,0.773l9.979-10.322c0.845-0.871,0.834-2.361-0.02-3.221l-9.969-9.987
	c-0.609-0.614-1.576-0.13-1.576,0.784v3.266c0,1.219-0.893,2.262-1.977,2.376C9.8,10.283,3.274,14.554,0.103,23.284
	C-0.235,24.224,0.819,25.017,1.498,24.336z"/>
</svg>
