<?xml version="1.0" encoding="utf-8"?>
<!-- Generator: Adobe Illustrator 16.0.0, SVG Export Plug-In . SVG Version: 6.00 Build 0)  -->
<!DOCTYPE svg PUBLIC "-//W3C//DTD SVG 1.1//EN" "http://www.w3.org/Graphics/SVG/1.1/DTD/svg11.dtd">
<svg version="1.1" id="Layer_1" xmlns="http://www.w3.org/2000/svg" xmlns:xlink="http://www.w3.org/1999/xlink" x="0px" y="0px"
	 width="30px" height="30px" viewBox="0 0 30 30" enable-background="new 0 0 30 30" xml:space="preserve">
<g>
	<g>
		<g>
			<path fill="#2CA8DF" d="M22.301,27.514h4.275c0.5,0,0.906-0.406,0.906-0.908V8.023c0-0.502-0.406-0.908-0.906-0.908H3.377
				c-0.501,0-0.907,0.406-0.907,0.908v18.583c0,0.502,0.406,0.906,0.907,0.906h4.342h14.582V27.514z M7.719,30h-5.9
				C0.815,30,0,29.186,0,28.186V1.818C0,0.815,0.815,0,1.819,0h26.365c1.004,0,1.815,0.815,1.815,1.818v26.368
				c0,1-0.813,1.814-1.815,1.814h-5.883H7.719z M20.607,3.326c0-0.624-0.506-1.13-1.131-1.13s-1.131,0.506-1.131,1.13
				c0,0.626,0.506,1.132,1.131,1.132C20.104,4.458,20.607,3.952,20.607,3.326z M24.066,3.326c0-0.624-0.508-1.13-1.133-1.13
				s-1.133,0.506-1.133,1.13c0,0.626,0.508,1.132,1.133,1.132S24.066,3.952,24.066,3.326z M27.521,3.326
				c0-0.624-0.506-1.13-1.133-1.13c-0.625,0-1.131,0.506-1.131,1.13c0,0.626,0.506,1.132,1.131,1.132
				C27.018,4.458,27.521,3.952,27.521,3.326z"/>
		</g>
		<g>
			<path fill="#2CA8DF" d="M22.329,23.091H7.671c-0.337,0-0.611,0.273-0.611,0.611v0.944c0,0.677,0.546,1.224,1.223,1.224h13.433
				c0.677,0,1.224-0.547,1.224-1.224v-0.944C22.939,23.364,22.666,23.091,22.329,23.091z"/>
			<path fill="#2CA8DF" d="M21.902,22.063l-2.453-2.422c-0.442-0.438-1.016-0.716-1.623-0.813l0.449,1.325
				c0.099,0.358-0.161,0.721-0.613,0.847c-0.182,0.051-0.363,0.094-0.544,0.134c0.286-0.152,0.448-0.471,0.383-0.796l-0.321-1.556
				l-0.414-2.002c0,0-0.769,0.666-1.766,0.666s-1.765-0.666-1.765-0.666l-0.414,2.002L12.5,20.337
				c-0.068,0.328,0.088,0.656,0.379,0.804c-0.192-0.043-0.383-0.09-0.574-0.145c-0.442-0.126-0.676-0.49-0.581-0.844l0.45-1.325
				c-0.609,0.099-1.181,0.376-1.624,0.813L8.1,22.063c-0.159,0.158-0.048,0.431,0.177,0.431h13.45
				C21.95,22.493,22.063,22.223,21.902,22.063z"/>
			<path fill="#2CA8DF" d="M15,9.037c-2.088,0-3.781,1.693-3.781,3.782c0,0.019,0.002,0.038,0.003,0.058
				c0.021,1.351,0.749,2.527,1.83,3.178c0.086,0.053,0.174,0.103,0.265,0.146C13.824,16.454,14.395,16.6,15,16.6
				c0.605,0,1.177-0.146,1.684-0.398c0.092-0.045,0.178-0.094,0.267-0.146c1.081-0.652,1.809-1.827,1.829-3.178
				c0-0.02,0.004-0.039,0.004-0.058C18.782,10.73,17.089,9.037,15,9.037z"/>
		</g>
	</g>
	<g>
		<path fill="#2CA8DF" d="M4.188,9.053c0-0.11,0.088-0.21,0.21-0.21h2.531c1.315,0,2.333,0.884,2.333,2.045
			c0,0.851-0.697,1.514-1.216,1.757c0.586,0.188,1.437,0.785,1.437,1.802c0,1.239-1.062,2.134-2.409,2.134H4.398
			c-0.122,0-0.21-0.103-0.21-0.211V9.053z M6.797,12.094c0.563,0,0.951-0.443,0.951-0.995c0-0.553-0.387-0.94-0.951-0.94H5.614
			v1.935H6.797z M6.952,15.276c0.553,0,0.995-0.43,0.995-1.006c0-0.553-0.553-0.961-1.127-0.961H5.614v1.967H6.952z"/>
	</g>
</g>
</svg>
