<?xml version="1.0" encoding="utf-8"?>
<!-- Generator: Adobe Illustrator 16.0.0, SVG Export Plug-In . SVG Version: 6.00 Build 0)  -->
<!DOCTYPE svg PUBLIC "-//W3C//DTD SVG 1.1//EN" "http://www.w3.org/Graphics/SVG/1.1/DTD/svg11.dtd">
<svg version="1.1" id="Layer_1" xmlns="http://www.w3.org/2000/svg" xmlns:xlink="http://www.w3.org/1999/xlink" x="0px" y="0px"
	 width="48px" height="48px" viewBox="0 0 48 48" enable-background="new 0 0 48 48" xml:space="preserve">
<path fill="#757575" d="M40.167,0H7.834C3.507,0,0,3.507,0,7.834v32.333C0,44.492,3.507,48,7.834,48h32.333
	C44.492,48,48,44.492,48,40.167V7.834C48,3.507,44.492,0,40.167,0z M26.302,39.786c0,1.274-1.033,2.308-2.307,2.308
	c-1.274,0-2.307-1.033-2.307-2.308V8.205c0-1.275,1.033-2.308,2.307-2.308c1.274,0,2.307,1.033,2.307,2.308V39.786z"/>
</svg>
