<?xml version="1.0" encoding="utf-8"?>
<!-- Generator: Adobe Illustrator 16.0.0, SVG Export Plug-In . SVG Version: 6.00 Build 0)  -->
<!DOCTYPE svg PUBLIC "-//W3C//DTD SVG 1.1//EN" "http://www.w3.org/Graphics/SVG/1.1/DTD/svg11.dtd">
<svg version="1.1" id="Layer_1" xmlns="http://www.w3.org/2000/svg" xmlns:xlink="http://www.w3.org/1999/xlink" x="0px" y="0px"
	 width="15.382px" height="10.875px" viewBox="0 0 15.382 10.875" enable-background="new 0 0 15.382 10.875" xml:space="preserve">
<g>
	<g>
		<path fill="#2F343D" d="M14.598,0.5c0.156,0,0.284,0.127,0.284,0.283v9.309c0,0.156-0.128,0.283-0.284,0.283H0.784
			c-0.157,0-0.284-0.127-0.284-0.283V0.783C0.5,0.627,0.627,0.5,0.784,0.5H14.598 M14.598,0H0.784C0.352,0,0,0.351,0,0.783v9.309
			c0,0.433,0.352,0.783,0.784,0.783h13.813c0.433,0,0.784-0.351,0.784-0.783V0.783C15.382,0.351,15.03,0,14.598,0L14.598,0z"/>
	</g>
	<path fill="#2F343D" d="M9.106,7.856c0,0.247,0.288,0.381,0.479,0.223l2.805-2.338c0.188-0.158,0.188-0.448,0-0.605L9.585,2.793
		c-0.19-0.154-0.479-0.016-0.479,0.228V3.92c0,0.219-0.177,0.396-0.396,0.396H3.274c-0.234,0-0.424,0.189-0.424,0.423v1.409
		c0,0.234,0.189,0.425,0.424,0.425H8.71c0.22,0,0.396,0.176,0.396,0.396V7.856z"/>
</g>
</svg>
