<?xml version="1.0" encoding="utf-8"?>
<!-- Generator: Adobe Illustrator 16.0.0, SVG Export Plug-In . SVG Version: 6.00 Build 0)  -->
<!DOCTYPE svg PUBLIC "-//W3C//DTD SVG 1.1//EN" "http://www.w3.org/Graphics/SVG/1.1/DTD/svg11.dtd">
<svg version="1.1" id="Layer_1" xmlns="http://www.w3.org/2000/svg" xmlns:xlink="http://www.w3.org/1999/xlink" x="0px" y="0px"
	 width="40px" height="40px" viewBox="-12.25 -12.25 40 40" enable-background="new -12.25 -12.25 40 40" xml:space="preserve">
<g display="none">
	<path display="inline" fill="#ADAFB0" d="M14.766,15.5H0.735c-0.401,0-0.726-0.324-0.726-0.727V5.949H15.49v8.824
		C15.491,15.176,15.166,15.5,14.766,15.5 M0.01,0.746c0-0.401,0.325-0.727,0.726-0.727h3.628L5.811,1.47h8.955
		c0.4,0,0.727,0.325,0.727,0.727v2.3H0.01V0.746z"/>
</g>
<g display="none">
	<g display="inline">
		<path fill="#ADAFB0" stroke="#ADAFB0" stroke-width="0.4" stroke-miterlimit="10" d="M4.285,6.51L3.446,7.162
			C3.354,7.231,3.26,7.243,3.179,7.15L2.958,6.905C2.876,6.813,2.922,6.707,2.981,6.649l1.63-1.584h0.315
			c0.116,0,0.209,0.104,0.209,0.222v7.477c0,0.116-0.094,0.221-0.209,0.221h-0.42c-0.127,0-0.221-0.104-0.221-0.221V6.51z"/>
		<path fill="#ADAFB0" stroke="#ADAFB0" stroke-width="0.4" stroke-miterlimit="10" d="M7.087,7.243
			c0-0.372,0.302-0.663,0.662-0.663c0.373,0,0.665,0.291,0.665,0.663c0,0.36-0.292,0.663-0.665,0.663
			C7.389,7.906,7.087,7.604,7.087,7.243z M7.749,10.143c0.373,0,0.665,0.291,0.665,0.664c0,0.361-0.292,0.664-0.665,0.664
			c-0.36,0-0.662-0.303-0.662-0.664C7.087,10.434,7.389,10.143,7.749,10.143z"/>
		<path fill="#ADAFB0" stroke="#ADAFB0" stroke-width="0.4" stroke-miterlimit="10" d="M11.039,6.51L10.2,7.162
			c-0.095,0.069-0.187,0.081-0.267-0.012L9.711,6.905C9.629,6.813,9.676,6.707,9.734,6.649l1.63-1.584h0.315
			c0.115,0,0.209,0.104,0.209,0.222v7.477c0,0.116-0.094,0.221-0.209,0.221h-0.421c-0.128,0-0.221-0.104-0.221-0.221L11.039,6.51
			L11.039,6.51z"/>
	</g>
	<path display="inline" fill="#ADAFB0" d="M14.766,15.5H0.735c-0.4,0-0.726-0.324-0.726-0.727V0.746
		c0-0.401,0.325-0.727,0.726-0.727h14.031c0.399,0,0.726,0.325,0.726,0.727v14.027C15.491,15.176,15.166,15.5,14.766,15.5
		 M1.461,0.746c-0.401,0-0.726,0.324-0.726,0.725c0,0.401,0.325,0.727,0.726,0.727c0.4,0,0.725-0.325,0.725-0.727
		C2.187,1.07,1.862,0.746,1.461,0.746 M3.638,0.746c-0.4,0-0.725,0.324-0.725,0.725c0,0.401,0.325,0.727,0.725,0.727
		c0.401,0,0.726-0.325,0.726-0.727C4.364,1.07,4.039,0.746,3.638,0.746 M5.815,0.746c-0.4,0-0.726,0.324-0.726,0.725
		c0,0.401,0.325,0.727,0.726,0.727s0.726-0.325,0.726-0.727C6.541,1.07,6.216,0.746,5.815,0.746 M14.305,3.313H1.196v11.072h13.109
		V3.313z"/>
</g>
<g display="none">
	<path display="inline" fill="#ADAFB0" d="M14.764,0.02H0.735c-0.4,0-0.726,0.325-0.726,0.727v14.028c0,0.4,0.325,0.726,0.726,0.726
		h14.029c0.401,0,0.728-0.324,0.728-0.726V0.746C15.491,0.345,15.166,0.02,14.764,0.02z M14.04,7.034H8.477V1.471h5.563L14.04,7.034
		L14.04,7.034z M7.024,1.471v5.563H1.461V1.471H7.024z M1.461,8.486h5.563v5.563H1.461V8.486z M8.477,14.049V8.486h5.563v5.563
		H8.477z"/>
</g>
<g display="none">
	<path display="inline" fill="#ADAFB0" d="M15.491,14.049c0,0.803-0.649,1.451-1.451,1.451c-0.401,0-0.765-0.162-1.026-0.425
		L8.76,10.822c-0.864,0.51-1.869,0.809-2.945,0.809c-3.207,0-5.806-2.6-5.806-5.806s2.6-5.805,5.806-5.805
		c3.207,0,5.805,2.6,5.805,5.806c0,1.076-0.298,2.08-0.808,2.943l4.252,4.254C15.329,13.285,15.491,13.648,15.491,14.049
		 M5.815,1.471c-2.405,0-4.354,1.95-4.354,4.354c0,2.404,1.949,4.354,4.354,4.354c2.405,0,4.354-1.95,4.354-4.354
		C10.169,3.42,8.22,1.471,5.815,1.471 M8.234,6.551H3.396c-0.4,0-0.725-0.324-0.725-0.726c0-0.402,0.325-0.725,0.725-0.725h4.838
		c0.4,0,0.725,0.324,0.725,0.726C8.959,6.228,8.635,6.551,8.234,6.551"/>
</g>
<g display="none">
	<path display="inline" fill="#ADAFB0" d="M15.491,14.049c0,0.803-0.649,1.451-1.451,1.451c-0.401,0-0.765-0.162-1.026-0.425
		L8.76,10.822c-0.865,0.51-1.869,0.809-2.945,0.809c-3.206,0-5.805-2.6-5.805-5.806S2.609,0.02,5.815,0.02
		c3.207,0,5.806,2.6,5.806,5.806c0,1.076-0.298,2.08-0.809,2.943l4.254,4.254C15.329,13.285,15.491,13.648,15.491,14.049
		 M5.815,1.471c-2.405,0-4.354,1.95-4.354,4.354c0,2.404,1.949,4.354,4.354,4.354c2.405,0,4.354-1.95,4.354-4.354
		C10.169,3.42,8.22,1.471,5.815,1.471 M8.234,6.551H6.541v1.693c0,0.4-0.325,0.727-0.726,0.727S5.09,8.645,5.09,8.244V6.551H3.396
		c-0.401,0-0.726-0.324-0.726-0.726C2.67,5.423,2.996,5.1,3.396,5.1H5.09V3.406c0-0.4,0.324-0.727,0.725-0.727
		s0.726,0.326,0.726,0.727V5.1h1.693c0.4,0,0.725,0.324,0.725,0.726C8.959,6.228,8.635,6.551,8.234,6.551"/>
</g>
<g display="none">
	<path display="inline" fill="#ADAFB0" d="M14.764,0.02H0.735c-0.401,0-0.726,0.325-0.726,0.727v14.028
		c0,0.4,0.325,0.726,0.726,0.726h14.029c0.401,0,0.727-0.324,0.727-0.726V0.746C15.49,0.345,15.166,0.02,14.764,0.02z
		 M14.281,14.291H1.219V1.229h13.063V14.291z"/>
	<path display="inline" fill="#ADAFB0" d="M7.85,11.484h-0.2c-0.422,0-0.765,0.344-0.765,0.766s0.343,0.766,0.765,0.766h0.2
		c0.423,0,0.765-0.344,0.765-0.766S8.273,11.484,7.85,11.484z"/>
	<path display="inline" fill="#ADAFB0" d="M7.75,2.829c-1.484,0-2.691,1.207-2.691,2.69c0,0.334,0.271,0.605,0.605,0.605
		s0.604-0.271,0.604-0.605c0-0.816,0.665-1.48,1.482-1.48c0.816,0,1.48,0.664,1.48,1.48c0,0.818-0.664,1.482-1.48,1.482
		c-0.334,0-0.605,0.271-0.605,0.604v2.601c0,0.334,0.271,0.604,0.605,0.604c0.333,0,0.604-0.271,0.604-0.604V8.143
		c1.194-0.275,2.086-1.347,2.086-2.623C10.441,4.036,9.234,2.829,7.75,2.829z"/>
</g>
<g>
	<path fill="#ADAFB0" d="M7.107,22.77l-2.565-2.565c-0.355-0.353-0.355-0.93,0-1.282c0.355-0.354,0.926-0.354,1.283,0l1.017,1.021
		v-6.378l0,0c0.002-0.231,0.095-0.456,0.266-0.629c0.355-0.358,0.928-0.358,1.281,0c0.172,0.173,0.263,0.397,0.268,0.629V13.56
		v6.379l1.02-1.019c0.355-0.354,0.93-0.354,1.287,0c0.352,0.354,0.352,0.93,0,1.282l-2.571,2.565
		C8.035,23.124,7.462,23.124,7.107,22.77 M15.663,14.219c-0.359-0.354-0.359-0.925,0-1.283l1.018-1.02h-6.382l0,0
		c-0.227-0.002-0.453-0.09-0.627-0.267c-0.354-0.351-0.354-0.922,0-1.28c0.174-0.174,0.4-0.262,0.627-0.268l0,0h6.376l-1.012-1.014
		c-0.359-0.355-0.359-0.929,0-1.284c0.352-0.356,0.922-0.356,1.281,0l2.561,2.565c0.359,0.358,0.359,0.93,0,1.28l-2.561,2.569
		C16.585,14.575,16.013,14.575,15.663,14.219 M5.197,11.916h-6.379l1.019,1.02c0.356,0.358,0.356,0.929,0,1.283
		c-0.354,0.356-0.926,0.356-1.284,0l-2.562-2.569c-0.358-0.351-0.358-0.922,0-1.28l2.562-2.565c0.358-0.356,0.93-0.356,1.284,0
		c0.356,0.355,0.356,0.928,0,1.284l-1.019,1.014h6.379v0.006c0.228,0,0.454,0.088,0.628,0.262c0.356,0.358,0.356,0.93,0,1.28
		C5.65,11.826,5.424,11.914,5.197,11.916L5.197,11.916z M7.107,9.088C6.932,8.911,6.844,8.684,6.839,8.457l0,0V2.081L5.825,3.095
		c-0.357,0.36-0.928,0.36-1.283,0c-0.355-0.353-0.355-0.924,0-1.282l2.565-2.565c0.355-0.354,0.928-0.354,1.281,0l2.572,2.565
		c0.352,0.358,0.352,0.93,0,1.282c-0.36,0.36-0.933,0.36-1.288,0L8.655,2.081V8.46l0,0C8.65,8.684,8.56,8.914,8.388,9.088
		C8.035,9.441,7.462,9.441,7.107,9.088"/>
	<path fill="#ADAFB0" d="M25.818,27.693h-36.14c-1.034,0-1.871-0.835-1.871-1.87v-36.143c0-1.031,0.837-1.874,1.871-1.874h36.14
		c1.033,0,1.875,0.842,1.875,1.874v36.143C27.693,26.858,26.852,27.693,25.818,27.693 M-8.454-10.319
		c-1.033,0-1.871,0.84-1.871,1.871s0.835,1.874,1.871,1.874c1.029,0,1.871-0.84,1.871-1.874C-6.583-9.479-7.422-10.319-8.454-10.319
		 M-2.844-10.319c-1.032,0-1.87,0.84-1.87,1.871s0.836,1.874,1.87,1.874c1.03,0,1.871-0.84,1.871-1.874
		C-0.976-9.479-1.814-10.319-2.844-10.319 M2.763-10.319c-1.031,0-1.868,0.84-1.868,1.871s0.834,1.874,1.868,1.874
		s1.874-0.84,1.874-1.874C4.634-9.479,3.794-10.319,2.763-10.319 M24.632-3.709H-9.136v28.531h33.772V-3.709H24.632z"/>
</g>
</svg>
