<?xml version="1.0" encoding="utf-8"?>
<!-- Generator: Adobe Illustrator 16.0.0, SVG Export Plug-In . SVG Version: 6.00 Build 0)  -->
<!DOCTYPE svg PUBLIC "-//W3C//DTD SVG 1.1//EN" "http://www.w3.org/Graphics/SVG/1.1/DTD/svg11.dtd">
<svg version="1.1" id="Layer_1" xmlns="http://www.w3.org/2000/svg" xmlns:xlink="http://www.w3.org/1999/xlink" x="0px" y="0px"
	 width="30px" height="30px" viewBox="0 0 30 30" enable-background="new 0 0 30 30" xml:space="preserve">
<g>
	<g>
		<path fill="#3F434E" d="M28.721,16.977c0.571-0.101,0.99-0.6,0.99-1.178v-1.673c0-0.578-0.422-1.074-0.992-1.167l-2.395-0.394
			c-0.6-0.099-1.078-0.542-1.279-1.112c-0.12-0.345-0.257-0.679-0.411-1.004c-0.269-0.573-0.292-1.256,0.07-1.772l1.399-1.994
			c0.334-0.476,0.276-1.123-0.133-1.533L24.79,3.97c-0.41-0.41-1.058-0.461-1.526-0.124l-1.961,1.41
			c-0.49,0.352-1.139,0.378-1.68,0.115c-0.327-0.157-0.661-0.298-1.005-0.424c-0.601-0.218-1.115-0.681-1.228-1.312l-0.416-2.379
			c-0.101-0.571-0.6-0.989-1.18-0.989h-1.672c-0.578,0-1.072,0.42-1.166,0.992l-0.386,2.36c-0.099,0.601-0.55,1.078-1.124,1.276
			c-0.346,0.122-0.683,0.257-1.012,0.412C9.863,5.575,9.18,5.602,8.663,5.232l-1.947-1.39C6.245,3.507,5.597,3.56,5.188,3.97
			L4.005,5.15c-0.41,0.41-0.467,1.058-0.133,1.533l1.366,1.955c0.348,0.496,0.37,1.148,0.105,1.694
			c-0.179,0.367-0.337,0.748-0.474,1.139c-0.197,0.564-0.677,0.996-1.268,1.095l-2.344,0.391c-0.571,0.095-0.991,0.592-0.991,1.17
			V15.8c0,0.578,0.417,1.077,0.989,1.181L3.6,17.393c0.602,0.105,1.075,0.563,1.277,1.142c0.122,0.348,0.261,0.685,0.417,1.015
			c0.271,0.573,0.301,1.26-0.067,1.776L3.84,23.262c-0.337,0.471-0.282,1.118,0.126,1.529l1.184,1.184
			c0.41,0.408,1.058,0.467,1.534,0.133l1.958-1.373c0.496-0.346,1.147-0.37,1.693-0.107c0.327,0.157,0.662,0.296,1.006,0.421
			c0.602,0.218,1.114,0.681,1.219,1.312l0.396,2.365c0.095,0.57,0.591,0.99,1.169,0.99h1.672c0.58,0,1.08-0.418,1.182-0.988
			l0.422-2.381c0.105-0.602,0.558-1.076,1.132-1.281c0.345-0.121,0.679-0.26,1.006-0.418c0.573-0.271,1.257-0.299,1.774,0.065
			l1.986,1.396c0.477,0.332,1.123,0.276,1.534-0.133l1.181-1.183c0.408-0.411,0.461-1.06,0.123-1.526l-1.418-1.97
			c-0.352-0.487-0.382-1.135-0.123-1.678c0.156-0.324,0.297-0.658,0.42-0.999c0.215-0.602,0.678-1.114,1.308-1.223L28.721,16.977z
			 M14.989,20.123c-2.834,0-5.132-2.295-5.132-5.133c0-2.833,2.298-5.131,5.132-5.131c2.834,0,5.133,2.298,5.133,5.131
			C20.122,17.828,17.823,20.123,14.989,20.123z"/>
	</g>
</g>
</svg>
