<?xml version="1.0" encoding="utf-8"?>
<!-- Generator: Adobe Illustrator 16.0.0, SVG Export Plug-In . SVG Version: 6.00 Build 0)  -->
<!DOCTYPE svg PUBLIC "-//W3C//DTD SVG 1.1//EN" "http://www.w3.org/Graphics/SVG/1.1/DTD/svg11.dtd">
<svg version="1.1" id="Layer_1" xmlns="http://www.w3.org/2000/svg" xmlns:xlink="http://www.w3.org/1999/xlink" x="0px" y="0px"
	 width="48px" height="48px" viewBox="0 0 48 48" enable-background="new 0 0 48 48" xml:space="preserve">
<g display="none">
	<g display="inline">
		<g>
			<g>
				<path fill="#333333" d="M33.938,7.191h-5.91c-0.266,0-0.508,0.159-0.609,0.406c-0.102,0.248-0.045,0.531,0.145,0.719
					l1.967,1.971l-2.898,2.9c-0.18,0.182-0.18,0.475,0,0.657l1.314,1.315c0.181,0.178,0.478,0.178,0.656,0l2.899-2.902l1.972,1.971
					c0.125,0.125,0.293,0.193,0.467,0.193c0.084,0,0.168-0.017,0.25-0.052c0.246-0.103,0.408-0.343,0.408-0.61V7.851
					C34.596,7.488,34.302,7.191,33.938,7.191z M18.451,10.286l1.97-1.97c0.126-0.128,0.193-0.294,0.193-0.465
					c0-0.086-0.017-0.169-0.049-0.253c-0.101-0.244-0.344-0.406-0.611-0.406h-5.91c-0.364,0-0.66,0.296-0.66,0.66v5.909
					c0,0.267,0.16,0.507,0.407,0.61c0.244,0.103,0.532,0.045,0.718-0.141l1.969-1.971l2.901,2.902c0.18,0.178,0.476,0.178,0.658,0
					l1.314-1.315c0.179-0.18,0.179-0.475,0.001-0.657L18.451,10.286z M20.038,20.436c-0.181-0.181-0.478-0.181-0.658-0.001
					l-2.901,2.903l-1.969-1.971c-0.127-0.126-0.293-0.193-0.466-0.193c-0.086,0-0.171,0.016-0.252,0.049
					c-0.245,0.103-0.407,0.343-0.407,0.611v5.909c0,0.364,0.295,0.659,0.66,0.659h5.91c0.267,0,0.51-0.159,0.611-0.406
					s0.044-0.53-0.144-0.721l-1.97-1.969l2.901-2.897c0.179-0.181,0.179-0.476,0-0.658L20.038,20.436z M34.188,21.223
					c-0.246-0.101-0.528-0.044-0.717,0.144L31.5,23.338l-2.9-2.902c-0.179-0.179-0.474-0.179-0.656,0l-1.313,1.316
					c-0.181,0.181-0.181,0.477-0.001,0.658l2.9,2.898l-1.969,1.967c-0.127,0.129-0.193,0.297-0.193,0.469
					c0,0.084,0.016,0.171,0.051,0.253c0.102,0.247,0.344,0.407,0.609,0.407h5.91c0.364,0,0.658-0.295,0.658-0.66v-5.909
					C34.596,21.566,34.438,21.326,34.188,21.223z"/>
			</g>
		</g>
		<path fill="#333333" d="M38.146,3.64v28.314H9.833V3.64H38.146 M40.68,0.475H7.301c-0.35,0-0.633,0.283-0.633,0.633v33.378
			c0,0.351,0.283,0.634,0.633,0.634h33.377c0.352,0,0.633-0.283,0.633-0.634V1.108C41.313,0.758,41.029,0.475,40.68,0.475
			L40.68,0.475z"/>
	</g>
</g>
<g display="none">
	<g display="inline">
		<g>
			<g>
				<path fill="#333333" d="M0.633,16.306C0.283,16.306,0,16.589,0,16.939v1.715c0,0.35,0.283,0.633,0.633,0.633h7.66v-2.981H0.633z
					"/>
				<path fill="#333333" d="M47.346,16.306H23.921v2.981h23.425c0.35,0,0.633-0.283,0.633-0.633v-1.715
					C47.979,16.589,47.695,16.306,47.346,16.306z"/>
			</g>
			<path fill="#333333" d="M16.296,8.406c-5.186,0-9.39,4.204-9.39,9.391c0,5.186,4.204,9.389,9.39,9.389s9.39-4.204,9.39-9.389
				C25.686,12.61,21.482,8.406,16.296,8.406L16.296,8.406z"/>
		</g>
		<path fill="#333333" d="M17.788,10.369V1.084c0-0.351-0.285-0.633-0.633-0.633h-1.716c-0.349,0-0.633,0.282-0.633,0.633v9.284"/>
		<path fill="#333333" d="M14.805,34.509c0,0.351,0.284,0.634,0.633,0.634h1.716c0.349,0,0.633-0.283,0.633-0.634v-8.907h-2.982
			V34.509z"/>
	</g>
</g>
<path display="none" fill="#333333" d="M6.687,0.494V35.1h34.606V0.494H6.687z M38.073,10.952h-7.24V3.713h7.24V10.952z
	 M20.365,21.421v-7.25h7.248v7.25H20.365z M27.613,24.641v7.239h-7.248v-7.239H27.613z M17.147,21.421h-7.24v-7.25h7.24V21.421z
	 M20.365,10.952V3.713h7.248v7.239H20.365z M30.833,14.172h7.24v7.25h-7.24V14.172L30.833,14.172z M17.147,3.713v7.239h-7.24V3.713
	H17.147z M9.907,24.641h7.24v7.239h-7.24V24.641z M30.833,31.88v-7.239h7.24v7.239H30.833z"/>
<path display="none" fill="#333333" d="M41.177,0.452H6.803c-0.35,0-0.633,0.283-0.633,0.633V2.8c0,0.35,0.283,0.633,0.633,0.633
	h34.374c0.351,0,0.634-0.283,0.634-0.633V1.084C41.811,0.735,41.527,0.452,41.177,0.452z M41.177,32.161H6.803
	c-0.35,0-0.633,0.282-0.633,0.633v1.715c0,0.351,0.283,0.634,0.633,0.634h34.374c0.351,0,0.634-0.283,0.634-0.634v-1.715
	C41.811,32.443,41.527,32.161,41.177,32.161z M16.366,22.794c-0.249,0-0.381,0.291-0.219,0.479l3.635,4.204l3.635,4.207
	c0.219,0.252,0.609,0.252,0.828,0l3.635-4.207l3.638-4.204c0.162-0.188,0.028-0.479-0.22-0.479h-5.646V12.8h5.646
	c0.248,0,0.382-0.292,0.22-0.479L27.88,8.116l-3.635-4.205c-0.218-0.252-0.609-0.252-0.828,0l-3.634,4.205l-3.636,4.205
	c-0.162,0.187-0.029,0.479,0.219,0.479h5.64v9.994H16.366z"/>
<g>
	<path fill="#757575" d="M3.874,47.178C3.874,47.631,3.508,48,3.051,48H0.824C0.367,48,0,47.631,0,47.178V0.823
		C0,0.366,0.367,0,0.824,0h2.227c0.457,0,0.823,0.366,0.823,0.823V47.178z"/>
	<path fill="#757575" d="M48,47.178C48,47.631,47.635,48,47.178,48H44.95c-0.457,0-0.823-0.369-0.823-0.822V0.823
		C44.127,0.366,44.493,0,44.95,0h2.228C47.635,0,48,0.366,48,0.823V47.178z"/>
	<path fill="#757575" d="M24.096,9.693c0.08-0.246,0.427-0.246,0.507,0l3.345,10.291c0.075,0.231,0.294,0.39,0.538,0.391h10.82
		c0.258,0,0.365,0.332,0.156,0.484l-8.756,6.358c-0.195,0.145-0.279,0.401-0.205,0.633l3.346,10.289
		c0.078,0.248-0.203,0.451-0.412,0.301l-8.754-6.359c-0.197-0.143-0.467-0.143-0.665,0l-8.753,6.359
		c-0.209,0.152-0.49-0.051-0.412-0.301l3.345-10.289c0.074-0.23-0.01-0.488-0.206-0.633l-8.755-6.358
		c-0.208-0.152-0.102-0.484,0.158-0.484h10.819c0.245,0,0.463-0.159,0.54-0.391L24.096,9.693z"/>
</g>
</svg>
