<?xml version="1.0" encoding="utf-8"?>
<!-- Generator: Adobe Illustrator 16.0.0, SVG Export Plug-In . SVG Version: 6.00 Build 0)  -->
<!DOCTYPE svg PUBLIC "-//W3C//DTD SVG 1.1//EN" "http://www.w3.org/Graphics/SVG/1.1/DTD/svg11.dtd">
<svg version="1.1" id="Layer_1" xmlns="http://www.w3.org/2000/svg" xmlns:xlink="http://www.w3.org/1999/xlink" x="0px" y="0px"
	 width="30px" height="30px" viewBox="0 0 30 30" enable-background="new 0 0 30 30" xml:space="preserve">
<g>
	<g>
		<g>
			<path fill="#4A5261" d="M27.192,29.992H2.791C1.252,29.992,0,28.741,0,27.203V2.79C0,1.251,1.252,0,2.791,0h24.401
				c1.539,0,2.791,1.251,2.791,2.79v24.414C29.983,28.741,28.731,29.992,27.192,29.992z M2.791,2.216
				c-0.316,0-0.575,0.257-0.575,0.573v24.414c0,0.315,0.259,0.572,0.575,0.572h24.401c0.317,0,0.575-0.257,0.575-0.572V2.79
				c0-0.316-0.258-0.573-0.575-0.573H2.791z"/>
		</g>
	</g>
	<g>
		<g>
			<path fill="#8992A4" d="M13.94,13.366c0,0.32-0.26,0.578-0.577,0.578H7.279c-0.317,0-0.58-0.258-0.58-0.578V7.282
				c0-0.319,0.263-0.579,0.58-0.579h6.084c0.317,0,0.577,0.26,0.577,0.579V13.366z"/>
		</g>
		<g>
			<path fill="#8992A4" d="M23.285,13.366c0,0.32-0.26,0.578-0.577,0.578h-6.084c-0.32,0-0.578-0.258-0.578-0.578V7.282
				c0-0.319,0.258-0.579,0.578-0.579h6.084c0.317,0,0.577,0.26,0.577,0.579V13.366z"/>
		</g>
		<g>
			<path fill="#8992A4" d="M23.285,22.711c0,0.32-0.26,0.579-0.577,0.579h-6.084c-0.32,0-0.578-0.259-0.578-0.579v-6.083
				c0-0.319,0.258-0.577,0.578-0.577h6.084c0.317,0,0.577,0.258,0.577,0.577V22.711z"/>
		</g>
		<g>
			<path fill="#8992A4" d="M13.94,22.711c0,0.32-0.26,0.579-0.577,0.579H7.279c-0.317,0-0.58-0.259-0.58-0.579v-6.083
				c0-0.319,0.263-0.577,0.58-0.577h6.084c0.317,0,0.577,0.258,0.577,0.577V22.711z"/>
		</g>
	</g>
</g>
</svg>
