<?xml version="1.0" encoding="utf-8"?>
<!-- Generator: Adobe Illustrator 16.0.0, SVG Export Plug-In . SVG Version: 6.00 Build 0)  -->
<!DOCTYPE svg PUBLIC "-//W3C//DTD SVG 1.1//EN" "http://www.w3.org/Graphics/SVG/1.1/DTD/svg11.dtd">
<svg version="1.1" id="Layer_1" xmlns="http://www.w3.org/2000/svg" xmlns:xlink="http://www.w3.org/1999/xlink" x="0px" y="0px"
	 width="40px" height="40px" viewBox="-12.25 -12.25 40 40" enable-background="new -12.25 -12.25 40 40" xml:space="preserve">
<g display="none">
	<path display="inline" fill="#ADAFB0" d="M14.766,15.5H0.735c-0.401,0-0.726-0.324-0.726-0.727V5.949H15.49v8.824
		C15.491,15.176,15.166,15.5,14.766,15.5 M0.01,0.746c0-0.401,0.325-0.727,0.726-0.727h3.628L5.811,1.47h8.955
		c0.4,0,0.727,0.325,0.727,0.727v2.3H0.01V0.746z"/>
</g>
<path fill="#ADAFB0" d="M-4.395,6.528c0.25,0.289,0.53,0.35,0.721,0.35c0.225,0,0.447-0.083,0.669-0.25l1.329-1.032v15.032
	c0,0.598,0.486,1.083,1.083,1.083h1.08c0.57,0,1.052-0.495,1.052-1.083V1.401c0-0.599-0.472-1.086-1.052-1.086h-1.019l-4.344,4.222
	c-0.345,0.339-0.483,0.918-0.081,1.369L-4.395,6.528z M7.748,17.818c1.227,0,2.225-0.997,2.225-2.223
	c0-1.245-0.979-2.223-2.225-2.223c-1.223,0-2.218,0.997-2.218,2.223C5.53,16.802,6.546,17.818,7.748,17.818z M7.748,8.651
	c1.227,0,2.225-0.996,2.225-2.22c0-1.245-0.979-2.22-2.225-2.22c-1.223,0-2.218,0.996-2.218,2.22
	C5.53,7.635,6.546,8.651,7.748,8.651z M12.977,6.527c0.249,0.29,0.527,0.352,0.718,0.352c0.219,0,0.442-0.08,0.674-0.25l1.323-1.03
	v15.03c0,0.598,0.484,1.083,1.082,1.083h1.083c0.57,0,1.053-0.495,1.053-1.083V1.401c0-0.599-0.473-1.086-1.053-1.086h-1.02
	l-4.345,4.223c-0.399,0.396-0.435,0.972-0.081,1.369L12.977,6.527z M25.793-12.147h-36.084c-1.031,0-1.867,0.839-1.867,1.87v36.076
	c0,1.035,0.839,1.868,1.867,1.868h36.084c1.029,0,1.866-0.833,1.866-1.868v-36.076C27.659-11.313,26.82-12.147,25.793-12.147z
	 M2.773-10.278c1.031,0,1.867,0.833,1.867,1.865c0,1.033-0.836,1.87-1.867,1.87c-1.031,0-1.867-0.839-1.867-1.87
	C0.906-9.445,1.745-10.278,2.773-10.278z M-2.825-10.278c1.031,0,1.867,0.833,1.867,1.865c0,1.033-0.836,1.87-1.867,1.87
	c-1.03,0-1.865-0.839-1.865-1.87C-4.689-9.445-3.854-10.278-2.825-10.278z M-10.292-8.413c0-1.032,0.836-1.865,1.867-1.865
	c1.031,0,1.867,0.833,1.865,1.865c0,1.033-0.836,1.87-1.865,1.87C-9.455-6.543-10.292-7.382-10.292-8.413z M24.607,24.799H-9.106
	V-3.676h33.713V24.799z"/>
<g display="none">
	<path display="inline" fill="#ADAFB0" d="M14.764,0.02H0.735c-0.4,0-0.726,0.325-0.726,0.727v14.028c0,0.4,0.325,0.726,0.726,0.726
		h14.029c0.401,0,0.728-0.324,0.728-0.726V0.746C15.491,0.345,15.166,0.02,14.764,0.02z M14.04,7.034H8.477V1.471h5.563L14.04,7.034
		L14.04,7.034z M7.024,1.471v5.563H1.461V1.471H7.024z M1.461,8.486h5.563v5.563H1.461V8.486z M8.477,14.049V8.486h5.563v5.563
		H8.477z"/>
</g>
<g display="none">
	<path display="inline" fill="#ADAFB0" d="M15.491,14.049c0,0.803-0.649,1.451-1.451,1.451c-0.401,0-0.765-0.162-1.026-0.425
		L8.76,10.822c-0.864,0.51-1.869,0.809-2.945,0.809c-3.207,0-5.806-2.6-5.806-5.806s2.6-5.805,5.806-5.805
		c3.207,0,5.805,2.6,5.805,5.806c0,1.076-0.298,2.08-0.808,2.943l4.252,4.254C15.329,13.285,15.491,13.648,15.491,14.049
		 M5.815,1.471c-2.405,0-4.354,1.95-4.354,4.354c0,2.404,1.949,4.354,4.354,4.354c2.405,0,4.354-1.95,4.354-4.354
		C10.169,3.42,8.22,1.471,5.815,1.471 M8.234,6.551H3.396c-0.4,0-0.725-0.324-0.725-0.726c0-0.402,0.325-0.725,0.725-0.725h4.838
		c0.4,0,0.725,0.324,0.725,0.726C8.959,6.228,8.635,6.551,8.234,6.551"/>
</g>
<g display="none">
	<path display="inline" fill="#ADAFB0" d="M15.491,14.049c0,0.803-0.649,1.451-1.451,1.451c-0.401,0-0.765-0.162-1.026-0.425
		L8.76,10.822c-0.865,0.51-1.869,0.809-2.945,0.809c-3.206,0-5.805-2.6-5.805-5.806S2.609,0.02,5.815,0.02
		c3.207,0,5.806,2.6,5.806,5.806c0,1.076-0.298,2.08-0.809,2.943l4.254,4.254C15.329,13.285,15.491,13.648,15.491,14.049
		 M5.815,1.471c-2.405,0-4.354,1.95-4.354,4.354c0,2.404,1.949,4.354,4.354,4.354c2.405,0,4.354-1.95,4.354-4.354
		C10.169,3.42,8.22,1.471,5.815,1.471 M8.234,6.551H6.541v1.693c0,0.4-0.325,0.727-0.726,0.727S5.09,8.645,5.09,8.244V6.551H3.396
		c-0.401,0-0.726-0.324-0.726-0.726C2.67,5.423,2.996,5.1,3.396,5.1H5.09V3.406c0-0.4,0.324-0.727,0.725-0.727
		s0.726,0.326,0.726,0.727V5.1h1.693c0.4,0,0.725,0.324,0.725,0.726C8.959,6.228,8.635,6.551,8.234,6.551"/>
</g>
<g display="none">
	<path display="inline" fill="#ADAFB0" d="M14.764,0.02H0.735c-0.401,0-0.726,0.325-0.726,0.727v14.028
		c0,0.4,0.325,0.726,0.726,0.726h14.029c0.401,0,0.727-0.324,0.727-0.726V0.746C15.49,0.345,15.166,0.02,14.764,0.02z
		 M14.281,14.291H1.219V1.229h13.063V14.291z"/>
	<path display="inline" fill="#ADAFB0" d="M7.85,11.484h-0.2c-0.422,0-0.765,0.344-0.765,0.766s0.343,0.766,0.765,0.766h0.2
		c0.423,0,0.765-0.344,0.765-0.766S8.273,11.484,7.85,11.484z"/>
	<path display="inline" fill="#ADAFB0" d="M7.75,2.829c-1.484,0-2.691,1.207-2.691,2.69c0,0.334,0.271,0.605,0.605,0.605
		s0.604-0.271,0.604-0.605c0-0.816,0.665-1.48,1.482-1.48c0.816,0,1.48,0.664,1.48,1.48c0,0.818-0.664,1.482-1.48,1.482
		c-0.334,0-0.605,0.271-0.605,0.604v2.601c0,0.334,0.271,0.604,0.605,0.604c0.333,0,0.604-0.271,0.604-0.604V8.143
		c1.194-0.275,2.086-1.347,2.086-2.623C10.441,4.036,9.234,2.829,7.75,2.829z"/>
</g>
<g display="none">
	<path display="inline" fill="#ADAFB0" d="M7.5,13.587L6.503,12.59c-0.138-0.137-0.138-0.361,0-0.498
		c0.138-0.138,0.36-0.138,0.499,0l0.395,0.396V10.01l0,0C7.398,9.92,7.434,9.832,7.5,9.766c0.138-0.14,0.361-0.14,0.498,0
		C8.065,9.832,8.1,9.92,8.102,10.01v-0.002v2.479l0.396-0.396c0.138-0.138,0.361-0.138,0.5,0c0.137,0.138,0.137,0.361,0,0.498
		l-0.999,0.997C7.861,13.725,7.638,13.725,7.5,13.587 M10.825,10.264c-0.14-0.138-0.14-0.359,0-0.498l0.396-0.396H8.74l0,0
		C8.652,9.368,8.564,9.334,8.497,9.266c-0.138-0.137-0.138-0.358,0-0.498C8.564,8.7,8.652,8.666,8.74,8.664l0,0h2.479L10.825,8.27
		c-0.14-0.138-0.14-0.36,0-0.499c0.137-0.138,0.358-0.138,0.498,0l0.995,0.997c0.14,0.14,0.14,0.361,0,0.498l-0.995,0.998
		C11.184,10.402,10.961,10.402,10.825,10.264 M6.758,9.369H4.279l0.396,0.396c0.138,0.139,0.138,0.36,0,0.498
		c-0.138,0.139-0.36,0.139-0.499,0L3.18,9.266c-0.139-0.137-0.139-0.358,0-0.498l0.996-0.997c0.139-0.138,0.361-0.138,0.499,0
		c0.138,0.138,0.138,0.361,0,0.499L4.279,8.664h2.479v0.002c0.088,0,0.176,0.034,0.244,0.102c0.138,0.14,0.138,0.361,0,0.498
		C6.934,9.334,6.846,9.368,6.758,9.369L6.758,9.369z M7.5,8.27C7.432,8.201,7.398,8.113,7.396,8.025l0,0V5.547L7.002,5.941
		c-0.139,0.14-0.361,0.14-0.499,0c-0.138-0.137-0.138-0.359,0-0.498L7.5,4.446c0.138-0.138,0.361-0.138,0.498,0l0.999,0.997
		c0.137,0.139,0.137,0.361,0,0.498c-0.14,0.14-0.362,0.14-0.5,0L8.102,5.547v2.479l0,0C8.1,8.113,8.065,8.202,7.998,8.27
		C7.861,8.407,7.638,8.407,7.5,8.27"/>
	<path display="inline" fill="#ADAFB0" d="M14.771,15.5H0.727C0.325,15.5,0,15.176,0,14.773V0.728C0,0.327,0.325,0,0.727,0h14.044
		C15.173,0,15.5,0.327,15.5,0.728v14.045C15.5,15.176,15.173,15.5,14.771,15.5 M1.453,0.728c-0.401,0-0.727,0.326-0.727,0.727
		s0.325,0.728,0.727,0.728c0.4,0,0.727-0.326,0.727-0.728C2.18,1.054,1.854,0.728,1.453,0.728 M3.633,0.728
		c-0.401,0-0.727,0.326-0.727,0.727s0.325,0.728,0.727,0.728c0.4,0,0.727-0.326,0.727-0.728C4.359,1.054,4.033,0.728,3.633,0.728
		 M5.812,0.728c-0.401,0-0.726,0.326-0.726,0.727S5.41,2.183,5.812,2.183S6.54,1.857,6.54,1.455
		C6.539,1.054,6.213,0.728,5.812,0.728 M14.311,3.297H1.188v11.088h13.125V3.297H14.311z"/>
</g>
</svg>
