<?xml version="1.0" encoding="utf-8"?>
<!-- Generator: Adobe Illustrator 16.0.0, SVG Export Plug-In . SVG Version: 6.00 Build 0)  -->
<!DOCTYPE svg PUBLIC "-//W3C//DTD SVG 1.1//EN" "http://www.w3.org/Graphics/SVG/1.1/DTD/svg11.dtd">
<svg version="1.1" id="Layer_1" xmlns="http://www.w3.org/2000/svg" xmlns:xlink="http://www.w3.org/1999/xlink" x="0px" y="0px"
	 width="30px" height="30px" viewBox="0 0 30 30" enable-background="new 0 0 30 30" xml:space="preserve">
<g>
	<path fill="#E3E6EA" d="M28.959,17.006c0.582-0.102,1.008-0.607,1.008-1.199v-1.701c0-0.589-0.428-1.093-1.01-1.188l-2.437-0.4
		c-0.61-0.1-1.097-0.551-1.302-1.134c-0.123-0.349-0.262-0.688-0.418-1.02c-0.274-0.583-0.299-1.278,0.071-1.805l1.424-2.03
		c0.339-0.483,0.282-1.143-0.135-1.56l-1.202-1.201c-0.417-0.417-1.075-0.469-1.554-0.125l-1.996,1.434
		c-0.498,0.359-1.157,0.387-1.71,0.119c-0.331-0.16-0.672-0.304-1.021-0.431c-0.612-0.222-1.136-0.693-1.249-1.334l-0.425-2.421
		C16.904,0.426,16.396,0,15.806,0h-1.701c-0.589,0-1.093,0.429-1.188,1.01l-0.393,2.403c-0.1,0.611-0.558,1.096-1.144,1.299
		c-0.352,0.123-0.695,0.261-1.03,0.418c-0.583,0.272-1.28,0.297-1.805-0.077L6.564,3.64C6.084,3.297,5.425,3.352,5.008,3.769
		L3.806,4.97C3.388,5.387,3.33,6.047,3.669,6.531l1.392,1.99c0.354,0.505,0.375,1.168,0.107,1.723
		c-0.182,0.375-0.343,0.761-0.481,1.159c-0.201,0.577-0.689,1.016-1.291,1.115L1.01,12.915c-0.582,0.097-1.009,0.601-1.009,1.19
		v1.701c0,0.592,0.426,1.098,1.007,1.201l2.384,0.422c0.612,0.107,1.095,0.574,1.3,1.162c0.124,0.354,0.266,0.697,0.424,1.031
		c0.276,0.584,0.306,1.283-0.07,1.809l-1.411,1.973c-0.342,0.479-0.288,1.139,0.129,1.555l1.203,1.203
		c0.418,0.418,1.077,0.477,1.562,0.137l1.994-1.396c0.504-0.352,1.167-0.377,1.723-0.111c0.333,0.16,0.674,0.303,1.023,0.43
		c0.612,0.221,1.135,0.691,1.242,1.334l0.401,2.406c0.097,0.582,0.601,1.01,1.19,1.01h1.701c0.591,0,1.1-0.426,1.201-1.008
		l0.429-2.424c0.109-0.609,0.568-1.094,1.153-1.301c0.35-0.125,0.691-0.268,1.023-0.426c0.583-0.275,1.279-0.305,1.806,0.066
		l2.023,1.42c0.484,0.338,1.143,0.281,1.561-0.137l1.201-1.203c0.416-0.416,0.469-1.076,0.125-1.553l-1.442-2.004
		c-0.357-0.498-0.39-1.156-0.125-1.707c0.159-0.33,0.302-0.67,0.427-1.018c0.221-0.611,0.69-1.133,1.331-1.244L28.959,17.006z
		 M14.984,20.209c-2.884,0-5.224-2.336-5.224-5.224c0-2.883,2.34-5.223,5.224-5.223c2.886,0,5.225,2.339,5.225,5.223
		C20.209,17.873,17.87,20.209,14.984,20.209z"/>
</g>
</svg>
