<?xml version="1.0" encoding="utf-8"?>
<!-- Generator: Adobe Illustrator 16.0.0, SVG Export Plug-In . SVG Version: 6.00 Build 0)  -->
<!DOCTYPE svg PUBLIC "-//W3C//DTD SVG 1.1//EN" "http://www.w3.org/Graphics/SVG/1.1/DTD/svg11.dtd">
<svg version="1.1" id="Layer_1" xmlns="http://www.w3.org/2000/svg" xmlns:xlink="http://www.w3.org/1999/xlink" x="0px" y="0px"
	 width="30px" height="30px" viewBox="0 0 30 30" enable-background="new 0 0 30 30" xml:space="preserve">
<g>
	<path fill="#E3E6EA" d="M28.184,0H1.818C0.815,0,0,0.815,0,1.817v26.367C0,29.185,0.815,30,1.818,30h5.9h14.577h5.889
		C29.188,30,30,29.185,30,28.185V1.817C30,0.815,29.188,0,28.184,0z M27.524,3.325c0,0.626-0.508,1.132-1.134,1.132
		c-0.624,0-1.132-0.506-1.132-1.132c0-0.624,0.508-1.13,1.132-1.13C27.017,2.195,27.524,2.701,27.524,3.325z M24.066,3.325
		c0,0.626-0.505,1.132-1.132,1.132c-0.626,0-1.132-0.506-1.132-1.132c0-0.624,0.506-1.13,1.132-1.13
		C23.562,2.195,24.066,2.701,24.066,3.325z M20.612,3.325c0,0.626-0.508,1.132-1.134,1.132c-0.621,0-1.129-0.506-1.129-1.132
		c0-0.624,0.508-1.13,1.129-1.13C20.104,2.195,20.612,2.701,20.612,3.325z M2.47,7.527c0-0.502,0.406-0.908,0.907-0.908h23.201
		c0.501,0,0.906,0.406,0.906,0.908v19.078c0,0.502-0.405,0.907-0.906,0.907h-4.282H7.718H3.376c-0.5,0-0.907-0.405-0.907-0.907
		V7.527z"/>
</g>
<g>
	<path fill="#E3E6EA" d="M22.676,25.307c-0.005,0-0.013,0-0.02,0H7.344c-0.536,0-1.031-0.286-1.299-0.75
		c-0.268-0.464-0.268-1.036,0-1.5l7.656-13.26c0.268-0.464,0.763-0.75,1.299-0.75s1.031,0.286,1.299,0.75l7.548,13.072
		c0.206,0.257,0.329,0.583,0.329,0.938C24.176,24.635,23.505,25.307,22.676,25.307z M9.942,22.307h10.115L15,13.547L9.942,22.307z"
		/>
</g>
</svg>
