<?xml version="1.0" encoding="utf-8"?>
<!-- Generator: Adobe Illustrator 16.0.0, SVG Export Plug-In . SVG Version: 6.00 Build 0)  -->
<!DOCTYPE svg PUBLIC "-//W3C//DTD SVG 1.1//EN" "http://www.w3.org/Graphics/SVG/1.1/DTD/svg11.dtd">
<svg version="1.1" id="Layer_1" xmlns="http://www.w3.org/2000/svg" xmlns:xlink="http://www.w3.org/1999/xlink" x="0px" y="0px"
	 width="30px" height="30px" viewBox="0 0 30 30" enable-background="new 0 0 30 30" xml:space="preserve">
<g>
	<path fill="#E3E6EA" d="M23.863,0.044c2.878,0,5.203,2.332,5.203,5.207v14.604c0,2.875-2.325,5.207-5.203,5.207h-9.182
		c-0.443,0-0.862,0.168-1.178,0.475l-4.45,4.268c-0.465,0.439-1.253,0.094-1.237-0.556l0.046-2.717
		c0.022-0.808-0.487-1.47-1.724-1.47c-2.877,0-5.206-2.332-5.206-5.207V5.251c0-2.875,2.329-5.207,5.206-5.207H23.863z
		 M20.843,11.357c0.75,0,1.358-0.605,1.358-1.352c0-0.75-0.608-1.358-1.358-1.358H10.377c-0.748,0-1.355,0.608-1.355,1.358
		c0,0.747,0.607,1.352,1.355,1.352H20.843z M17.876,16.813c0.744,0,1.354-0.608,1.354-1.359c0-0.747-0.61-1.352-1.354-1.352h-7.499
		c-0.748,0-1.355,0.605-1.355,1.352c0,0.75,0.607,1.359,1.355,1.359H17.876z"/>
</g>
</svg>
