<?xml version="1.0" encoding="utf-8"?>
<!-- Generator: Adobe Illustrator 16.0.0, SVG Export Plug-In . SVG Version: 6.00 Build 0)  -->
<!DOCTYPE svg PUBLIC "-//W3C//DTD SVG 1.1//EN" "http://www.w3.org/Graphics/SVG/1.1/DTD/svg11.dtd">
<svg version="1.1" id="Layer_1" xmlns="http://www.w3.org/2000/svg" xmlns:xlink="http://www.w3.org/1999/xlink" x="0px" y="0px"
	 width="30px" height="30px" viewBox="0 0 30 30" enable-background="new 0 0 30 30" xml:space="preserve">
<g>
	<path fill="#2CA8DF" d="M6.476,23.119h12.568c0.608,0,1.101-0.52,1.103-1.127c0-0.608-0.494-1.104-1.103-1.104H6.476
		c-0.605,0-1.098,0.512-1.101,1.125C5.375,22.624,5.871,23.119,6.476,23.119z"/>
	<path fill="#2CA8DF" d="M6.476,17.424h12.015c0.608,0,1.104-0.513,1.104-1.122c0-0.61-0.496-1.103-1.104-1.103H6.476
		c-0.605,0-1.098,0.515-1.101,1.123C5.375,16.934,5.871,17.424,6.476,17.424z"/>
	<path fill="#2CA8DF" d="M6.476,9.46c-0.605,0-1.098,0.516-1.101,1.127c0,0.607,0.495,1.102,1.101,1.102h1.177
		c0.616,0,1.112-0.5,1.112-1.114c0-0.616-0.497-1.115-1.112-1.115H6.476z"/>
	<path fill="#2CA8DF" d="M22.24,27.096c0,0.314-0.252,0.566-0.563,0.566H2.917c-0.315,0-0.568-0.252-0.568-0.566V5.177
		c0-0.312,0.253-0.567,0.568-0.567h4.67c0.651,0,1.178-0.528,1.178-1.177c0-0.655-0.527-1.181-1.178-1.181H1.765
		C0.79,2.252,0,3.045,0,4.02v24.266c0,0.978,0.79,1.764,1.765,1.764h21.104c0.974,0,1.765-0.786,1.765-1.764V16.214
		c0-0.662-0.536-1.198-1.196-1.198s-1.196,0.536-1.196,1.198L22.24,27.096L22.24,27.096z"/>
	<path fill="#2CA8DF" d="M30,1.154c0-0.63-0.509-1.137-1.141-1.137H11.509c-0.628,0-1.138,0.507-1.138,1.137v11.119
		c0,0.628,0.51,1.138,1.138,1.138h17.351c0.632,0,1.141-0.509,1.141-1.138V1.154z"/>
</g>
</svg>
