<?xml version="1.0" encoding="utf-8"?>
<!-- Generator: Adobe Illustrator 16.0.0, SVG Export Plug-In . SVG Version: 6.00 Build 0)  -->
<!DOCTYPE svg PUBLIC "-//W3C//DTD SVG 1.1//EN" "http://www.w3.org/Graphics/SVG/1.1/DTD/svg11.dtd">
<svg version="1.1" id="Layer_1" xmlns="http://www.w3.org/2000/svg" xmlns:xlink="http://www.w3.org/1999/xlink" x="0px" y="0px"
	 width="30px" height="30px" viewBox="0 0 30 30" enable-background="new 0 0 30 30" xml:space="preserve">
<path fill="#2CA8DF" d="M28.502,24.336c-2.27-2.318-6.236-4.803-14.236-4.77c-1.122,0.008-2.036,1.021-2.036,2.273v4.146
	c0,0.918-0.981,1.396-1.586,0.773l-9.979-10.32c-0.845-0.871-0.834-2.361,0.02-3.222l9.969-9.987
	c0.609-0.614,1.576-0.13,1.576,0.784v3.266c0,1.219,0.893,2.262,1.977,2.376c5.994,0.625,12.52,4.896,15.689,13.626
	C30.234,24.225,29.182,25.018,28.502,24.336z"/>
</svg>
