<?xml version="1.0" encoding="utf-8"?>
<!-- Generator: Adobe Illustrator 16.0.0, SVG Export Plug-In . SVG Version: 6.00 Build 0)  -->
<!DOCTYPE svg PUBLIC "-//W3C//DTD SVG 1.1//EN" "http://www.w3.org/Graphics/SVG/1.1/DTD/svg11.dtd">
<svg version="1.1" id="Layer_1" xmlns="http://www.w3.org/2000/svg" xmlns:xlink="http://www.w3.org/1999/xlink" x="0px" y="0px"
	 width="30px" height="30px" viewBox="0 0 30 30" enable-background="new 0 0 30 30" xml:space="preserve">
<g>
	<g>
		<path fill="#E3E6EA" d="M26.273,30H3.727c-0.792,0-1.435-0.643-1.435-1.435V1.434C2.292,0.642,2.935,0,3.727,0h22.546
			c0.792,0,1.435,0.642,1.435,1.434v27.131C27.708,29.357,27.065,30,26.273,30z M5.162,27.131h19.676V2.868H5.162V27.131z"/>
	</g>
</g>
<g>
	<path fill="#E3E6EA" stroke="#E3E6EA" stroke-width="0.5" stroke-miterlimit="10" d="M14.348,13.85c0.36-0.36,0.644-0.66,1.004-0.3
		l6.65,6.65c0.36,0.36,0.36,0.945,0,1.306l0,0c-0.36,0.359-0.944,0.359-1.305,0l-6.65-6.651
		C13.687,14.494,13.987,14.211,14.348,13.85L14.348,13.85z"/>
	<path fill="#E3E6EA" stroke="#E3E6EA" stroke-width="0.5" stroke-miterlimit="10" d="M17.69,21.486
		c-0.36-0.361-0.661-0.644-0.3-1.004l1.366-1.369c0.361-0.358,0.789-0.203,1.149,0.156l0.347,0.378
		c0.36,0.361,0.531,0.774,0.171,1.134l-1.367,1.367c-0.359,0.36-0.644,0.061-1.004-0.301L17.69,21.486z"/>
	<path fill="#E3E6EA" stroke="#E3E6EA" stroke-width="0.5" stroke-miterlimit="10" d="M16.358,18.838
		c-0.362-0.36-0.423-0.405-0.062-0.766l1.206-1.207c0.36-0.36,0.551-0.443,0.911-0.085l0.347,0.38
		c0.36,0.359,0.293,0.533-0.069,0.894l-1.206,1.209c-0.359,0.359-0.406,0.298-0.765-0.063L16.358,18.838z"/>
	<path fill="#E3E6EA" stroke="#E3E6EA" stroke-width="0.5" stroke-miterlimit="10" d="M15.36,8.879
		c-0.878-0.88-1.978-1.29-3.139-1.17c-1.039,0.105-2.089,0.643-2.959,1.513c-0.99,0.988-1.535,2.178-1.535,3.349
		c0,1.02,0.412,1.97,1.191,2.749c0.779,0.781,1.728,1.192,2.746,1.192c0.13,0,0.261-0.006,0.394-0.02
		c1.039-0.107,2.09-0.645,2.959-1.515c0.988-0.987,1.534-2.176,1.534-3.348C16.552,10.609,16.139,9.658,15.36,8.879z M14.822,11.657
		c0,0.708-0.359,1.459-1.012,2.113c-0.579,0.58-1.252,0.935-1.895,1.001c-0.648,0.063-1.261-0.171-1.769-0.68
		c-0.457-0.458-0.69-0.98-0.69-1.55c0-0.71,0.36-1.461,1.013-2.113c0.578-0.58,1.251-0.935,1.894-1.001
		c0.072-0.007,0.144-0.011,0.215-0.011c0.565,0,1.103,0.239,1.554,0.69C14.59,10.566,14.822,11.087,14.822,11.657z"/>
</g>
</svg>
