<?xml version="1.0" encoding="utf-8"?>
<!-- Generator: Adobe Illustrator 16.0.0, SVG Export Plug-In . SVG Version: 6.00 Build 0)  -->
<!DOCTYPE svg PUBLIC "-//W3C//DTD SVG 1.1//EN" "http://www.w3.org/Graphics/SVG/1.1/DTD/svg11.dtd">
<svg version="1.1" id="Layer_1" xmlns="http://www.w3.org/2000/svg" xmlns:xlink="http://www.w3.org/1999/xlink" x="0px" y="0px"
	 width="30px" height="30px" viewBox="0 0 30 30" enable-background="new 0 0 30 30" xml:space="preserve">
<path fill="#E3E6EA" d="M2.915,8.097c0.584-0.587,0.584-1.535,0-2.116c-0.587-0.589-1.538-0.589-2.122,0L0.738,6.029
	c-0.581,0.586-0.581,1.532,0,2.119c0.295,0.295,0.678,0.44,1.064,0.44c0.376,0,0.763-0.146,1.058-0.44L2.915,8.097z M7.256,2.614
	c0.295,0.292,0.675,0.438,1.061,0.438c0.383,0,0.767-0.146,1.058-0.438c0.583-0.586,0.583-1.535,0-2.119L9.318,0.441
	c-0.583-0.583-1.529-0.583-2.113,0c-0.583,0.587-0.583,1.535,0,2.119L7.256,2.614z M10.488,5.847
	c0.292,0.292,0.675,0.438,1.056,0.438c0.386,0,0.772-0.146,1.063-0.438c0.584-0.587,0.584-1.533,0-2.119l-0.054-0.052
	c-0.584-0.586-1.533-0.586-2.117,0c-0.587,0.581-0.587,1.533,0,2.116L10.488,5.847z M5.031,5.357c0.38,0,0.766-0.148,1.055-0.44
	l0.055-0.055c0.586-0.584,0.586-1.533,0-2.116c-0.584-0.584-1.532-0.584-2.119,0L3.969,2.8c-0.586,0.584-0.586,1.533,0,2.117
	C4.262,5.208,4.648,5.357,5.031,5.357z M2.565,9.209c-0.583,0.584-0.583,1.533,0,2.116L2.62,11.38
	c0.286,0.286,0.648,0.426,1.022,0.426c0.379,0,0.769-0.152,1.066-0.457c0.584-0.581,0.56-1.556-0.024-2.14
	C4.098,8.623,3.148,8.623,2.565,9.209z M5.794,12.439c-0.584,0.583-0.584,1.532,0,2.122l0.055,0.052
	c0.289,0.286,0.657,0.423,1.019,0.423c0.389,0,0.772-0.152,1.073-0.45c0.587-0.587,0.563-1.563-0.024-2.146
	C7.33,11.854,6.38,11.854,5.794,12.439z M27.236,11.539h2.058c0.228,0,0.404-0.179,0.404-0.402V9.045
	c0-0.225-0.177-0.407-0.404-0.407h-8.196c-0.223,0-0.402,0.182-0.402,0.407v2.092c0,0.223,0.181,0.402,0.402,0.402h2.062
	c0.225,0,0.407,0.182,0.407,0.404v5.173c0,0.225-0.184,0.403-0.407,0.403h-7.854c-0.222,0-0.408-0.18-0.408-0.403v-5.173
	c0-0.222,0.186-0.404,0.408-0.404h2.059c0.222,0,0.401-0.179,0.401-0.402V9.045c0-0.225-0.181-0.407-0.401-0.407H9.169
	c-0.222,0-0.404,0.182-0.404,0.407v2.092c0,0.223,0.183,0.402,0.404,0.402h2.058c0.225,0,0.408,0.182,0.408,0.404v14.756
	c0,0.222-0.183,0.4-0.408,0.4H9.169c-0.222,0-0.404,0.183-0.404,0.407V29.6c0,0.224,0.182,0.4,0.404,0.4h8.194
	c0.222,0,0.4-0.177,0.4-0.4v-2.093c0-0.226-0.18-0.407-0.4-0.407h-2.059c-0.222,0-0.408-0.18-0.408-0.4v-5.967
	c0-0.225,0.186-0.399,0.408-0.399h7.854c0.225,0,0.406,0.176,0.406,0.399v5.967c0,0.222-0.183,0.4-0.406,0.4h-2.063
	c-0.222,0-0.4,0.183-0.4,0.407V29.6c0,0.225,0.18,0.4,0.4,0.4h8.197c0.229,0,0.404-0.177,0.404-0.4v-2.093
	c0-0.226-0.178-0.407-0.404-0.407h-2.059c-0.229,0-0.405-0.18-0.405-0.4V11.942C26.83,11.721,27.008,11.539,27.236,11.539z"/>
</svg>
