<?xml version="1.0" encoding="utf-8"?>
<!-- Generator: Adobe Illustrator 16.0.0, SVG Export Plug-In . SVG Version: 6.00 Build 0)  -->
<!DOCTYPE svg PUBLIC "-//W3C//DTD SVG 1.1//EN" "http://www.w3.org/Graphics/SVG/1.1/DTD/svg11.dtd">
<svg version="1.1" id="Layer_1" xmlns="http://www.w3.org/2000/svg" xmlns:xlink="http://www.w3.org/1999/xlink" x="0px" y="0px"
	 width="30px" height="30px" viewBox="0 0 30 30" enable-background="new 0 0 30 30" xml:space="preserve">
<path fill="#2CA8DF" d="M25.121,0H4.924C2.219,0,0.029,2.194,0.029,4.896v20.197c0,2.702,2.189,4.896,4.895,4.896h20.197
	c2.701,0,4.893-2.194,4.893-4.896V4.896C30.014,2.194,27.822,0,25.121,0z M20.332,20.314c-1.768,1.445-4.086,2.36-6.324,3.246
	c-0.695,0.269-1.387,0.545-2.055,0.834c-0.184,0.078-0.377,0.11-0.57,0.11c-0.559,0-1.09-0.325-1.328-0.872
	c-0.307-0.729,0.027-1.574,0.758-1.892c0.697-0.302,1.416-0.581,2.133-0.866c2.133-0.84,4.141-1.631,5.564-2.794
	c0.262-0.217,0.24-0.347,0.182-0.507c-0.188-0.537-0.979-1.113-1.85-1.113c0,0-0.002,0-0.006,0l-5.1,0.02c0,0-0.01,0-0.016,0
	c-1.166,0-2.271-0.595-2.869-1.55c-0.563-0.875-0.621-1.904-0.178-2.838c1.563-3.277,4.82-5.49,9.675-6.584
	c0.772-0.17,1.553,0.314,1.726,1.094c0.174,0.776-0.318,1.549-1.093,1.723c-4.001,0.898-6.521,2.537-7.708,5.014
	c0.002,0.076,0.178,0.262,0.447,0.262h0.004l5.105-0.018c0.004,0,0.006,0,0.012,0c2.023,0,3.938,1.268,4.566,3.021
	C21.9,17.979,21.498,19.361,20.332,20.314z"/>
</svg>
