<?xml version="1.0" encoding="utf-8"?>
<!-- Generator: Adobe Illustrator 16.0.0, SVG Export Plug-In . SVG Version: 6.00 Build 0)  -->
<!DOCTYPE svg PUBLIC "-//W3C//DTD SVG 1.1//EN" "http://www.w3.org/Graphics/SVG/1.1/DTD/svg11.dtd">
<svg version="1.1" id="Layer_1" xmlns="http://www.w3.org/2000/svg" xmlns:xlink="http://www.w3.org/1999/xlink" x="0px" y="0px"
	 width="30px" height="30px" viewBox="0 0 30 30" enable-background="new 0 0 30 30" xml:space="preserve">
<g>
	<path fill="#2CA8DF" d="M28.932,0H11.147C10.464,0,9.91,0.554,9.91,1.238c0,0.683,0.554,1.237,1.237,1.237h12.137
		c1.938,0,3.513,1.577,3.513,3.512v4.975c0,0.885,0.717,1.602,1.602,1.602c0.886,0,1.603-0.717,1.603-1.602V1.068
		C30,0.478,29.521,0,28.932,0z"/>
	<path fill="#2CA8DF" d="M19.529,21.46H6.074c-0.569,0-1.031,0.483-1.034,1.054c0,0.572,0.465,1.035,1.034,1.035h13.455
		c0.57,0,1.031-0.484,1.035-1.054C20.564,21.921,20.102,21.46,19.529,21.46z M19.532,16.123H6.074c-0.569,0-1.031,0.484-1.034,1.054
		c0,0.572,0.465,1.032,1.034,1.032h13.458c0.567,0,1.032-0.48,1.032-1.051C20.564,16.583,20.102,16.123,19.532,16.123z
		 M19.52,10.741H6.074c-0.569,0-1.031,0.485-1.034,1.056c0,0.57,0.465,1.033,1.034,1.033h13.443c0.578,0,1.047-0.467,1.047-1.044
		C20.564,11.208,20.096,10.741,19.52,10.741z M23.284,3.979H1.655C0.741,3.979,0,4.725,0,5.637v22.757
		c0,0.914,0.741,1.653,1.655,1.653h21.984c0.909,0,1.651-0.739,1.651-1.653V5.987C25.291,4.877,24.393,3.979,23.284,3.979z
		 M23.068,27.279c0,0.294-0.238,0.529-0.529,0.529H2.758c-0.294,0-0.533-0.235-0.533-0.529V6.724c0-0.293,0.239-0.531,0.533-0.531
		h19.809c0.277,0,0.504,0.226,0.504,0.499v20.587H23.068z"/>
</g>
</svg>
