<?xml version="1.0" encoding="utf-8"?>
<!-- Generator: Adobe Illustrator 16.0.0, SVG Export Plug-In . SVG Version: 6.00 Build 0)  -->
<!DOCTYPE svg PUBLIC "-//W3C//DTD SVG 1.1//EN" "http://www.w3.org/Graphics/SVG/1.1/DTD/svg11.dtd">
<svg version="1.1" id="Layer_1" xmlns="http://www.w3.org/2000/svg" xmlns:xlink="http://www.w3.org/1999/xlink" x="0px" y="0px"
	 width="48px" height="48px" viewBox="0 0 48 48" enable-background="new 0 0 48 48" xml:space="preserve">
<g>
	<path fill="#757575" d="M16.596,39.707c0.42,0.422,0.975,0.632,1.529,0.632c0.552,0,1.105-0.21,1.525-0.632L43.451,15.91
		c0.841-0.847,0.841-2.218,0-3.057L31.229,0.63C30.808,0.21,30.256,0,29.703,0c-0.555,0-1.107,0.21-1.53,0.63l-23.8,23.799
		c-0.84,0.842-0.84,2.215,0,3.055l0.314,0.313c0.396,0.398,0.523,0.998,0.32,1.521L0.064,42.063c-0.143,0.483-0.043,1,0.256,1.395
		c0.768,1.01,2.245,0.349,3.428-0.112l11.013-4.273c0.523-0.203,1.123-0.076,1.521,0.32L16.596,39.707z M29.405,5.651
		c0.363-0.363,0.95-0.363,1.312,0l3.936,3.935c0.363,0.363,0.363,0.95,0,1.312L23.357,22.194c-0.362,0.362-0.949,0.362-1.312,0
		l-3.936-3.936c-0.362-0.362-0.362-0.949,0-1.312L29.405,5.651z M13.822,21.234c0.362-0.363,0.949-0.363,1.312,0l3.938,3.932
		c0.363,0.362,0.363,0.949,0,1.313l-2.302,2.306c-0.363,0.364-0.95,0.364-1.312,0.002l-3.939-3.932c-0.362-0.363-0.362-0.95,0-1.313
		L13.822,21.234z"/>
	<path fill="#757575" d="M46.101,44.203H7.265c-1.049,0-1.899,0.85-1.899,1.898S6.216,48,7.265,48h38.836
		C47.149,48,48,47.15,48,46.102S47.149,44.203,46.101,44.203z"/>
	<g>
		<path fill="#757575" d="M0.022,7.61l3.461-7.488C3.516,0.056,3.572,0,3.672,0h0.112c0.111,0,0.154,0.056,0.188,0.123L7.399,7.61
			C7.465,7.755,7.377,7.899,7.21,7.899H6.243c-0.167,0-0.245-0.067-0.323-0.222L5.375,6.476H2.048L1.503,7.677
			C1.458,7.788,1.358,7.899,1.18,7.899H0.211C0.044,7.899-0.044,7.755,0.022,7.61z M4.83,5.241L3.717,2.793H3.683L2.592,5.241H4.83z
			"/>
		<path fill="#757575" d="M8.415,0.323c0-0.111,0.089-0.211,0.21-0.211h2.55c1.322,0,2.346,0.891,2.346,2.059
			c0,0.857-0.701,1.524-1.223,1.769c0.589,0.189,1.446,0.79,1.446,1.814c0,1.246-1.067,2.146-2.424,2.146H8.625
			c-0.121,0-0.21-0.1-0.21-0.211V0.323z M11.041,3.383c0.567,0,0.957-0.445,0.957-1.001s-0.39-0.945-0.957-0.945H9.85v1.947H11.041z
			 M11.196,6.587c0.556,0,1.002-0.434,1.002-1.013c0-0.556-0.556-0.968-1.136-0.968H9.85v1.98H11.196z"/>
	</g>
</g>
</svg>
