<?xml version="1.0" encoding="utf-8"?>
<!-- Generator: Adobe Illustrator 16.0.0, SVG Export Plug-In . SVG Version: 6.00 Build 0)  -->
<!DOCTYPE svg PUBLIC "-//W3C//DTD SVG 1.1//EN" "http://www.w3.org/Graphics/SVG/1.1/DTD/svg11.dtd">
<svg version="1.1" id="Layer_1" xmlns="http://www.w3.org/2000/svg" xmlns:xlink="http://www.w3.org/1999/xlink" x="0px" y="0px"
	 width="48px" height="48px" viewBox="0 0 48 48" enable-background="new 0 0 48 48" xml:space="preserve">
<path fill="#757575" d="M45.166,0c-1.104,0-2,0.896-2,2v24.783c0,0.313-0.248,0.557-0.55,0.636
	c-7.419,1.943-13.262,7.789-15.2,15.21c-0.078,0.298-0.324,0.537-0.633,0.537h-5.566c-0.313,0-0.557-0.248-0.636-0.55
	c-1.942-7.419-7.788-13.262-15.209-15.2c-0.298-0.078-0.537-0.324-0.537-0.633V2c0-1.104-0.896-2-2-2H2C0.896,0,0,0.896,0,2v44
	c0,1.104,0.896,2,2,2h44c1.104,0,2-0.896,2-2V2c0-1.104-0.896-2-2-2H45.166z M5.334,43.166c-0.276,0-0.5-0.224-0.5-0.5v-8.661
	c0-0.233,0.204-0.432,0.423-0.352c4.209,1.547,7.551,4.892,9.095,9.103c0.079,0.217-0.126,0.41-0.356,0.41H5.334z M43.166,42.666
	c0,0.276-0.224,0.5-0.5,0.5h-8.661c-0.233,0-0.432-0.204-0.352-0.424c1.548-4.209,4.892-7.55,9.103-9.094
	c0.217-0.079,0.41,0.126,0.41,0.356V42.666z"/>
<g>
	<path fill="#757575" d="M7.765,24.211c0.467-0.149,1.787-0.605,1.995-1.628c-0.258,0.109-0.675,0.199-0.943,0.199
		c-0.933,0-1.976-0.686-1.976-2.154c0-1.251,1.033-2.274,2.274-2.274c1.539,0,2.393,1.152,2.393,2.701
		c0,2.918-2.422,4.1-3.336,4.368c-0.149,0.04-0.258-0.02-0.308-0.158l-0.288-0.765C7.537,24.38,7.566,24.271,7.765,24.211z
		 M10.088,20.677c0-0.517-0.427-0.953-0.953-0.953s-0.953,0.437-0.953,0.953c0,0.526,0.427,0.962,0.953,0.962
		S10.088,21.203,10.088,20.677z"/>
	<path fill="#757575" d="M12.434,21.888c0-2.174,0.923-3.475,2.542-3.475c1.619,0,2.542,1.301,2.542,3.475
		c0,2.174-0.923,3.476-2.542,3.476C13.357,25.363,12.434,24.062,12.434,21.888z M15.917,21.888c0-1.3-0.337-2.035-0.942-2.035
		s-0.943,0.735-0.943,2.035c0,1.31,0.338,2.035,0.943,2.035S15.917,23.198,15.917,21.888z"/>
	<path fill="#757575" d="M18.225,19.555c0-0.745,0.596-1.34,1.34-1.34c0.735,0,1.34,0.596,1.34,1.34c0,0.744-0.605,1.34-1.34,1.34
		C18.82,20.895,18.225,20.299,18.225,19.555z M19.903,19.555c0-0.179-0.159-0.337-0.338-0.337c-0.188,0-0.348,0.159-0.348,0.337
		c0,0.189,0.16,0.348,0.348,0.348C19.744,19.902,19.903,19.744,19.903,19.555z"/>
</g>
<g>
	<path fill="#757575" d="M28.024,24.211c0.467-0.149,1.786-0.605,1.995-1.628c-0.258,0.109-0.675,0.199-0.943,0.199
		c-0.933,0-1.976-0.686-1.976-2.154c0-1.251,1.033-2.274,2.274-2.274c1.538,0,2.393,1.152,2.393,2.701
		c0,2.918-2.423,4.1-3.336,4.368c-0.149,0.04-0.258-0.02-0.309-0.158l-0.287-0.765C27.796,24.38,27.826,24.271,28.024,24.211z
		 M30.348,20.677c0-0.517-0.428-0.953-0.953-0.953c-0.527,0-0.953,0.437-0.953,0.953c0,0.526,0.426,0.962,0.953,0.962
		C29.92,21.639,30.348,21.203,30.348,20.677z"/>
	<path fill="#757575" d="M32.693,21.888c0-2.174,0.923-3.475,2.541-3.475c1.619,0,2.541,1.301,2.541,3.475
		c0,2.174-0.922,3.476-2.541,3.476C33.616,25.363,32.693,24.062,32.693,21.888z M36.177,21.888c0-1.3-0.337-2.035-0.942-2.035
		s-0.943,0.735-0.943,2.035c0,1.31,0.338,2.035,0.943,2.035S36.177,23.198,36.177,21.888z"/>
	<path fill="#757575" d="M38.484,19.555c0-0.745,0.596-1.34,1.34-1.34c0.734,0,1.34,0.596,1.34,1.34c0,0.744-0.605,1.34-1.34,1.34
		C39.08,20.895,38.484,20.299,38.484,19.555z M40.162,19.555c0-0.179-0.159-0.337-0.338-0.337c-0.188,0-0.348,0.159-0.348,0.337
		c0,0.189,0.16,0.348,0.348,0.348C40.003,19.902,40.162,19.744,40.162,19.555z"/>
</g>
</svg>
