<?xml version="1.0" encoding="utf-8"?>
<!-- Generator: Adobe Illustrator 16.0.0, SVG Export Plug-In . SVG Version: 6.00 Build 0)  -->
<!DOCTYPE svg PUBLIC "-//W3C//DTD SVG 1.1//EN" "http://www.w3.org/Graphics/SVG/1.1/DTD/svg11.dtd">
<svg version="1.1" id="Layer_1" xmlns="http://www.w3.org/2000/svg" xmlns:xlink="http://www.w3.org/1999/xlink" x="0px" y="0px"
	 width="30px" height="30px" viewBox="0 0 30 30" enable-background="new 0 0 30 30" xml:space="preserve">
<path fill="#2CA8DF" d="M29.771,0.625c-0.356-0.547-1.076-0.77-1.692-0.503c-3.644,1.584-7.483,2.417-11.408,2.466
	c-0.68,0.006-1.235,0.479-1.341,1.149c-0.119,0.689,0.286,1.36,0.945,1.59L19.961,6.6c0.053,0.012,0.104,0.037,0.148,0.056
	L0.667,26.1C0.232,26.534,0,27.105,0,27.721c0,0.608,0.233,1.174,0.665,1.608C1.096,29.758,1.67,30,2.276,30
	c0.608,0,1.183-0.242,1.618-0.671L23.336,9.88c0.021,0.056,0.051,0.105,0.068,0.162l1.261,3.677
	c0.212,0.584,0.737,0.963,1.358,0.963c0.767,0,1.375-0.596,1.388-1.354c0.047-3.914,0.876-7.752,2.472-11.405
	C30.066,1.495,30.029,1.011,29.771,0.625z"/>
</svg>
