<?xml version="1.0" encoding="utf-8"?>
<!-- Generator: Adobe Illustrator 16.0.0, SVG Export Plug-In . SVG Version: 6.00 Build 0)  -->
<!DOCTYPE svg PUBLIC "-//W3C//DTD SVG 1.1//EN" "http://www.w3.org/Graphics/SVG/1.1/DTD/svg11.dtd">
<svg version="1.1" id="Layer_1" xmlns="http://www.w3.org/2000/svg" xmlns:xlink="http://www.w3.org/1999/xlink" x="0px" y="0px"
	 width="30px" height="30px" viewBox="0 0 30 30" enable-background="new 0 0 30 30" xml:space="preserve">
<g>
	<g>
		<path fill="#E3E6EA" d="M20.763,9.892c0,0.276-0.224,0.5-0.5,0.5h-2.461c-0.276,0-0.5-0.224-0.5-0.5V2.817
			c0-0.276,0.224-0.5,0.5-0.5h2.461c0.276,0,0.5,0.224,0.5,0.5V9.892z M29.99,6.931V26.54c0,1.911-1.55,3.46-3.46,3.46H3.46
			C1.55,30,0,28.451,0,26.54V3.471c0-1.912,1.55-3.46,3.46-3.46h19.609c0.955,0,1.482,0.05,4.176,2.744
			C29.94,5.449,29.99,5.976,29.99,6.931z M5.768,10.392c0,0.635,0.518,1.153,1.153,1.153h14.995c0.635,0,1.153-0.518,1.153-1.153
			V2.317c0-0.635-0.519-1.154-1.153-1.154H6.921c-0.636,0-1.153,0.519-1.153,1.154V10.392z M26.53,16.158
			c0-0.635-0.519-1.153-1.154-1.153H4.614c-0.635,0-1.153,0.519-1.153,1.153v10.093c0,0.635,0.518,1.153,1.153,1.153h20.762
			c0.636,0,1.154-0.519,1.154-1.153V16.158z"/>
	</g>
	<g>
		<path fill="#E3E6EA" d="M6.688,20.861l-2.104-3.261c-0.085-0.135,0-0.291,0.177-0.291h1.52c0.073,0,0.135,0.052,0.168,0.094
			l1.198,1.937h0.01l1.218-1.937c0.021-0.042,0.095-0.094,0.167-0.094h1.52c0.178,0,0.271,0.156,0.178,0.291l-2.115,3.261
			l2.187,3.446c0.095,0.145,0,0.291-0.166,0.291H9.198c-0.063,0-0.146-0.041-0.179-0.092L7.656,22.4H7.636l-1.333,2.106
			c-0.033,0.04-0.095,0.092-0.177,0.092H4.678c-0.179,0-0.271-0.155-0.179-0.291L6.688,20.861z"/>
		<path fill="#E3E6EA" d="M12.689,17.371c0.01-0.093,0.104-0.166,0.187-0.166h0.169c0.051,0,0.146,0.043,0.175,0.104l2.417,4.498
			h0.021l2.417-4.498c0.031-0.062,0.123-0.104,0.176-0.104h0.167c0.084,0,0.178,0.073,0.187,0.166l1.179,6.999
			c0.021,0.137-0.073,0.229-0.2,0.229h-1.229c-0.094,0-0.186-0.083-0.196-0.166l-0.471-3.219h-0.019l-1.75,3.375
			c-0.03,0.062-0.126,0.112-0.179,0.112h-0.188c-0.06,0-0.145-0.051-0.176-0.112l-1.761-3.375h-0.019l-0.458,3.219
			c-0.01,0.083-0.092,0.166-0.198,0.166H11.71c-0.125,0-0.219-0.092-0.198-0.229L12.689,17.371z"/>
		<path fill="#E3E6EA" d="M21.118,17.507c0-0.104,0.082-0.197,0.199-0.197h1.236c0.105,0,0.199,0.094,0.199,0.197v5.56h2.479
			c0.114,0,0.197,0.097,0.197,0.198V24.4c0,0.106-0.083,0.198-0.197,0.198h-3.915c-0.117,0-0.199-0.092-0.199-0.198V17.507z"/>
	</g>
</g>
</svg>
