<?xml version="1.0" encoding="utf-8"?>
<!-- Generator: Adobe Illustrator 16.0.0, SVG Export Plug-In . SVG Version: 6.00 Build 0)  -->
<!DOCTYPE svg PUBLIC "-//W3C//DTD SVG 1.1//EN" "http://www.w3.org/Graphics/SVG/1.1/DTD/svg11.dtd">
<svg version="1.1" id="Layer_1" xmlns="http://www.w3.org/2000/svg" xmlns:xlink="http://www.w3.org/1999/xlink" x="0px" y="0px"
	 width="30px" height="30px" viewBox="0 0 30 30" enable-background="new 0 0 30 30" xml:space="preserve">
<path fill="#E3E6EA" d="M0.01,24.691c0,1.306,0.26,2.566,0.72,3.768c0.066,0.174,0.275,0.239,0.469,0.239h1.566
	c1.154,0,2.198,0.433,2.981,1.125c0.163,0.143,0.41,0.211,0.57,0.07c0.195-0.176,0.411-0.333,0.639-0.471
	c0.151-0.094,0.207-0.274,0.182-0.444c-0.045-0.308-0.082-0.617-0.082-0.938c0-5.996,6.785-6.672,5.765-12.322
	c-0.013-0.077,0.098-0.091,0.149-0.032c2.057,2.448,2.943,3.467,0.156,8.634c-0.647,1.212,0.774,3.3,2.439,3.3
	c1.949,0,3.348-2.065,2.721-4.214c-0.02-0.069,0.027-0.153,0.09-0.116c3.029,1.837,4.018,3.55,3.851,5.099
	c-0.019,0.179,0.155,0.311,0.343,0.311h7.073c0.236,0,0.368-0.231,0.347-0.455c-0.403-4.594-4.485-6.076-4.41-9.056
	c0.093-3.547,4.391-8.278-2.957-10.966c-0.147-0.055-0.338,0.009-0.316,0.157c0.397,2.926-0.289,5.295-2.492,5.001
	c-3.745-0.504,0.59-4.371-1.385-8.638c-1.822-3.931-5.872-4.916-9.198-4.663C9.046,0.092,9.106,0.324,9.217,0.463
	c3.03,3.808,1.997,10.981,0.297,12.194c-2.671,1.914-3.738-1.538-6.987-0.253c-0.133,0.052-0.145,0.223-0.028,0.303
	c1.403,0.939,1.794,3.684,0.896,5.486C2.613,19.771,0.01,20.283,0.01,24.691z"/>
</svg>
