<?xml version="1.0" encoding="utf-8"?>
<!-- Generator: Adobe Illustrator 16.0.0, SVG Export Plug-In . SVG Version: 6.00 Build 0)  -->
<!DOCTYPE svg PUBLIC "-//W3C//DTD SVG 1.1//EN" "http://www.w3.org/Graphics/SVG/1.1/DTD/svg11.dtd">
<svg version="1.1" id="Layer_1" xmlns="http://www.w3.org/2000/svg" xmlns:xlink="http://www.w3.org/1999/xlink" x="0px" y="0px"
	 width="30px" height="30px" viewBox="0 0 30 30" enable-background="new 0 0 30 30" xml:space="preserve">
<path fill="#2CA8DF" d="M8.197,14.366c0-1.069,0.09-2.445,0.057-6.559C8.191,1.236,8.6,0.068,10.32,0.068
	c1.838,0,1.925,1.817,1.856,7.721c-0.042,4.105-0.063,2.589,0.255,2.589c0.571,0,0.333-1.844,1.814-1.844
	c1.864,0,1.799,1.441,2.315,1.441c0.521,0,0.754-1.402,2.232-1.402c1.484,0,1.688,1.889,2.297,1.889c0.61,0,0.771-0.609,1.688-0.609
	s2.938,1.918,2.938,8.676c0,5.844-1.301,7.718-2.12,9.248C22.988,28.926,22.023,30,20.718,30h-7.442
	c-1.385,0-2.613-0.799-3.541-1.831c-0.58-0.644-1.3-1.425-2.051-2.319c-2.685-3.229-3.378-4.451-3.4-5.795
	C4.233,17.05,8.197,16.309,8.197,14.366z"/>
</svg>
