<?xml version="1.0" encoding="utf-8"?>
<!-- Generator: Adobe Illustrator 16.0.0, SVG Export Plug-In . SVG Version: 6.00 Build 0)  -->
<!DOCTYPE svg PUBLIC "-//W3C//DTD SVG 1.1//EN" "http://www.w3.org/Graphics/SVG/1.1/DTD/svg11.dtd">
<svg version="1.1" id="Layer_1" xmlns="http://www.w3.org/2000/svg" xmlns:xlink="http://www.w3.org/1999/xlink" x="0px" y="0px"
	 width="30px" height="30px" viewBox="0 0 30 30" enable-background="new 0 0 30 30" xml:space="preserve">
<path fill="#2CA8DF" d="M10.394,9.177c0-1.701,0.447-5.664,4.608-5.664c4.008,0,4.605,3.552,4.605,5.664v3.451h3.453V9.177
	c0-5.539-3.162-9.118-8.06-9.118c-4.897,0-8.063,3.579-8.063,9.118v3.451h3.454L10.394,9.177L10.394,9.177z M23.061,11.578H6.939
	c-1.908,0-3.458,1.543-3.458,3.454v11.517C3.482,28.454,5.031,30,6.939,30h16.122c1.907,0,3.457-1.546,3.457-3.451V15.032
	C26.518,13.121,24.969,11.578,23.061,11.578z M16.538,21.71v3.5c0,0.849-0.69,1.54-1.537,1.54c-0.852,0-1.54-0.691-1.54-1.54v-3.5
	c-0.916-0.536-1.54-1.517-1.54-2.653c0-1.699,1.379-3.074,3.08-3.074c1.692,0,3.074,1.375,3.074,3.074
	C18.075,20.193,17.448,21.174,16.538,21.71z"/>
</svg>
