<?xml version="1.0" encoding="utf-8"?>
<!-- Generator: Adobe Illustrator 16.0.0, SVG Export Plug-In . SVG Version: 6.00 Build 0)  -->
<!DOCTYPE svg PUBLIC "-//W3C//DTD SVG 1.1//EN" "http://www.w3.org/Graphics/SVG/1.1/DTD/svg11.dtd">
<svg version="1.1" id="Layer_1" xmlns="http://www.w3.org/2000/svg" xmlns:xlink="http://www.w3.org/1999/xlink" x="0px" y="0px"
	 width="48px" height="48px" viewBox="0 0 48 48" enable-background="new 0 0 48 48" xml:space="preserve">
<path fill="#757575" d="M40.161,0H7.84C3.515,0,0.008,3.507,0.008,7.832v32.337C0.008,44.493,3.515,48,7.84,48h32.321
	c4.324,0,7.831-3.507,7.831-7.831V7.832C47.992,3.507,44.485,0,40.161,0z M26.304,25.982c-0.098,0.112-0.201,0.216-0.313,0.313
	c-0.537,0.463-1.228,0.755-1.993,0.755s-1.456-0.292-1.993-0.755c-0.111-0.098-0.216-0.201-0.313-0.313
	c-0.466-0.535-0.755-1.228-0.755-1.993c0-0.764,0.289-1.454,0.755-1.991c0.098-0.114,0.202-0.218,0.315-0.315
	c0.535-0.463,1.227-0.755,1.991-0.755c0.764,0,1.456,0.292,1.991,0.755c0.113,0.098,0.218,0.202,0.315,0.315
	c0.464,0.537,0.755,1.227,0.755,1.991C27.059,24.755,26.768,25.447,26.304,25.982z M21.69,8.203c0-1.274,1.032-2.307,2.307-2.307
	c1.273,0,2.307,1.033,2.307,2.307v9.466c-0.722-0.265-1.494-0.433-2.307-0.433s-1.584,0.167-2.307,0.433V8.203z M8.211,26.296
	c-1.274,0-2.307-1.033-2.307-2.307c0-1.274,1.033-2.307,2.307-2.307h9.467c-0.266,0.723-0.434,1.494-0.434,2.307
	s0.168,1.584,0.434,2.307H8.211z M26.304,39.799c0,1.274-1.033,2.307-2.307,2.307c-1.274,0-2.307-1.032-2.307-2.307v-9.49
	c0.723,0.265,1.494,0.433,2.307,0.433s1.585-0.168,2.307-0.433V39.799z M39.791,26.296h-9.475c0.265-0.723,0.434-1.494,0.434-2.307
	s-0.169-1.584-0.434-2.307h9.475c1.274,0,2.307,1.032,2.307,2.307C42.098,25.263,41.065,26.296,39.791,26.296z"/>
</svg>
