<?xml version="1.0" encoding="utf-8"?>
<!-- Generator: Adobe Illustrator 16.0.0, SVG Export Plug-In . SVG Version: 6.00 Build 0)  -->
<!DOCTYPE svg PUBLIC "-//W3C//DTD SVG 1.1//EN" "http://www.w3.org/Graphics/SVG/1.1/DTD/svg11.dtd">
<svg version="1.1" id="Layer_1" xmlns="http://www.w3.org/2000/svg" xmlns:xlink="http://www.w3.org/1999/xlink" x="0px" y="0px"
	 width="30px" height="30px" viewBox="0 0 30 30" enable-background="new 0 0 30 30" xml:space="preserve">
<g>
	<g>
		<g>
			<path fill="#E3E6EA" d="M28.04,0c0.543,0,0.987,0.442,0.987,0.989v10.373c0,0.546-0.444,0.989-0.987,0.989h-1.373
				c-0.544,0-0.985-0.442-0.985-0.989v-1.048c0-4.494-2.19-6.69-6.607-6.945c-0.521-0.031-0.906,0.442-0.906,0.964V20.92
				c0,1.174,0.445,1.628,1.855,1.628h2.444c0.55,0,0.992,0.445,0.992,0.989v1.37c0,0.55-0.442,0.991-0.992,0.991H7.524
				c-0.543,0-0.986-0.441-0.986-0.991v-1.37c0-0.544,0.442-0.989,0.986-0.989h2.451c1.404,0,1.855-0.454,1.855-1.628V4.334
				c0-0.522-0.39-0.995-0.912-0.964c-4.414,0.255-6.601,2.451-6.601,6.945v1.048c0,0.546-0.446,0.989-0.992,0.989H1.958
				c-0.546,0-0.986-0.442-0.986-0.989V0.989C0.972,0.442,1.412,0,1.958,0H28.04z"/>
		</g>
		<path fill="#E3E6EA" d="M29.027,29.012c0,0.547-0.444,0.989-0.987,0.989H1.958c-0.546,0-0.986-0.442-0.986-0.989v-2.125
			c0-0.547,0.439-0.986,0.986-0.986H28.04c0.543,0,0.987,0.439,0.987,0.986V29.012z"/>
	</g>
</g>
</svg>
