<?xml version="1.0" encoding="utf-8"?>
<!-- Generator: Adobe Illustrator 16.0.0, SVG Export Plug-In . SVG Version: 6.00 Build 0)  -->
<!DOCTYPE svg PUBLIC "-//W3C//DTD SVG 1.1//EN" "http://www.w3.org/Graphics/SVG/1.1/DTD/svg11.dtd">
<svg version="1.1" id="Layer_1" xmlns="http://www.w3.org/2000/svg" xmlns:xlink="http://www.w3.org/1999/xlink" x="0px" y="0px"
	 width="30px" height="30px" viewBox="0 0 30 30" enable-background="new 0 0 30 30" xml:space="preserve">
<path fill="#2CA8DF" d="M22.477,26.652h-2.453c-1.4,0-1.854-0.453-1.854-1.631v-3.869h-6.336v3.869c0,1.178-0.451,1.631-1.855,1.631
	H7.531c-0.55,0-0.992,0.44-0.992,0.99v1.367c0,0.549,0.442,0.99,0.992,0.99h14.945c0.543,0,0.984-0.441,0.984-0.989v-1.368
	C23.462,27.096,23.02,26.652,22.477,26.652z M26.669,12.353h1.369c0.544,0,0.989-0.442,0.989-0.989V0.992
	c0-0.547-0.445-0.989-0.989-0.989H1.965c-0.55,0-0.992,0.442-0.992,0.989v10.373c0,0.546,0.442,0.989,0.992,0.989h1.364
	c0.549,0,0.989-0.442,0.989-0.989v-1.048c0-4.493,2.187-6.689,6.601-6.944c0.525-0.031,0.912,0.442,0.912,0.964V15H1.965
	c-0.55,0-0.992,0.442-0.992,0.988v2.123c0,0.547,0.442,0.992,0.992,0.992h26.073c0.544,0,0.989-0.445,0.989-0.992v-2.123
	c0-0.546-0.445-0.988-0.989-0.988h-9.871V4.336c0-0.522,0.39-0.995,0.915-0.964c4.41,0.255,6.595,2.451,6.595,6.944v1.048
	C25.677,11.911,26.121,12.353,26.669,12.353z"/>
</svg>
