<?xml version="1.0" encoding="utf-8"?>
<!-- Generator: Adobe Illustrator 16.0.0, SVG Export Plug-In . SVG Version: 6.00 Build 0)  -->
<!DOCTYPE svg PUBLIC "-//W3C//DTD SVG 1.1//EN" "http://www.w3.org/Graphics/SVG/1.1/DTD/svg11.dtd">
<svg version="1.1" id="Layer_1" xmlns="http://www.w3.org/2000/svg" xmlns:xlink="http://www.w3.org/1999/xlink" x="0px" y="0px"
	 width="50px" height="50px" viewBox="0 0 50 50" enable-background="new 0 0 50 50" xml:space="preserve">
<circle fill="#97C38A" cx="42.406" cy="7.697" r="4.876"/>
<circle fill="#F5E18A" cx="32.191" cy="7.697" r="4.944"/>
<circle fill="#DF6963" cx="21.977" cy="7.697" r="4.882"/>
<g>
	<g>
		<g>
			<path fill="#FFFFFF" d="M42.247,43.751c0.831,0,1.505-0.679,1.505-1.509V16.923c0-0.833-0.674-1.505-1.505-1.505H7.754
				c-0.833,0-1.506,0.673-1.506,1.505v25.319c0,0.83,0.675,1.509,1.506,1.509H42.247z M3.022,50c-1.671,0-3.025-1.354-3.025-3.019
				V3.02c0-1.668,1.354-3.021,3.025-3.021h43.963c1.669,0,3.018,1.353,3.018,3.021v43.963c0,1.662-1.349,3.018-3.02,3.018L3.022,50
				L3.022,50z M25.063,7.749c0-1.765-1.431-3.195-3.192-3.195c-1.767,0-3.198,1.431-3.198,3.195s1.431,3.197,3.198,3.197
				C23.635,10.947,25.063,9.51,25.063,7.749z M34.838,7.749c0-1.765-1.442-3.195-3.204-3.195c-1.766,0-3.199,1.431-3.199,3.195
				s1.437,3.197,3.199,3.197C33.396,10.946,34.838,9.51,34.838,7.749z M44.599,7.749c0-1.765-1.43-3.195-3.197-3.195
				c-1.771,0-3.198,1.431-3.198,3.195s1.429,3.197,3.198,3.197C43.169,10.947,44.599,9.51,44.599,7.749z"/>
		</g>
	</g>
</g>
</svg>
