<?xml version="1.0" encoding="utf-8"?>
<!-- Generator: Adobe Illustrator 16.0.0, SVG Export Plug-In . SVG Version: 6.00 Build 0)  -->
<!DOCTYPE svg PUBLIC "-//W3C//DTD SVG 1.1//EN" "http://www.w3.org/Graphics/SVG/1.1/DTD/svg11.dtd">
<svg version="1.1" id="Layer_1" xmlns="http://www.w3.org/2000/svg" xmlns:xlink="http://www.w3.org/1999/xlink" x="0px" y="0px"
	 width="48px" height="48px" viewBox="0 0 48 48" enable-background="new 0 0 48 48" xml:space="preserve">
<g>
	<g>
		<path fill="#757575" d="M47.346,44.363c0.352,0,0.633,0.281,0.633,0.633v2.371c0,0.351-0.281,0.633-0.633,0.633H0.633
			C0.283,48,0,47.718,0,47.367v-2.371c0-0.352,0.283-0.633,0.633-0.633H47.346z"/>
		<path fill="#757575" d="M27.213,10.696c-0.395,0-0.712,0.285-0.712,0.633v28.68c0,0.349,0.317,0.634,0.712,0.634h9.25
			c0.395,0,0.712-0.285,0.712-0.634v-28.68c0-0.349-0.317-0.633-0.712-0.633H27.213z"/>
		<path fill="#757575" d="M20.45,0H11.2c-0.395,0-0.712,0.283-0.712,0.633v39.376c0,0.349,0.317,0.634,0.712,0.634h9.25
			c0.393,0,0.712-0.285,0.712-0.634V0.633C21.162,0.283,20.843,0,20.45,0L20.45,0z"/>
	</g>
</g>
</svg>
