<?xml version="1.0" encoding="utf-8"?>
<!-- Generator: Adobe Illustrator 16.0.0, SVG Export Plug-In . SVG Version: 6.00 Build 0)  -->
<!DOCTYPE svg PUBLIC "-//W3C//DTD SVG 1.1//EN" "http://www.w3.org/Graphics/SVG/1.1/DTD/svg11.dtd">
<svg version="1.1" id="Layer_1" xmlns="http://www.w3.org/2000/svg" xmlns:xlink="http://www.w3.org/1999/xlink" x="0px" y="0px"
	 width="48px" height="48px" viewBox="0 0 48 48" enable-background="new 0 0 48 48" xml:space="preserve">
<g>
	<g>
		<path fill="#757575" d="M3.456,47.367C3.456,47.718,3.172,48,2.823,48h-2.19C0.283,48,0,47.718,0,47.367V0.634
			C0,0.283,0.283,0,0.633,0h2.19c0.35,0,0.633,0.283,0.633,0.634V47.367z"/>
		<path fill="#757575" d="M33.12,20.619c0,0.393-0.285,0.711-0.634,0.711H7.811c-0.349,0-0.633-0.318-0.633-0.711v-9.25
			c0-0.395,0.284-0.713,0.633-0.713h24.677c0.348,0,0.633,0.318,0.633,0.713L33.12,20.619L33.12,20.619z"/>
		<path fill="#757575" d="M47.367,26.67H7.811c-0.349,0-0.633,0.319-0.633,0.712v9.25c0,0.396,0.284,0.712,0.633,0.712h39.557
			c0.35,0,0.633-0.316,0.633-0.712v-9.25C48,26.989,47.717,26.67,47.367,26.67L47.367,26.67z"/>
	</g>
</g>
</svg>
