<?xml version="1.0" encoding="utf-8"?>
<!-- Generator: Adobe Illustrator 16.0.0, SVG Export Plug-In . SVG Version: 6.00 Build 0)  -->
<!DOCTYPE svg PUBLIC "-//W3C//DTD SVG 1.1//EN" "http://www.w3.org/Graphics/SVG/1.1/DTD/svg11.dtd">
<svg version="1.1" id="Layer_1" xmlns="http://www.w3.org/2000/svg" xmlns:xlink="http://www.w3.org/1999/xlink" x="0px" y="0px"
	 width="48px" height="48px" viewBox="0 0 48 48" enable-background="new 0 0 48 48" xml:space="preserve">
<g>
	<g>
		<path fill="#757575" d="M27.529,42.652c-0.393,0-0.713-0.284-0.713-0.633V5.981c0-0.349,0.32-0.633,0.713-0.633h9.25
			c0.395,0,0.712,0.284,0.712,0.633V42.02c0,0.35-0.317,0.635-0.712,0.635h-9.25V42.652z"/>
		<path fill="#757575" d="M20.766,0h-9.25c-0.395,0-0.712,0.284-0.712,0.633v46.734c0,0.351,0.317,0.633,0.712,0.633h9.25
			c0.393,0,0.712-0.282,0.712-0.633V0.633C21.478,0.284,21.159,0,20.766,0L20.766,0z"/>
		<path fill="#757575" d="M0.633,22.509C0.283,22.509,0,22.792,0,23.143v1.714c0,0.351,0.283,0.634,0.633,0.634h10.943V22.51
			L0.633,22.509L0.633,22.509z"/>
		<path fill="#757575" d="M47.346,22.509H21.071v2.981h26.275c0.35,0,0.633-0.283,0.633-0.633v-1.715
			C47.979,22.792,47.695,22.509,47.346,22.509z"/>
	</g>
</g>
</svg>
