<?xml version="1.0" encoding="utf-8"?>
<!-- Generator: Adobe Illustrator 16.0.0, SVG Export Plug-In . SVG Version: 6.00 Build 0)  -->
<!DOCTYPE svg PUBLIC "-//W3C//DTD SVG 1.1//EN" "http://www.w3.org/Graphics/SVG/1.1/DTD/svg11.dtd">
<svg version="1.1" id="Layer_1" xmlns="http://www.w3.org/2000/svg" xmlns:xlink="http://www.w3.org/1999/xlink" x="0px" y="0px"
	 width="40px" height="40px" viewBox="0 0 40 40" enable-background="new 0 0 40 40" xml:space="preserve">
<g display="none">
	<path display="inline" fill="#ADAFB0" d="M14.766,15.5H0.735c-0.401,0-0.726-0.324-0.726-0.727V5.949H15.49v8.824
		C15.491,15.176,15.166,15.5,14.766,15.5 M0.01,0.746c0-0.401,0.325-0.727,0.726-0.727h3.628L5.811,1.47h8.955
		c0.4,0,0.727,0.325,0.727,0.727v2.3H0.01V0.746z"/>
</g>
<g display="none">
	<g display="inline">
		<path fill="#ADAFB0" stroke="#ADAFB0" stroke-width="0.4" stroke-miterlimit="10" d="M4.285,6.51L3.446,7.162
			C3.354,7.231,3.26,7.243,3.179,7.15L2.958,6.905C2.876,6.813,2.922,6.707,2.981,6.649l1.63-1.584h0.315
			c0.116,0,0.209,0.104,0.209,0.222v7.477c0,0.116-0.094,0.221-0.209,0.221h-0.42c-0.127,0-0.221-0.104-0.221-0.221V6.51z"/>
		<path fill="#ADAFB0" stroke="#ADAFB0" stroke-width="0.4" stroke-miterlimit="10" d="M7.087,7.243
			c0-0.372,0.302-0.663,0.662-0.663c0.373,0,0.665,0.291,0.665,0.663c0,0.36-0.292,0.663-0.665,0.663
			C7.389,7.906,7.087,7.604,7.087,7.243z M7.749,10.143c0.373,0,0.665,0.291,0.665,0.664c0,0.361-0.292,0.664-0.665,0.664
			c-0.36,0-0.662-0.303-0.662-0.664C7.087,10.434,7.389,10.143,7.749,10.143z"/>
		<path fill="#ADAFB0" stroke="#ADAFB0" stroke-width="0.4" stroke-miterlimit="10" d="M11.039,6.51L10.2,7.162
			c-0.095,0.069-0.187,0.081-0.267-0.012L9.711,6.905C9.629,6.813,9.676,6.707,9.734,6.649l1.63-1.584h0.315
			c0.115,0,0.209,0.104,0.209,0.222v7.477c0,0.116-0.094,0.221-0.209,0.221h-0.421c-0.128,0-0.221-0.104-0.221-0.221L11.039,6.51
			L11.039,6.51z"/>
	</g>
	<path display="inline" fill="#ADAFB0" d="M14.766,15.5H0.735c-0.4,0-0.726-0.324-0.726-0.727V0.746
		c0-0.401,0.325-0.727,0.726-0.727h14.031c0.399,0,0.726,0.325,0.726,0.727v14.027C15.491,15.176,15.166,15.5,14.766,15.5
		 M1.461,0.746c-0.401,0-0.726,0.324-0.726,0.725c0,0.401,0.325,0.727,0.726,0.727c0.4,0,0.725-0.325,0.725-0.727
		C2.187,1.07,1.862,0.746,1.461,0.746 M3.638,0.746c-0.4,0-0.725,0.324-0.725,0.725c0,0.401,0.325,0.727,0.725,0.727
		c0.401,0,0.726-0.325,0.726-0.727C4.364,1.07,4.039,0.746,3.638,0.746 M5.815,0.746c-0.4,0-0.726,0.324-0.726,0.725
		c0,0.401,0.325,0.727,0.726,0.727s0.726-0.325,0.726-0.727C6.541,1.07,6.216,0.746,5.815,0.746 M14.305,3.313H1.196v11.072h13.109
		V3.313z"/>
</g>
<g display="none">
	<path display="inline" fill="#ADAFB0" d="M14.764,0.02H0.735c-0.4,0-0.726,0.325-0.726,0.727v14.028c0,0.4,0.325,0.726,0.726,0.726
		h14.029c0.401,0,0.728-0.324,0.728-0.726V0.746C15.491,0.345,15.166,0.02,14.764,0.02z M14.04,7.034H8.477V1.471h5.563V7.034
		L14.04,7.034z M7.024,1.471v5.563H1.461V1.471H7.024z M1.461,8.486h5.563v5.563H1.461V8.486z M8.477,14.049V8.486h5.563v5.563
		H8.477z"/>
</g>
<g display="none">
	<path display="inline" fill="#ADAFB0" d="M15.491,14.049c0,0.803-0.649,1.451-1.451,1.451c-0.401,0-0.765-0.162-1.026-0.425
		L8.76,10.822c-0.864,0.51-1.869,0.809-2.945,0.809c-3.207,0-5.806-2.6-5.806-5.806s2.6-5.805,5.806-5.805
		c3.207,0,5.805,2.6,5.805,5.806c0,1.076-0.298,2.08-0.808,2.943l4.252,4.254C15.329,13.285,15.491,13.648,15.491,14.049
		 M5.815,1.471c-2.405,0-4.354,1.95-4.354,4.354c0,2.404,1.949,4.354,4.354,4.354c2.405,0,4.354-1.95,4.354-4.354
		C10.169,3.42,8.22,1.471,5.815,1.471 M8.234,6.551H3.396c-0.4,0-0.725-0.324-0.725-0.726c0-0.402,0.325-0.725,0.725-0.725h4.838
		c0.4,0,0.725,0.324,0.725,0.726C8.959,6.228,8.635,6.551,8.234,6.551"/>
</g>
<g display="none">
	<path display="inline" fill="#ADAFB0" d="M15.491,14.049c0,0.803-0.649,1.451-1.451,1.451c-0.401,0-0.765-0.162-1.026-0.425
		L8.76,10.822c-0.865,0.51-1.869,0.809-2.945,0.809c-3.206,0-5.805-2.6-5.805-5.806S2.609,0.02,5.815,0.02
		c3.207,0,5.806,2.6,5.806,5.806c0,1.076-0.298,2.08-0.809,2.943l4.254,4.254C15.329,13.285,15.491,13.648,15.491,14.049
		 M5.815,1.471c-2.405,0-4.354,1.95-4.354,4.354c0,2.404,1.949,4.354,4.354,4.354c2.405,0,4.354-1.95,4.354-4.354
		C10.169,3.42,8.22,1.471,5.815,1.471 M8.234,6.551H6.541v1.693c0,0.4-0.325,0.727-0.726,0.727S5.09,8.645,5.09,8.244V6.551H3.396
		c-0.401,0-0.726-0.324-0.726-0.726C2.67,5.423,2.996,5.1,3.396,5.1H5.09V3.406c0-0.4,0.324-0.727,0.725-0.727
		s0.726,0.326,0.726,0.727V5.1h1.693c0.4,0,0.725,0.324,0.725,0.726C8.959,6.228,8.635,6.551,8.234,6.551"/>
</g>
<g display="none">
	<path display="inline" fill="#ADAFB0" d="M14.764,0.02H0.735c-0.401,0-0.726,0.325-0.726,0.727v14.028
		c0,0.4,0.325,0.726,0.726,0.726h14.029c0.401,0,0.727-0.324,0.727-0.726V0.746C15.49,0.345,15.166,0.02,14.764,0.02z
		 M14.281,14.291H1.219V1.229h13.063L14.281,14.291L14.281,14.291z"/>
	<path display="inline" fill="#ADAFB0" d="M7.85,11.484h-0.2c-0.422,0-0.765,0.344-0.765,0.766s0.343,0.766,0.765,0.766h0.2
		c0.423,0,0.765-0.344,0.765-0.766S8.273,11.484,7.85,11.484z"/>
	<path display="inline" fill="#ADAFB0" d="M7.75,2.829c-1.484,0-2.691,1.207-2.691,2.69c0,0.334,0.271,0.605,0.605,0.605
		s0.604-0.271,0.604-0.605c0-0.816,0.665-1.48,1.482-1.48c0.816,0,1.48,0.664,1.48,1.48c0,0.818-0.664,1.482-1.48,1.482
		c-0.334,0-0.605,0.271-0.605,0.604v2.601c0,0.334,0.271,0.604,0.605,0.604c0.333,0,0.604-0.271,0.604-0.604V8.143
		C9.548,7.868,10.44,6.796,10.44,5.52C10.441,4.036,9.234,2.829,7.75,2.829z"/>
</g>
<path fill="#ADAFB0" d="M38.102,39.98H1.875C0.839,39.98,0,39.143,0,38.106V1.878C0,0.845,0.839,0,1.875,0h36.226
	c1.035,0,1.879,0.844,1.879,1.878v36.228C39.98,39.143,39.137,39.98,38.102,39.98 M3.748,1.879c-1.035,0-1.875,0.842-1.875,1.875
	c0,1.034,0.837,1.878,1.875,1.878c1.032,0,1.875-0.842,1.875-1.878C5.623,2.721,4.782,1.879,3.748,1.879 M9.371,1.879
	c-1.035,0-1.875,0.842-1.875,1.875c0,1.034,0.838,1.878,1.875,1.878c1.032,0,1.875-0.842,1.875-1.878
	C11.243,2.721,10.403,1.879,9.371,1.879 M14.991,1.879c-1.034,0-1.873,0.842-1.873,1.875c0,1.034,0.836,1.878,1.873,1.878
	c1.036,0,1.878-0.842,1.878-1.878C16.866,2.721,16.024,1.879,14.991,1.879 M36.911,8.505H3.064v28.598h33.853V8.505H36.911z"/>
<g>
	<path fill="#ADAFB0" d="M12.086,20.942c0.636-0.381,0.997,0.052,1.691,0.375c0.597,0.279,1.263,0.284,1.321-0.065
		c0.094-0.565,0.073-0.836,0.073-1.603c0-0.611-0.192-1.995-0.344-3.039c-0.184-1.258-0.247-1.996,0.37-2.053
		c0.594-0.055,0.624,0.278,0.848,1.987c0.172,1.31,0.446,2.23,0.582,2.203c0.136-0.027-0.066-1.214-0.115-2.423
		c-0.089-2.165,0.026-2.505,0.572-2.505c0.471,0,0.572,0.306,0.633,2.505c0.033,1.145,0.156,2.334,0.253,2.334
		c0.146,0,0.26-1.117,0.239-2.327c-0.042-2.263,0.356-2.093,0.596-2.093c0.236,0,0.649,0.068,0.636,2.226
		c-0.008,1.262,0,2.352,0.238,2.352c0.106,0,0.278-1.017,0.278-2.008c0-1.655,0.318-1.655,0.569-1.655
		c0.252,0,0.385,0.305,0.397,1.96c0.011,1.318-0.142,3.176-0.142,4.302c0,1.198-0.171,1.879-0.362,2.342
		c-0.339,0.82-1.144,1.356-2.031,1.356h-0.714c-0.93,0-1.826-0.377-2.477-1.041c-0.614-0.626-2.006-1.828-3.104-2.064
		C11.359,21.852,11.692,21.179,12.086,20.942z"/>
	<path fill="#ADAFB0" d="M31.594,31.04l-4.352-4.354c-0.548-0.549-1.372-0.643-2.023-0.296l-0.826-0.826
		c1.249-1.577,1.998-3.566,1.998-5.735c0-5.111-4.143-9.254-9.254-9.254c-5.112,0-9.255,4.143-9.255,9.254
		c0,5.112,4.143,9.255,9.255,9.255c2.167,0,4.157-0.749,5.734-1.997l0.826,0.825c-0.345,0.651-0.253,1.474,0.297,2.022l4.353,4.353
		c0.672,0.675,1.762,0.675,2.436,0l0.812-0.811C32.268,32.804,32.268,31.712,31.594,31.04z M17.137,27.373
		c-4.167,0-7.543-3.376-7.543-7.544c0-4.166,3.376-7.541,7.543-7.541s7.544,3.375,7.544,7.541
		C24.681,23.997,21.304,27.373,17.137,27.373z"/>
</g>
</svg>
