<?xml version="1.0" encoding="utf-8"?>
<!-- Generator: Adobe Illustrator 16.0.0, SVG Export Plug-In . SVG Version: 6.00 Build 0)  -->
<!DOCTYPE svg PUBLIC "-//W3C//DTD SVG 1.1//EN" "http://www.w3.org/Graphics/SVG/1.1/DTD/svg11.dtd">
<svg version="1.1" id="Layer_1" xmlns="http://www.w3.org/2000/svg" xmlns:xlink="http://www.w3.org/1999/xlink" x="0px" y="0px"
	 width="40px" height="40px" viewBox="-12.25 -12.25 40 40" enable-background="new -12.25 -12.25 40 40" xml:space="preserve">
<g display="none">
	<path display="inline" fill="#ADAFB0" d="M14.766,15.5H0.735c-0.401,0-0.726-0.324-0.726-0.727V5.949H15.49v8.824
		C15.491,15.176,15.166,15.5,14.766,15.5 M0.01,0.746c0-0.401,0.325-0.727,0.726-0.727h3.628L5.811,1.47h8.955
		c0.4,0,0.727,0.325,0.727,0.727v2.3H0.01V0.746z"/>
</g>
<g display="none">
	<g display="inline">
		<path fill="#ADAFB0" stroke="#ADAFB0" stroke-width="0.4" stroke-miterlimit="10" d="M4.285,6.51L3.446,7.162
			C3.354,7.231,3.26,7.243,3.179,7.15L2.958,6.905C2.876,6.813,2.922,6.707,2.981,6.649l1.63-1.584h0.315
			c0.116,0,0.209,0.104,0.209,0.222v7.477c0,0.116-0.094,0.221-0.209,0.221h-0.42c-0.127,0-0.221-0.104-0.221-0.221V6.51z"/>
		<path fill="#ADAFB0" stroke="#ADAFB0" stroke-width="0.4" stroke-miterlimit="10" d="M7.087,7.243
			c0-0.372,0.302-0.663,0.662-0.663c0.373,0,0.665,0.291,0.665,0.663c0,0.36-0.292,0.663-0.665,0.663
			C7.389,7.906,7.087,7.604,7.087,7.243z M7.749,10.143c0.373,0,0.665,0.291,0.665,0.664c0,0.361-0.292,0.664-0.665,0.664
			c-0.36,0-0.662-0.303-0.662-0.664C7.087,10.434,7.389,10.143,7.749,10.143z"/>
		<path fill="#ADAFB0" stroke="#ADAFB0" stroke-width="0.4" stroke-miterlimit="10" d="M11.039,6.51L10.2,7.162
			c-0.095,0.069-0.187,0.081-0.267-0.012L9.711,6.905C9.629,6.813,9.676,6.707,9.734,6.649l1.63-1.584h0.315
			c0.115,0,0.209,0.104,0.209,0.222v7.477c0,0.116-0.094,0.221-0.209,0.221h-0.421c-0.128,0-0.221-0.104-0.221-0.221L11.039,6.51
			L11.039,6.51z"/>
	</g>
	<path display="inline" fill="#ADAFB0" d="M14.766,15.5H0.735c-0.4,0-0.726-0.324-0.726-0.727V0.746
		c0-0.401,0.325-0.727,0.726-0.727h14.031c0.399,0,0.726,0.325,0.726,0.727v14.027C15.491,15.176,15.166,15.5,14.766,15.5
		 M1.461,0.746c-0.401,0-0.726,0.324-0.726,0.725c0,0.401,0.325,0.727,0.726,0.727c0.4,0,0.725-0.325,0.725-0.727
		C2.187,1.07,1.862,0.746,1.461,0.746 M3.638,0.746c-0.4,0-0.725,0.324-0.725,0.725c0,0.401,0.325,0.727,0.725,0.727
		c0.401,0,0.726-0.325,0.726-0.727C4.364,1.07,4.039,0.746,3.638,0.746 M5.815,0.746c-0.4,0-0.726,0.324-0.726,0.725
		c0,0.401,0.325,0.727,0.726,0.727s0.726-0.325,0.726-0.727C6.541,1.07,6.216,0.746,5.815,0.746 M14.305,3.313H1.196v11.072h13.109
		V3.313z"/>
</g>
<g display="none">
	<path display="inline" fill="#ADAFB0" d="M14.764,0.02H0.735c-0.4,0-0.726,0.325-0.726,0.727v14.028c0,0.4,0.325,0.726,0.726,0.726
		h14.029c0.401,0,0.728-0.324,0.728-0.726V0.746C15.491,0.345,15.166,0.02,14.764,0.02z M14.04,7.034H8.477V1.471h5.563L14.04,7.034
		L14.04,7.034z M7.024,1.471v5.563H1.461V1.471H7.024z M1.461,8.486h5.563v5.563H1.461V8.486z M8.477,14.049V8.486h5.563v5.563
		H8.477z"/>
</g>
<g display="none">
	<path display="inline" fill="#ADAFB0" d="M15.491,14.049c0,0.803-0.649,1.451-1.451,1.451c-0.401,0-0.765-0.162-1.026-0.425
		L8.76,10.822c-0.864,0.51-1.869,0.809-2.945,0.809c-3.207,0-5.806-2.6-5.806-5.806s2.6-5.805,5.806-5.805
		c3.207,0,5.805,2.6,5.805,5.806c0,1.076-0.298,2.08-0.808,2.943l4.252,4.254C15.329,13.285,15.491,13.648,15.491,14.049
		 M5.815,1.471c-2.405,0-4.354,1.95-4.354,4.354c0,2.404,1.949,4.354,4.354,4.354c2.405,0,4.354-1.95,4.354-4.354
		C10.169,3.42,8.22,1.471,5.815,1.471 M8.234,6.551H3.396c-0.4,0-0.725-0.324-0.725-0.726c0-0.402,0.325-0.725,0.725-0.725h4.838
		c0.4,0,0.725,0.324,0.725,0.726C8.959,6.228,8.635,6.551,8.234,6.551"/>
</g>
<g>
	<path fill="#ADAFB0" d="M27.367,23.697c0,2.034-1.646,3.678-3.678,3.678c-1.017,0-1.938-0.411-2.601-1.076l-10.78-10.778
		c-2.192,1.292-4.736,2.049-7.463,2.049c-8.125,0-14.711-6.588-14.711-14.712c0-8.125,6.586-14.712,14.711-14.712
		c8.126,0,14.714,6.589,14.714,14.714c0,2.726-0.755,5.271-2.049,7.459l10.78,10.78C26.956,21.762,27.367,22.683,27.367,23.697
		 M2.845-8.177c-6.094,0-11.034,4.941-11.034,11.034c0,6.091,4.94,11.035,11.034,11.035c6.095,0,11.035-4.94,11.035-11.035
		C13.88-3.239,8.94-8.177,2.845-8.177 M8.976,4.695h-4.29v4.292c0,1.015-0.824,1.841-1.84,1.841c-1.016,0-1.837-0.826-1.837-1.841
		V4.695h-4.292c-1.016,0-1.84-0.82-1.84-1.838c0-1.02,0.827-1.838,1.84-1.838h4.292v-4.292c0-1.015,0.822-1.843,1.837-1.843
		c1.016,0,1.84,0.826,1.84,1.843v4.292h4.29c1.014,0,1.838,0.82,1.838,1.84C10.813,3.877,9.991,4.695,8.976,4.695"/>
</g>
<g display="none">
	<path display="inline" fill="#ADAFB0" d="M14.764,0.02H0.735c-0.401,0-0.726,0.325-0.726,0.727v14.028
		c0,0.4,0.325,0.726,0.726,0.726h14.029c0.401,0,0.727-0.324,0.727-0.726V0.746C15.49,0.345,15.166,0.02,14.764,0.02z
		 M14.281,14.291H1.219V1.229h13.063V14.291z"/>
	<path display="inline" fill="#ADAFB0" d="M7.85,11.484h-0.2c-0.422,0-0.765,0.344-0.765,0.766s0.343,0.766,0.765,0.766h0.2
		c0.423,0,0.765-0.344,0.765-0.766S8.273,11.484,7.85,11.484z"/>
	<path display="inline" fill="#ADAFB0" d="M7.75,2.829c-1.484,0-2.691,1.207-2.691,2.69c0,0.334,0.271,0.605,0.605,0.605
		s0.604-0.271,0.604-0.605c0-0.816,0.665-1.48,1.482-1.48c0.816,0,1.48,0.664,1.48,1.48c0,0.818-0.664,1.482-1.48,1.482
		c-0.334,0-0.605,0.271-0.605,0.604v2.601c0,0.334,0.271,0.604,0.605,0.604c0.333,0,0.604-0.271,0.604-0.604V8.143
		c1.194-0.275,2.086-1.347,2.086-2.623C10.441,4.036,9.234,2.829,7.75,2.829z"/>
</g>
<g display="none">
	<path display="inline" fill="#ADAFB0" d="M7.5,13.587L6.503,12.59c-0.138-0.137-0.138-0.361,0-0.498
		c0.138-0.138,0.36-0.138,0.499,0l0.395,0.396V10.01l0,0C7.398,9.92,7.434,9.832,7.5,9.766c0.138-0.14,0.361-0.14,0.498,0
		C8.065,9.832,8.1,9.92,8.102,10.01v-0.002v2.479l0.396-0.396c0.138-0.138,0.361-0.138,0.5,0c0.137,0.138,0.137,0.361,0,0.498
		l-0.999,0.997C7.861,13.725,7.638,13.725,7.5,13.587 M10.825,10.264c-0.14-0.138-0.14-0.359,0-0.498l0.396-0.396H8.74l0,0
		C8.652,9.368,8.564,9.334,8.497,9.266c-0.138-0.137-0.138-0.358,0-0.498C8.564,8.7,8.652,8.666,8.74,8.664l0,0h2.479L10.825,8.27
		c-0.14-0.138-0.14-0.36,0-0.499c0.137-0.138,0.358-0.138,0.498,0l0.995,0.997c0.14,0.14,0.14,0.361,0,0.498l-0.995,0.998
		C11.184,10.402,10.961,10.402,10.825,10.264 M6.758,9.369H4.279l0.396,0.396c0.138,0.139,0.138,0.36,0,0.498
		c-0.138,0.139-0.36,0.139-0.499,0L3.18,9.266c-0.139-0.137-0.139-0.358,0-0.498l0.996-0.997c0.139-0.138,0.361-0.138,0.499,0
		c0.138,0.138,0.138,0.361,0,0.499L4.279,8.664h2.479v0.002c0.088,0,0.176,0.034,0.244,0.102c0.138,0.14,0.138,0.361,0,0.498
		C6.934,9.334,6.846,9.368,6.758,9.369L6.758,9.369z M7.5,8.27C7.432,8.201,7.398,8.113,7.396,8.025l0,0V5.547L7.002,5.941
		c-0.139,0.14-0.361,0.14-0.499,0c-0.138-0.137-0.138-0.359,0-0.498L7.5,4.446c0.138-0.138,0.361-0.138,0.498,0l0.999,0.997
		c0.137,0.139,0.137,0.361,0,0.498c-0.14,0.14-0.362,0.14-0.5,0L8.102,5.547v2.479l0,0C8.1,8.113,8.065,8.202,7.998,8.27
		C7.861,8.407,7.638,8.407,7.5,8.27"/>
	<path display="inline" fill="#ADAFB0" d="M14.771,15.5H0.727C0.325,15.5,0,15.176,0,14.773V0.728C0,0.327,0.325,0,0.727,0h14.044
		C15.173,0,15.5,0.327,15.5,0.728v14.045C15.5,15.176,15.173,15.5,14.771,15.5 M1.453,0.728c-0.401,0-0.727,0.326-0.727,0.727
		s0.325,0.728,0.727,0.728c0.4,0,0.727-0.326,0.727-0.728C2.18,1.054,1.854,0.728,1.453,0.728 M3.633,0.728
		c-0.401,0-0.727,0.326-0.727,0.727s0.325,0.728,0.727,0.728c0.4,0,0.727-0.326,0.727-0.728C4.359,1.054,4.033,0.728,3.633,0.728
		 M5.812,0.728c-0.401,0-0.726,0.326-0.726,0.727S5.41,2.183,5.812,2.183S6.54,1.857,6.54,1.455
		C6.539,1.054,6.213,0.728,5.812,0.728 M14.311,3.297H1.188v11.088h13.125V3.297H14.311z"/>
</g>
</svg>
