<?xml version="1.0" encoding="utf-8"?>
<!-- Generator: Adobe Illustrator 16.0.0, SVG Export Plug-In . SVG Version: 6.00 Build 0)  -->
<!DOCTYPE svg PUBLIC "-//W3C//DTD SVG 1.1//EN" "http://www.w3.org/Graphics/SVG/1.1/DTD/svg11.dtd">
<svg version="1.1" id="Layer_1" xmlns="http://www.w3.org/2000/svg" xmlns:xlink="http://www.w3.org/1999/xlink" x="0px" y="0px"
	 width="200px" height="36px" viewBox="0 0 200 36" enable-background="new 0 0 200 36" xml:space="preserve">
<g>
	<g>
		<path fill-rule="evenodd" clip-rule="evenodd" fill="#35C3E3" d="M112.651,13.202c-0.414,1.928-0.289,3.378,0.373,4.351
			c0.666,0.971,1.863,1.456,3.6,1.458c1.757,0.002,3.187-0.471,4.278-1.423s1.839-2.367,2.242-4.247
			c0.438-2.039,0.313-3.595-0.367-4.664c-0.682-1.068-1.894-1.606-3.647-1.608c-1.63-0.002-3.016,0.532-4.15,1.604
			C113.846,9.745,113.068,11.255,112.651,13.202L112.651,13.202z M115.487,22.933c-3.758-0.004-6.435-0.919-8.025-2.604
			c-1.595-1.685-2.045-4.138-1.353-7.367c0.673-3.137,2.222-5.548,4.647-7.228c2.422-1.681,5.564-2.516,9.418-2.512
			c3.819,0.004,6.546,0.856,8.183,2.559c1.634,1.703,2.106,4.173,1.412,7.415c-0.681,3.177-2.227,5.583-4.639,7.219
			C122.72,22.051,119.507,22.938,115.487,22.933L115.487,22.933z M136.988,13.229c-0.414,1.929-0.29,3.379,0.372,4.351
			c0.667,0.972,1.864,1.458,3.601,1.458c1.757,0.002,3.187-0.471,4.278-1.423s1.839-2.366,2.242-4.247
			c0.438-2.039,0.313-3.595-0.367-4.663c-0.682-1.068-1.894-1.606-3.647-1.608c-1.63-0.002-3.016,0.533-4.15,1.604
			S137.405,11.284,136.988,13.229L136.988,13.229z M139.823,22.933c-3.757-0.004-6.434-0.892-8.024-2.577
			c-1.594-1.684-2.045-4.137-1.354-7.366c0.674-3.137,2.223-5.547,4.648-7.229c2.423-1.68,5.564-2.516,9.419-2.512
			c3.817,0.005,6.546,0.855,8.182,2.559c1.634,1.702,2.106,4.172,1.412,7.415c-0.682,3.176-2.226,5.583-4.639,7.219
			C147.056,22.078,143.846,22.938,139.823,22.933L139.823,22.933z M170.492,18.458l-0.889,4.475h-16.4l4.068-19.334l6.492,0.007
			l-3.182,14.842L170.492,18.458L170.492,18.458z M177.354,16.339c-0.002,0.009-0.006,0.026-0.011,0.053
			c-0.088,0.237-0.142,0.414-0.166,0.527c-0.158,0.739,0.041,1.288,0.592,1.649c0.556,0.361,1.492,0.542,2.814,0.544
			c1.006,0.001,1.826-0.147,2.46-0.44c0.635-0.294,1.008-0.703,1.117-1.217c0.168-0.781-0.826-1.416-2.974-1.911
			c-0.257-0.057-0.445-0.102-0.567-0.128c-0.137-0.036-0.338-0.083-0.603-0.141c-3.418-0.786-5.544-1.637-6.366-2.556
			c-0.401-0.449-0.665-0.977-0.789-1.588c-0.12-0.606-0.101-1.296,0.063-2.056c0.4-1.872,1.533-3.295,3.391-4.273
			c1.858-0.978,4.371-1.462,7.548-1.459c3.133,0.003,5.36,0.463,6.671,1.383c1.313,0.921,1.767,2.335,1.359,4.238l-0.047,0.219
			l-5.938-0.006l0.02-0.088c0.14-0.654-0.054-1.147-0.583-1.486c-0.529-0.338-1.371-0.511-2.531-0.512
			c-0.901-0.001-1.622,0.117-2.162,0.357c-0.538,0.242-0.857,0.584-0.953,1.028c-0.17,0.791,0.982,1.464,3.455,2.025
			c0.476,0.103,0.849,0.186,1.117,0.244c1.759,0.415,2.996,0.772,3.715,1.067c0.719,0.299,1.316,0.647,1.797,1.052
			c0.533,0.462,0.9,1.047,1.092,1.75c0.191,0.708,0.199,1.477,0.018,2.32c-0.413,1.929-1.628,3.413-3.644,4.447
			c-2.021,1.04-4.715,1.555-8.086,1.551c-3.331-0.004-5.637-0.507-6.913-1.506c-1.274-1.005-1.673-2.608-1.201-4.814l0.061-0.281
			L177.354,16.339L177.354,16.339z"/>
		<path fill="#35C3E3" d="M192.949,1.152h1.607c0.533,0,0.873,0.372,0.873,0.822c0,0.351-0.143,0.614-0.472,0.747V2.73
			c0.32,0.083,0.413,0.396,0.434,0.697c0.012,0.188,0.008,0.539,0.125,0.706h-0.655c-0.079-0.188-0.071-0.476-0.104-0.714
			c-0.046-0.313-0.167-0.451-0.497-0.451h-0.654v1.165h-0.656V1.152z M193.605,2.5h0.717c0.292,0,0.451-0.125,0.451-0.425
			c0-0.289-0.159-0.414-0.451-0.414h-0.717V2.5z"/>
		<path fill="#35C3E3" d="M194.146,5.285c-1.457,0-2.643-1.186-2.643-2.643c0-1.457,1.186-2.642,2.643-2.642
			s2.642,1.186,2.642,2.642C196.788,4.1,195.604,5.285,194.146,5.285z M194.146,0.348c-1.266,0-2.295,1.029-2.295,2.294
			c0,1.266,1.029,2.295,2.295,2.295c1.265,0,2.294-1.03,2.294-2.295C196.44,1.377,195.411,0.348,194.146,0.348z"/>
		<polygon fill-rule="evenodd" clip-rule="evenodd" fill="#35C3E3" points="91.381,22.933 94.587,7.614 87.452,7.606 88.354,3.396 
			109.165,3.396 108.263,7.629 101.127,7.622 97.921,22.933 91.381,22.933 		"/>
	</g>
	<g>
		<path fill="#144D9B" d="M5.527,28.964H3.209v-0.896h5.639v0.896H6.53v6.861H5.527V28.964z"/>
		<path fill="#144D9B" d="M14.51,35.825v-3.519h-3.437v3.519H10.07v-7.758h1.002v3.343h3.437v-3.343h1.002v7.758H14.51z"/>
		<path fill="#144D9B" d="M17.493,28.067h4.566v0.896h-3.564v2.434h3.309v0.897h-3.309v2.634h3.577v0.896h-4.579V28.067z"/>
		<path fill="#144D9B" d="M32.894,34.869l1.771-6.802h0.978l-2.039,7.758h-1.409l-1.608-6.932l-1.608,6.932h-1.41l-2.038-7.758
			h0.979l1.771,6.802l1.607-6.802h1.399L32.894,34.869z"/>
		<path fill="#144D9B" d="M42.237,33.59c0,1.292-0.804,2.352-2.808,2.352c-2.003,0-2.807-1.06-2.807-2.352v-3.286
			c0-1.294,0.804-2.354,2.807-2.354c2.004,0,2.808,1.06,2.808,2.354V33.59z M37.623,33.564c0,0.956,0.583,1.492,1.806,1.492
			c1.224,0,1.806-0.536,1.806-1.492v-3.238c0-0.955-0.583-1.49-1.806-1.49c-1.222,0-1.806,0.535-1.806,1.49V33.564z"/>
		<path fill="#144D9B" d="M46.944,33.019h-1.899v2.807h-1.001v-7.758h2.959c1.666,0,2.248,0.721,2.248,1.91v1.118
			c0,0.921-0.337,1.548-1.235,1.805l2.017,2.925h-1.154L46.944,33.019z M46.967,28.964h-1.922v3.168h1.922
			c0.955,0,1.282-0.268,1.282-1.024v-1.119C48.249,29.22,47.922,28.964,46.967,28.964z"/>
		<path fill="#144D9B" d="M52.407,34.929h3.368v0.896h-4.369v-7.758h1.001V34.929z"/>
		<path fill="#144D9B" d="M59.945,28.067c1.899,0,2.494,0.988,2.494,2.224v3.31c0,1.235-0.595,2.225-2.494,2.225h-2.714v-7.758
			H59.945z M58.233,34.929h1.677c1.176,0,1.526-0.49,1.526-1.398v-3.168c0-0.909-0.35-1.398-1.526-1.398h-1.677V34.929z"/>
		<path fill="#144D9B" d="M67.692,34.929h3.367v0.896H66.69v-7.758h1.002V34.929z"/>
		<path fill="#144D9B" d="M72.515,28.067h4.567v0.896h-3.565v2.434h3.308v0.897h-3.308v2.634h3.576v0.896h-4.579V28.067z"/>
		<path fill="#144D9B" d="M84.876,35.825h-1.014l-0.641-1.864h-3.297l-0.629,1.864h-1.013l2.621-7.758h1.352L84.876,35.825z
			 M81.58,28.788l-1.387,4.3h2.773L81.58,28.788z"/>
		<path fill="#144D9B" d="M88.907,28.067c1.899,0,2.494,0.988,2.494,2.224v3.31c0,1.235-0.594,2.225-2.494,2.225h-2.714v-7.758
			H88.907z M87.194,34.929h1.678c1.177,0,1.526-0.49,1.526-1.398v-3.168c0-0.909-0.349-1.398-1.526-1.398h-1.678V34.929z"/>
		<path fill="#144D9B" d="M93.147,28.067h4.566v0.896H94.15v2.434h3.308v0.897H94.15v2.634h3.576v0.896h-4.579V28.067z"/>
		<path fill="#144D9B" d="M102.34,33.019h-1.899v2.807h-1.002v-7.758h2.96c1.665,0,2.248,0.721,2.248,1.91v1.118
			c0,0.921-0.338,1.548-1.235,1.805l2.016,2.925h-1.153L102.34,33.019z M102.363,28.964h-1.923v3.168h1.923
			c0.954,0,1.281-0.268,1.281-1.024v-1.119C103.645,29.22,103.317,28.964,102.363,28.964z"/>
		<path fill="#144D9B" d="M110.366,35.825h-1.002v-7.758h1.002V35.825z"/>
		<path fill="#144D9B" d="M113.359,29.22v6.605h-0.955v-7.758h1.376l3.377,6.639v-6.639h0.956v7.758h-1.374L113.359,29.22z"/>
		<path fill="#144D9B" d="M123.658,35.825h-1.001v-7.758h1.001V35.825z"/>
		<path fill="#144D9B" d="M126.7,29.534l-0.153,6.291h-0.966l0.268-7.758h1.27l2.237,5.998l2.236-5.998h1.271l0.269,7.758h-0.969
			l-0.149-6.291l-1.981,5.289h-1.352L126.7,29.534z"/>
		<path fill="#144D9B" d="M140.982,35.825h-1.013l-0.642-1.864h-3.298l-0.628,1.864h-1.015l2.622-7.758h1.352L140.982,35.825z
			 M137.686,28.788l-1.387,4.3h2.772L137.686,28.788z"/>
		<path fill="#144D9B" d="M143.045,33.601c0,0.99,0.291,1.433,1.619,1.433c0.408,0,0.92-0.035,1.456-0.141v-2.632h0.968v3.345
			c-0.759,0.22-1.655,0.336-2.459,0.336c-1.981,0-2.586-0.85-2.586-2.282v-3.413c0-1.574,0.779-2.296,2.714-2.296
			c0.664,0,1.432,0.081,2.155,0.245l-0.115,0.86c-0.747-0.128-1.445-0.197-2.087-0.197c-1.282,0-1.665,0.385-1.665,1.433V33.601z"/>
		<path fill="#144D9B" d="M150.011,35.825h-1.002v-7.758h1.002V35.825z"/>
		<path fill="#144D9B" d="M153.006,29.22v6.605h-0.954v-7.758h1.373l3.378,6.639v-6.639h0.955v7.758h-1.375L153.006,29.22z"/>
		<path fill="#144D9B" d="M160.566,33.601c0,0.99,0.292,1.433,1.62,1.433c0.406,0,0.919-0.035,1.456-0.141v-2.632h0.966v3.345
			c-0.757,0.22-1.654,0.336-2.458,0.336c-1.98,0-2.586-0.85-2.586-2.282v-3.413c0-1.574,0.779-2.296,2.714-2.296
			c0.664,0,1.434,0.081,2.156,0.245l-0.118,0.86c-0.745-0.128-1.443-0.197-2.084-0.197c-1.282,0-1.666,0.385-1.666,1.433V33.601z"/>
		<path fill="#144D9B" d="M170.993,35.941c-0.746,0-1.643-0.139-2.307-0.407l0.161-0.815c0.712,0.222,1.458,0.338,2.168,0.338
			c1.246,0,1.503-0.325,1.503-1.212c0-1.049-0.011-1.142-1.607-1.503c-1.875-0.419-2.097-0.781-2.097-2.389
			c0-1.352,0.559-2.003,2.48-2.003c0.677,0,1.481,0.092,2.097,0.255l-0.081,0.851c-0.616-0.139-1.352-0.22-1.993-0.22
			c-1.269,0-1.501,0.255-1.501,1.152c0,1.072,0,1.119,1.537,1.502c2.063,0.514,2.168,0.816,2.168,2.332
			C173.521,35.173,173.125,35.941,170.993,35.941z"/>
		<path fill="#144D9B" d="M177.982,28.067c1.899,0,2.494,0.988,2.494,2.224v3.31c0,1.235-0.595,2.225-2.494,2.225h-2.713v-7.758
			H177.982z M176.271,34.929h1.678c1.176,0,1.526-0.49,1.526-1.398v-3.168c0-0.909-0.351-1.398-1.526-1.398h-1.678V34.929z"/>
		<path fill="#144D9B" d="M183.226,35.825h-1.003v-7.758h1.003V35.825z M184.6,31.875l3.076,3.95h-1.2l-3.005-3.95l2.795-3.808
			h1.177L184.6,31.875z"/>
		<path fill="#144D9B" d="M190.413,35.941c-0.583,0-1.351-0.127-1.806-0.303l0.128-0.77c0.49,0.142,1.131,0.233,1.619,0.233
			c0.897,0,1.049-0.162,1.049-0.769c0-0.605-0.047-0.675-1.188-0.955c-1.409-0.35-1.538-0.64-1.538-1.818
			c0-1.048,0.467-1.525,1.958-1.525c0.547,0,1.143,0.07,1.607,0.198l-0.068,0.805c-0.479-0.094-1.109-0.163-1.574-0.163
			c-0.839,0-0.956,0.196-0.956,0.709c0,0.63,0.013,0.746,0.969,0.979c1.63,0.407,1.759,0.606,1.759,1.736
			C192.371,35.406,192.033,35.941,190.413,35.941z"/>
	</g>
	<path fill-rule="evenodd" clip-rule="evenodd" fill="#144D9B" d="M20.414,18.288l-0.888,4.645H3.565L7.634,3.427l6.49,0.007
		l-3.181,14.842 M20.467,22.933l4.069-19.487l16.927,0.02l-0.877,4.095L30.017,7.548l-0.647,3.023l9.773,0.011l-0.867,4.042
		l-9.773-0.011l-0.789,3.682l10.529,0.012l-0.888,4.625H20.467L20.467,22.933z M55.105,14.898l-1.563-6.901l-4.695,6.894
		L55.105,14.898L55.105,14.898z M43.797,22.933h-6.372L51.333,3.477l6.174,0.008l5.317,19.447h-6.2l-0.698-3.889l-9.861-0.013
		L43.797,22.933L43.797,22.933z M75.884,7.676l-3.115-0.003l-2.288,10.672l3.115,0.003c2.207,0.002,3.896-0.413,5.067-1.243
		c1.176-0.833,1.959-2.168,2.354-4.014c0.389-1.814,0.156-3.168-0.693-4.066C79.475,8.128,77.994,7.679,75.884,7.676L75.884,7.676z
		 M63.129,22.933l4.069-19.437l10.868,0.012c3.766,0.004,6.462,0.833,8.09,2.488c1.628,1.654,2.107,4.054,1.433,7.204
		c-0.651,3.036-2.083,5.347-4.294,6.93c-2.207,1.58-5.106,2.809-8.696,2.804H63.129L63.129,22.933z"/>
</g>
</svg>
